<?xml version="1.0" encoding="utf-8" standalone="no"?>
<!DOCTYPE svg PUBLIC "-//W3C//DTD SVG 1.1//EN"
  "http://www.w3.org/Graphics/SVG/1.1/DTD/svg11.dtd">
<svg xmlns:xlink="http://www.w3.org/1999/xlink" width="439.110088pt" height="310.069117pt" viewBox="0 0 439.110088 310.069117" xmlns="http://www.w3.org/2000/svg" version="1.1">
 <metadata>
  <rdf:RDF xmlns:dc="http://purl.org/dc/elements/1.1/" xmlns:cc="http://creativecommons.org/ns#" xmlns:rdf="http://www.w3.org/1999/02/22-rdf-syntax-ns#">
   <cc:Work>
    <dc:type rdf:resource="http://purl.org/dc/dcmitype/StillImage"/>
    <dc:date>2025-05-28T13:03:04.422338</dc:date>
    <dc:format>image/svg+xml</dc:format>
    <dc:creator>
     <cc:Agent>
      <dc:title>Matplotlib v3.9.2, https://matplotlib.org/</dc:title>
     </cc:Agent>
    </dc:creator>
   </cc:Work>
  </rdf:RDF>
 </metadata>
 <defs>
  <style type="text/css">*{stroke-linejoin: round; stroke-linecap: butt}</style>
 </defs>
 <g id="figure_1">
  <g id="patch_1">
   <path d="M 0 310.069117 
L 439.110088 310.069117 
L 439.110088 0 
L 0 0 
z
" style="fill: #ffffff"/>
  </g>
  <g id="axes_1">
   <g id="patch_2">
    <path d="M 71.932813 187.3832 
L 431.910088 187.3832 
L 431.910088 7.2 
L 71.932813 7.2 
z
" style="fill: #ffffff"/>
   </g>
   <g id="matplotlib.axis_1">
    <g id="xtick_1">
     <g id="line2d_1">
      <defs>
       <path id="me4205e9703" d="M 0 0 
L 0 -5 
" style="stroke: #000000; stroke-width: 0.75"/>
      </defs>
      <g>
       <use xlink:href="#me4205e9703" x="360.134846" y="187.3832" style="stroke: #000000; stroke-width: 0.75"/>
      </g>
     </g>
     <g id="line2d_2">
      <defs>
       <path id="m9204df1382" d="M 0 0 
L 0 5 
" style="stroke: #000000; stroke-width: 0.75"/>
      </defs>
      <g>
       <use xlink:href="#m9204df1382" x="360.134846" y="7.2" style="stroke: #000000; stroke-width: 0.75"/>
      </g>
     </g>
     <g id="text_1">
      <!-- $\mathdefault{10^{-3}}$ -->
      <g transform="translate(340.244846 203.800544) scale(0.17 -0.17)">
       <defs>
        <path id="DejaVuSerif-31" d="M 909 0 
L 909 331 
L 1722 331 
L 1722 4213 
L 781 3603 
L 781 4013 
L 1919 4750 
L 2350 4750 
L 2350 331 
L 3163 331 
L 3163 0 
L 909 0 
z
" transform="scale(0.015625)"/>
        <path id="DejaVuSerif-30" d="M 2034 219 
Q 2513 219 2750 744 
Q 2988 1269 2988 2328 
Q 2988 3391 2750 3916 
Q 2513 4441 2034 4441 
Q 1556 4441 1318 3916 
Q 1081 3391 1081 2328 
Q 1081 1269 1318 744 
Q 1556 219 2034 219 
z
M 2034 -91 
Q 1275 -91 848 546 
Q 422 1184 422 2328 
Q 422 3475 848 4112 
Q 1275 4750 2034 4750 
Q 2797 4750 3222 4112 
Q 3647 3475 3647 2328 
Q 3647 1184 3222 546 
Q 2797 -91 2034 -91 
z
" transform="scale(0.015625)"/>
        <path id="DejaVuSerif-2212" d="M 678 2259 
L 4684 2259 
L 4684 1753 
L 678 1753 
L 678 2259 
z
" transform="scale(0.015625)"/>
        <path id="DejaVuSerif-33" d="M 622 4469 
Q 988 4606 1323 4678 
Q 1659 4750 1953 4750 
Q 2638 4750 3022 4454 
Q 3406 4159 3406 3634 
Q 3406 3213 3140 2930 
Q 2875 2647 2388 2547 
Q 2963 2466 3280 2130 
Q 3597 1794 3597 1259 
Q 3597 606 3158 257 
Q 2719 -91 1894 -91 
Q 1528 -91 1179 -12 
Q 831 66 488 225 
L 488 1131 
L 838 1131 
Q 869 681 1141 450 
Q 1413 219 1906 219 
Q 2384 219 2661 495 
Q 2938 772 2938 1253 
Q 2938 1803 2653 2086 
Q 2369 2369 1819 2369 
L 1522 2369 
L 1522 2688 
L 1678 2688 
Q 2225 2688 2498 2914 
Q 2772 3141 2772 3597 
Q 2772 4006 2547 4223 
Q 2322 4441 1900 4441 
Q 1478 4441 1245 4241 
Q 1013 4041 972 3647 
L 622 3647 
L 622 4469 
z
" transform="scale(0.015625)"/>
       </defs>
       <use xlink:href="#DejaVuSerif-31" transform="translate(0 0.7125)"/>
       <use xlink:href="#DejaVuSerif-30" transform="translate(63.623047 0.7125)"/>
       <use xlink:href="#DejaVuSerif-2212" transform="translate(128.154453 37.046875) scale(0.7)"/>
       <use xlink:href="#DejaVuSerif-33" transform="translate(186.806797 37.046875) scale(0.7)"/>
      </g>
     </g>
    </g>
    <g id="xtick_2">
     <g id="line2d_3">
      <g>
       <use xlink:href="#me4205e9703" x="249.937721" y="187.3832" style="stroke: #000000; stroke-width: 0.75"/>
      </g>
     </g>
     <g id="line2d_4">
      <g>
       <use xlink:href="#m9204df1382" x="249.937721" y="7.2" style="stroke: #000000; stroke-width: 0.75"/>
      </g>
     </g>
     <g id="text_2">
      <!-- $\mathdefault{10^{-2}}$ -->
      <g transform="translate(230.047721 203.800544) scale(0.17 -0.17)">
       <defs>
        <path id="DejaVuSerif-32" d="M 819 3553 
L 469 3553 
L 469 4384 
Q 803 4563 1142 4656 
Q 1481 4750 1806 4750 
Q 2534 4750 2956 4397 
Q 3378 4044 3378 3438 
Q 3378 2753 2422 1800 
Q 2347 1728 2309 1691 
L 1131 513 
L 3078 513 
L 3078 1088 
L 3444 1088 
L 3444 0 
L 434 0 
L 434 341 
L 1850 1753 
Q 2319 2222 2519 2614 
Q 2719 3006 2719 3438 
Q 2719 3909 2473 4175 
Q 2228 4441 1797 4441 
Q 1350 4441 1106 4219 
Q 863 3997 819 3553 
z
" transform="scale(0.015625)"/>
       </defs>
       <use xlink:href="#DejaVuSerif-31" transform="translate(0 0.7125)"/>
       <use xlink:href="#DejaVuSerif-30" transform="translate(63.623047 0.7125)"/>
       <use xlink:href="#DejaVuSerif-2212" transform="translate(128.154453 37.046875) scale(0.7)"/>
       <use xlink:href="#DejaVuSerif-32" transform="translate(186.806797 37.046875) scale(0.7)"/>
      </g>
     </g>
    </g>
    <g id="xtick_3">
     <g id="line2d_5">
      <g>
       <use xlink:href="#me4205e9703" x="139.740596" y="187.3832" style="stroke: #000000; stroke-width: 0.75"/>
      </g>
     </g>
     <g id="line2d_6">
      <g>
       <use xlink:href="#m9204df1382" x="139.740596" y="7.2" style="stroke: #000000; stroke-width: 0.75"/>
      </g>
     </g>
     <g id="text_3">
      <!-- $\mathdefault{10^{-1}}$ -->
      <g transform="translate(119.850596 203.800544) scale(0.17 -0.17)">
       <use xlink:href="#DejaVuSerif-31" transform="translate(0 0.7125)"/>
       <use xlink:href="#DejaVuSerif-30" transform="translate(63.623047 0.7125)"/>
       <use xlink:href="#DejaVuSerif-2212" transform="translate(128.154453 37.046875) scale(0.7)"/>
       <use xlink:href="#DejaVuSerif-31" transform="translate(186.806797 37.046875) scale(0.7)"/>
      </g>
     </g>
    </g>
    <g id="xtick_4">
     <g id="line2d_7">
      <defs>
       <path id="m7046003638" d="M 0 0 
L 0 -2.5 
" style="stroke: #000000; stroke-width: 0.75"/>
      </defs>
      <g>
       <use xlink:href="#m7046003638" x="417.754581" y="187.3832" style="stroke: #000000; stroke-width: 0.75"/>
      </g>
     </g>
     <g id="line2d_8">
      <defs>
       <path id="mcedcceedd8" d="M 0 0 
L 0 2.5 
" style="stroke: #000000; stroke-width: 0.75"/>
      </defs>
      <g>
       <use xlink:href="#mcedcceedd8" x="417.754581" y="7.2" style="stroke: #000000; stroke-width: 0.75"/>
      </g>
     </g>
    </g>
    <g id="xtick_5">
     <g id="line2d_9">
      <g>
       <use xlink:href="#m7046003638" x="403.986691" y="187.3832" style="stroke: #000000; stroke-width: 0.75"/>
      </g>
     </g>
     <g id="line2d_10">
      <g>
       <use xlink:href="#mcedcceedd8" x="403.986691" y="7.2" style="stroke: #000000; stroke-width: 0.75"/>
      </g>
     </g>
    </g>
    <g id="xtick_6">
     <g id="line2d_11">
      <g>
       <use xlink:href="#m7046003638" x="393.307487" y="187.3832" style="stroke: #000000; stroke-width: 0.75"/>
      </g>
     </g>
     <g id="line2d_12">
      <g>
       <use xlink:href="#mcedcceedd8" x="393.307487" y="7.2" style="stroke: #000000; stroke-width: 0.75"/>
      </g>
     </g>
    </g>
    <g id="xtick_7">
     <g id="line2d_13">
      <g>
       <use xlink:href="#m7046003638" x="384.581941" y="187.3832" style="stroke: #000000; stroke-width: 0.75"/>
      </g>
     </g>
     <g id="line2d_14">
      <g>
       <use xlink:href="#mcedcceedd8" x="384.581941" y="7.2" style="stroke: #000000; stroke-width: 0.75"/>
      </g>
     </g>
    </g>
    <g id="xtick_8">
     <g id="line2d_15">
      <g>
       <use xlink:href="#m7046003638" x="377.204597" y="187.3832" style="stroke: #000000; stroke-width: 0.75"/>
      </g>
     </g>
     <g id="line2d_16">
      <g>
       <use xlink:href="#mcedcceedd8" x="377.204597" y="7.2" style="stroke: #000000; stroke-width: 0.75"/>
      </g>
     </g>
    </g>
    <g id="xtick_9">
     <g id="line2d_17">
      <g>
       <use xlink:href="#m7046003638" x="370.814051" y="187.3832" style="stroke: #000000; stroke-width: 0.75"/>
      </g>
     </g>
     <g id="line2d_18">
      <g>
       <use xlink:href="#mcedcceedd8" x="370.814051" y="7.2" style="stroke: #000000; stroke-width: 0.75"/>
      </g>
     </g>
    </g>
    <g id="xtick_10">
     <g id="line2d_19">
      <g>
       <use xlink:href="#m7046003638" x="365.17719" y="187.3832" style="stroke: #000000; stroke-width: 0.75"/>
      </g>
     </g>
     <g id="line2d_20">
      <g>
       <use xlink:href="#mcedcceedd8" x="365.17719" y="7.2" style="stroke: #000000; stroke-width: 0.75"/>
      </g>
     </g>
    </g>
    <g id="xtick_11">
     <g id="line2d_21">
      <g>
       <use xlink:href="#m7046003638" x="326.962206" y="187.3832" style="stroke: #000000; stroke-width: 0.75"/>
      </g>
     </g>
     <g id="line2d_22">
      <g>
       <use xlink:href="#mcedcceedd8" x="326.962206" y="7.2" style="stroke: #000000; stroke-width: 0.75"/>
      </g>
     </g>
    </g>
    <g id="xtick_12">
     <g id="line2d_23">
      <g>
       <use xlink:href="#m7046003638" x="307.557456" y="187.3832" style="stroke: #000000; stroke-width: 0.75"/>
      </g>
     </g>
     <g id="line2d_24">
      <g>
       <use xlink:href="#mcedcceedd8" x="307.557456" y="7.2" style="stroke: #000000; stroke-width: 0.75"/>
      </g>
     </g>
    </g>
    <g id="xtick_13">
     <g id="line2d_25">
      <g>
       <use xlink:href="#m7046003638" x="293.789566" y="187.3832" style="stroke: #000000; stroke-width: 0.75"/>
      </g>
     </g>
     <g id="line2d_26">
      <g>
       <use xlink:href="#mcedcceedd8" x="293.789566" y="7.2" style="stroke: #000000; stroke-width: 0.75"/>
      </g>
     </g>
    </g>
    <g id="xtick_14">
     <g id="line2d_27">
      <g>
       <use xlink:href="#m7046003638" x="283.110361" y="187.3832" style="stroke: #000000; stroke-width: 0.75"/>
      </g>
     </g>
     <g id="line2d_28">
      <g>
       <use xlink:href="#mcedcceedd8" x="283.110361" y="7.2" style="stroke: #000000; stroke-width: 0.75"/>
      </g>
     </g>
    </g>
    <g id="xtick_15">
     <g id="line2d_29">
      <g>
       <use xlink:href="#m7046003638" x="274.384816" y="187.3832" style="stroke: #000000; stroke-width: 0.75"/>
      </g>
     </g>
     <g id="line2d_30">
      <g>
       <use xlink:href="#mcedcceedd8" x="274.384816" y="7.2" style="stroke: #000000; stroke-width: 0.75"/>
      </g>
     </g>
    </g>
    <g id="xtick_16">
     <g id="line2d_31">
      <g>
       <use xlink:href="#m7046003638" x="267.007472" y="187.3832" style="stroke: #000000; stroke-width: 0.75"/>
      </g>
     </g>
     <g id="line2d_32">
      <g>
       <use xlink:href="#mcedcceedd8" x="267.007472" y="7.2" style="stroke: #000000; stroke-width: 0.75"/>
      </g>
     </g>
    </g>
    <g id="xtick_17">
     <g id="line2d_33">
      <g>
       <use xlink:href="#m7046003638" x="260.616926" y="187.3832" style="stroke: #000000; stroke-width: 0.75"/>
      </g>
     </g>
     <g id="line2d_34">
      <g>
       <use xlink:href="#mcedcceedd8" x="260.616926" y="7.2" style="stroke: #000000; stroke-width: 0.75"/>
      </g>
     </g>
    </g>
    <g id="xtick_18">
     <g id="line2d_35">
      <g>
       <use xlink:href="#m7046003638" x="254.980065" y="187.3832" style="stroke: #000000; stroke-width: 0.75"/>
      </g>
     </g>
     <g id="line2d_36">
      <g>
       <use xlink:href="#mcedcceedd8" x="254.980065" y="7.2" style="stroke: #000000; stroke-width: 0.75"/>
      </g>
     </g>
    </g>
    <g id="xtick_19">
     <g id="line2d_37">
      <g>
       <use xlink:href="#m7046003638" x="216.765081" y="187.3832" style="stroke: #000000; stroke-width: 0.75"/>
      </g>
     </g>
     <g id="line2d_38">
      <g>
       <use xlink:href="#mcedcceedd8" x="216.765081" y="7.2" style="stroke: #000000; stroke-width: 0.75"/>
      </g>
     </g>
    </g>
    <g id="xtick_20">
     <g id="line2d_39">
      <g>
       <use xlink:href="#m7046003638" x="197.36033" y="187.3832" style="stroke: #000000; stroke-width: 0.75"/>
      </g>
     </g>
     <g id="line2d_40">
      <g>
       <use xlink:href="#mcedcceedd8" x="197.36033" y="7.2" style="stroke: #000000; stroke-width: 0.75"/>
      </g>
     </g>
    </g>
    <g id="xtick_21">
     <g id="line2d_41">
      <g>
       <use xlink:href="#m7046003638" x="183.592441" y="187.3832" style="stroke: #000000; stroke-width: 0.75"/>
      </g>
     </g>
     <g id="line2d_42">
      <g>
       <use xlink:href="#mcedcceedd8" x="183.592441" y="7.2" style="stroke: #000000; stroke-width: 0.75"/>
      </g>
     </g>
    </g>
    <g id="xtick_22">
     <g id="line2d_43">
      <g>
       <use xlink:href="#m7046003638" x="172.913236" y="187.3832" style="stroke: #000000; stroke-width: 0.75"/>
      </g>
     </g>
     <g id="line2d_44">
      <g>
       <use xlink:href="#mcedcceedd8" x="172.913236" y="7.2" style="stroke: #000000; stroke-width: 0.75"/>
      </g>
     </g>
    </g>
    <g id="xtick_23">
     <g id="line2d_45">
      <g>
       <use xlink:href="#m7046003638" x="164.18769" y="187.3832" style="stroke: #000000; stroke-width: 0.75"/>
      </g>
     </g>
     <g id="line2d_46">
      <g>
       <use xlink:href="#mcedcceedd8" x="164.18769" y="7.2" style="stroke: #000000; stroke-width: 0.75"/>
      </g>
     </g>
    </g>
    <g id="xtick_24">
     <g id="line2d_47">
      <g>
       <use xlink:href="#m7046003638" x="156.810347" y="187.3832" style="stroke: #000000; stroke-width: 0.75"/>
      </g>
     </g>
     <g id="line2d_48">
      <g>
       <use xlink:href="#mcedcceedd8" x="156.810347" y="7.2" style="stroke: #000000; stroke-width: 0.75"/>
      </g>
     </g>
    </g>
    <g id="xtick_25">
     <g id="line2d_49">
      <g>
       <use xlink:href="#m7046003638" x="150.419801" y="187.3832" style="stroke: #000000; stroke-width: 0.75"/>
      </g>
     </g>
     <g id="line2d_50">
      <g>
       <use xlink:href="#mcedcceedd8" x="150.419801" y="7.2" style="stroke: #000000; stroke-width: 0.75"/>
      </g>
     </g>
    </g>
    <g id="xtick_26">
     <g id="line2d_51">
      <g>
       <use xlink:href="#m7046003638" x="144.78294" y="187.3832" style="stroke: #000000; stroke-width: 0.75"/>
      </g>
     </g>
     <g id="line2d_52">
      <g>
       <use xlink:href="#mcedcceedd8" x="144.78294" y="7.2" style="stroke: #000000; stroke-width: 0.75"/>
      </g>
     </g>
    </g>
    <g id="xtick_27">
     <g id="line2d_53">
      <g>
       <use xlink:href="#m7046003638" x="106.567956" y="187.3832" style="stroke: #000000; stroke-width: 0.75"/>
      </g>
     </g>
     <g id="line2d_54">
      <g>
       <use xlink:href="#mcedcceedd8" x="106.567956" y="7.2" style="stroke: #000000; stroke-width: 0.75"/>
      </g>
     </g>
    </g>
    <g id="xtick_28">
     <g id="line2d_55">
      <g>
       <use xlink:href="#m7046003638" x="87.163205" y="187.3832" style="stroke: #000000; stroke-width: 0.75"/>
      </g>
     </g>
     <g id="line2d_56">
      <g>
       <use xlink:href="#mcedcceedd8" x="87.163205" y="7.2" style="stroke: #000000; stroke-width: 0.75"/>
      </g>
     </g>
    </g>
    <g id="xtick_29">
     <g id="line2d_57">
      <g>
       <use xlink:href="#m7046003638" x="73.395316" y="187.3832" style="stroke: #000000; stroke-width: 0.75"/>
      </g>
     </g>
     <g id="line2d_58">
      <g>
       <use xlink:href="#mcedcceedd8" x="73.395316" y="7.2" style="stroke: #000000; stroke-width: 0.75"/>
      </g>
     </g>
    </g>
    <g id="text_4">
     <!-- $\theta$ Stepsize -->
     <g transform="translate(207.72145 224.596012) scale(0.17 -0.17)">
      <defs>
       <path id="DejaVuSerif-Italic-3b8" d="M 2888 2600 
Q 3059 3603 2947 4113 
Q 2822 4678 2359 4678 
Q 1900 4678 1553 4113 
Q 1244 3603 1025 2600 
L 2888 2600 
z
M 2822 2266 
L 959 2266 
Q 791 1269 903 759 
Q 1031 191 1488 191 
Q 1947 191 2294 759 
Q 2603 1269 2822 2266 
z
M 2409 4931 
Q 3138 4931 3444 4248 
Q 3750 3566 3529 2433 
Q 3309 1300 2734 615 
Q 2159 -69 1434 -69 
Q 713 -69 406 615 
Q 100 1300 320 2433 
Q 541 3566 1112 4248 
Q 1684 4931 2409 4931 
z
" transform="scale(0.015625)"/>
       <path id="DejaVuSerif-20" transform="scale(0.015625)"/>
       <path id="DejaVuSerif-53" d="M 594 225 
L 594 1288 
L 953 1284 
Q 969 753 1261 498 
Q 1553 244 2150 244 
Q 2706 244 2998 464 
Q 3291 684 3291 1106 
Q 3291 1444 3114 1625 
Q 2938 1806 2369 1978 
L 1753 2163 
Q 1084 2366 811 2669 
Q 538 2972 538 3500 
Q 538 4094 959 4422 
Q 1381 4750 2144 4750 
Q 2469 4750 2856 4679 
Q 3244 4609 3681 4475 
L 3681 3481 
L 3328 3481 
Q 3275 3975 2998 4195 
Q 2722 4416 2156 4416 
Q 1663 4416 1405 4214 
Q 1147 4013 1147 3628 
Q 1147 3294 1340 3103 
Q 1534 2913 2163 2725 
L 2741 2553 
Q 3375 2363 3645 2067 
Q 3916 1772 3916 1275 
Q 3916 597 3481 253 
Q 3047 -91 2188 -91 
Q 1803 -91 1404 -12 
Q 1006 66 594 225 
z
" transform="scale(0.015625)"/>
       <path id="DejaVuSerif-74" d="M 691 2988 
L 184 2988 
L 184 3322 
L 691 3322 
L 691 4353 
L 1269 4353 
L 1269 3322 
L 2350 3322 
L 2350 2988 
L 1269 2988 
L 1269 878 
Q 1269 456 1350 337 
Q 1431 219 1650 219 
Q 1875 219 1978 351 
Q 2081 484 2088 781 
L 2522 781 
Q 2497 328 2275 118 
Q 2053 -91 1600 -91 
Q 1103 -91 897 129 
Q 691 350 691 878 
L 691 2988 
z
" transform="scale(0.015625)"/>
       <path id="DejaVuSerif-65" d="M 3469 1600 
L 991 1600 
L 991 1575 
Q 991 903 1244 561 
Q 1497 219 1991 219 
Q 2369 219 2611 417 
Q 2853 616 2950 1006 
L 3413 1006 
Q 3275 459 2904 184 
Q 2534 -91 1931 -91 
Q 1203 -91 761 389 
Q 319 869 319 1663 
Q 319 2450 753 2931 
Q 1188 3413 1894 3413 
Q 2647 3413 3050 2948 
Q 3453 2484 3469 1600 
z
M 2791 1931 
Q 2772 2513 2545 2808 
Q 2319 3103 1894 3103 
Q 1497 3103 1269 2806 
Q 1041 2509 991 1931 
L 2791 1931 
z
" transform="scale(0.015625)"/>
       <path id="DejaVuSerif-70" d="M 1313 1825 
L 1313 1497 
Q 1313 897 1542 583 
Q 1772 269 2209 269 
Q 2650 269 2876 622 
Q 3103 975 3103 1663 
Q 3103 2353 2876 2703 
Q 2650 3053 2209 3053 
Q 1772 3053 1542 2737 
Q 1313 2422 1313 1825 
z
M 738 2988 
L 184 2988 
L 184 3322 
L 1313 3322 
L 1313 2803 
Q 1481 3116 1742 3264 
Q 2003 3413 2388 3413 
Q 3000 3413 3387 2928 
Q 3775 2444 3775 1663 
Q 3775 881 3387 395 
Q 3000 -91 2388 -91 
Q 2003 -91 1742 57 
Q 1481 206 1313 519 
L 1313 -997 
L 1856 -997 
L 1856 -1331 
L 184 -1331 
L 184 -997 
L 738 -997 
L 738 2988 
z
" transform="scale(0.015625)"/>
       <path id="DejaVuSerif-73" d="M 359 184 
L 359 959 
L 691 959 
Q 703 588 923 403 
Q 1144 219 1575 219 
Q 1963 219 2166 364 
Q 2369 509 2369 788 
Q 2369 1006 2220 1140 
Q 2072 1275 1594 1428 
L 1178 1569 
Q 750 1706 558 1912 
Q 366 2119 366 2438 
Q 366 2894 700 3153 
Q 1034 3413 1625 3413 
Q 1888 3413 2178 3344 
Q 2469 3275 2778 3144 
L 2778 2419 
L 2447 2419 
Q 2434 2741 2221 2922 
Q 2009 3103 1644 3103 
Q 1281 3103 1095 2975 
Q 909 2847 909 2591 
Q 909 2381 1050 2254 
Q 1191 2128 1613 1997 
L 2069 1856 
Q 2541 1709 2748 1489 
Q 2956 1269 2956 922 
Q 2956 450 2595 179 
Q 2234 -91 1600 -91 
Q 1278 -91 972 -22 
Q 666 47 359 184 
z
" transform="scale(0.015625)"/>
       <path id="DejaVuSerif-69" d="M 622 4353 
Q 622 4497 726 4603 
Q 831 4709 978 4709 
Q 1122 4709 1226 4603 
Q 1331 4497 1331 4353 
Q 1331 4206 1228 4103 
Q 1125 4000 978 4000 
Q 831 4000 726 4103 
Q 622 4206 622 4353 
z
M 1356 331 
L 1900 331 
L 1900 0 
L 231 0 
L 231 331 
L 781 331 
L 781 2988 
L 231 2988 
L 231 3322 
L 1356 3322 
L 1356 331 
z
" transform="scale(0.015625)"/>
       <path id="DejaVuSerif-7a" d="M 256 0 
L 256 269 
L 2338 2988 
L 691 2988 
L 691 2413 
L 359 2413 
L 359 3322 
L 3078 3322 
L 3078 3053 
L 997 331 
L 2803 331 
L 2803 934 
L 3138 934 
L 3138 0 
L 256 0 
z
" transform="scale(0.015625)"/>
      </defs>
      <use xlink:href="#DejaVuSerif-Italic-3b8" transform="translate(0 0.953125)"/>
      <use xlink:href="#DejaVuSerif-20" transform="translate(60.205078 0.953125)"/>
      <use xlink:href="#DejaVuSerif-53" transform="translate(91.992188 0.953125)"/>
      <use xlink:href="#DejaVuSerif-74" transform="translate(160.498047 0.953125)"/>
      <use xlink:href="#DejaVuSerif-65" transform="translate(200.683594 0.953125)"/>
      <use xlink:href="#DejaVuSerif-70" transform="translate(259.863281 0.953125)"/>
      <use xlink:href="#DejaVuSerif-73" transform="translate(323.876953 0.953125)"/>
      <use xlink:href="#DejaVuSerif-69" transform="translate(375.195312 0.953125)"/>
      <use xlink:href="#DejaVuSerif-7a" transform="translate(407.177734 0.953125)"/>
      <use xlink:href="#DejaVuSerif-65" transform="translate(459.863281 0.953125)"/>
     </g>
    </g>
   </g>
   <g id="matplotlib.axis_2">
    <g id="ytick_1">
     <g id="line2d_59">
      <defs>
       <path id="m23a418eb7b" d="M 0 0 
L 5 0 
" style="stroke: #000000; stroke-width: 0.75"/>
      </defs>
      <g>
       <use xlink:href="#m23a418eb7b" x="71.932813" y="149.25505" style="stroke: #000000; stroke-width: 0.75"/>
      </g>
     </g>
     <g id="line2d_60">
      <defs>
       <path id="m7884d53daf" d="M 0 0 
L -5 0 
" style="stroke: #000000; stroke-width: 0.75"/>
      </defs>
      <g>
       <use xlink:href="#m7884d53daf" x="431.910088" y="149.25505" style="stroke: #000000; stroke-width: 0.75"/>
      </g>
     </g>
     <g id="text_5">
      <!-- $\mathdefault{10^{-6}}$ -->
      <g transform="translate(28.652813 155.713722) scale(0.17 -0.17)">
       <defs>
        <path id="DejaVuSerif-36" d="M 2094 219 
Q 2534 219 2771 542 
Q 3009 866 3009 1472 
Q 3009 2078 2771 2401 
Q 2534 2725 2094 2725 
Q 1647 2725 1412 2412 
Q 1178 2100 1178 1509 
Q 1178 888 1415 553 
Q 1653 219 2094 219 
z
M 1075 2569 
Q 1288 2803 1556 2918 
Q 1825 3034 2163 3034 
Q 2859 3034 3264 2615 
Q 3669 2197 3669 1472 
Q 3669 763 3233 336 
Q 2797 -91 2069 -91 
Q 1278 -91 853 498 
Q 428 1088 428 2181 
Q 428 3406 931 4078 
Q 1434 4750 2350 4750 
Q 2597 4750 2869 4703 
Q 3141 4656 3425 4563 
L 3425 3794 
L 3072 3794 
Q 3034 4109 2831 4275 
Q 2628 4441 2284 4441 
Q 1678 4441 1381 3981 
Q 1084 3522 1075 2569 
z
" transform="scale(0.015625)"/>
       </defs>
       <use xlink:href="#DejaVuSerif-31" transform="translate(0 0.7125)"/>
       <use xlink:href="#DejaVuSerif-30" transform="translate(63.623047 0.7125)"/>
       <use xlink:href="#DejaVuSerif-2212" transform="translate(128.154453 37.046875) scale(0.7)"/>
       <use xlink:href="#DejaVuSerif-36" transform="translate(186.806797 37.046875) scale(0.7)"/>
      </g>
     </g>
    </g>
    <g id="ytick_2">
     <g id="line2d_61">
      <g>
       <use xlink:href="#m23a418eb7b" x="71.932813" y="105.411142" style="stroke: #000000; stroke-width: 0.75"/>
      </g>
     </g>
     <g id="line2d_62">
      <g>
       <use xlink:href="#m7884d53daf" x="431.910088" y="105.411142" style="stroke: #000000; stroke-width: 0.75"/>
      </g>
     </g>
     <g id="text_6">
      <!-- $\mathdefault{10^{-3}}$ -->
      <g transform="translate(28.652813 111.869814) scale(0.17 -0.17)">
       <use xlink:href="#DejaVuSerif-31" transform="translate(0 0.7125)"/>
       <use xlink:href="#DejaVuSerif-30" transform="translate(63.623047 0.7125)"/>
       <use xlink:href="#DejaVuSerif-2212" transform="translate(128.154453 37.046875) scale(0.7)"/>
       <use xlink:href="#DejaVuSerif-33" transform="translate(186.806797 37.046875) scale(0.7)"/>
      </g>
     </g>
    </g>
    <g id="ytick_3">
     <g id="line2d_63">
      <g>
       <use xlink:href="#m23a418eb7b" x="71.932813" y="61.567233" style="stroke: #000000; stroke-width: 0.75"/>
      </g>
     </g>
     <g id="line2d_64">
      <g>
       <use xlink:href="#m7884d53daf" x="431.910088" y="61.567233" style="stroke: #000000; stroke-width: 0.75"/>
      </g>
     </g>
     <g id="text_7">
      <!-- $\mathdefault{10^{0}}$ -->
      <g transform="translate(38.512813 68.025905) scale(0.17 -0.17)">
       <use xlink:href="#DejaVuSerif-31" transform="translate(0 0.7125)"/>
       <use xlink:href="#DejaVuSerif-30" transform="translate(63.623047 0.7125)"/>
       <use xlink:href="#DejaVuSerif-30" transform="translate(128.154453 37.046875) scale(0.7)"/>
      </g>
     </g>
    </g>
    <g id="ytick_4">
     <g id="line2d_65">
      <g>
       <use xlink:href="#m23a418eb7b" x="71.932813" y="17.723325" style="stroke: #000000; stroke-width: 0.75"/>
      </g>
     </g>
     <g id="line2d_66">
      <g>
       <use xlink:href="#m7884d53daf" x="431.910088" y="17.723325" style="stroke: #000000; stroke-width: 0.75"/>
      </g>
     </g>
     <g id="text_8">
      <!-- $\mathdefault{10^{3}}$ -->
      <g transform="translate(38.512813 24.181996) scale(0.17 -0.17)">
       <use xlink:href="#DejaVuSerif-31" transform="translate(0 0.7125)"/>
       <use xlink:href="#DejaVuSerif-30" transform="translate(63.623047 0.7125)"/>
       <use xlink:href="#DejaVuSerif-33" transform="translate(128.154453 37.046875) scale(0.7)"/>
      </g>
     </g>
    </g>
    <g id="text_9">
     <!-- $\epsilon_{a}$ for $\Gamma_A$ -->
     <g transform="translate(20.117344 133.9266) rotate(-90) scale(0.17 -0.17)">
      <defs>
       <path id="DejaVuSerif-Italic-3b5" d="M 3191 3156 
L 3069 2541 
L 2719 2463 
Q 2734 2741 2538 2884 
Q 2341 3025 2047 3025 
Q 1753 3025 1506 2872 
Q 1256 2716 1216 2503 
Q 1163 2228 1394 2069 
Q 1628 1906 2044 1906 
L 2194 1906 
L 2131 1578 
L 1844 1578 
Q 1425 1578 1113 1378 
Q 797 1175 731 834 
Q 681 572 909 375 
Q 1138 175 1484 175 
Q 1847 175 2142 340 
Q 2438 506 2531 825 
L 2853 747 
L 2728 103 
Q 2375 -9 2025 -66 
Q 1681 -122 1441 -122 
Q 825 -122 447 125 
Q 75 375 166 841 
Q 259 1331 609 1572 
Q 794 1694 1269 1756 
L 828 2003 
Q 597 2134 675 2531 
Q 753 2934 1100 3147 
Q 1447 3356 2059 3356 
Q 2228 3356 2544 3306 
Q 2859 3253 3191 3156 
z
" transform="scale(0.015625)"/>
       <path id="DejaVuSerif-Italic-61" d="M 2325 519 
Q 1909 -91 1238 -91 
Q 688 -91 409 281 
Q 216 544 216 919 
Q 216 1078 250 1256 
Q 463 2359 1231 2928 
Q 1884 3413 2675 3413 
Q 3206 3413 3388 3322 
L 2806 331 
L 3300 331 
L 3238 0 
L 2225 0 
L 2325 519 
z
M 822 938 
Q 822 269 1469 269 
Q 1863 269 2130 583 
Q 2397 897 2516 1497 
L 2806 3003 
L 2806 3003 
Q 2806 3094 2556 3094 
Q 1956 3094 1491 2625 
Q 1028 2153 863 1297 
Q 822 1097 822 938 
z
" transform="scale(0.015625)"/>
       <path id="DejaVuSerif-66" d="M 2753 4078 
L 2450 4078 
Q 2447 4313 2317 4434 
Q 2188 4556 1941 4556 
Q 1619 4556 1487 4379 
Q 1356 4203 1356 3750 
L 1356 3322 
L 2284 3322 
L 2284 2988 
L 1356 2988 
L 1356 331 
L 2094 331 
L 2094 0 
L 231 0 
L 231 331 
L 781 331 
L 781 2988 
L 231 2988 
L 231 3322 
L 781 3322 
L 781 3738 
Q 781 4294 1070 4578 
Q 1359 4863 1919 4863 
Q 2128 4863 2337 4825 
Q 2547 4788 2753 4709 
L 2753 4078 
z
" transform="scale(0.015625)"/>
       <path id="DejaVuSerif-6f" d="M 1925 219 
Q 2388 219 2623 584 
Q 2859 950 2859 1663 
Q 2859 2375 2623 2739 
Q 2388 3103 1925 3103 
Q 1463 3103 1227 2739 
Q 991 2375 991 1663 
Q 991 950 1228 584 
Q 1466 219 1925 219 
z
M 1925 -91 
Q 1200 -91 759 389 
Q 319 869 319 1663 
Q 319 2456 758 2934 
Q 1197 3413 1925 3413 
Q 2653 3413 3092 2934 
Q 3531 2456 3531 1663 
Q 3531 869 3092 389 
Q 2653 -91 1925 -91 
z
" transform="scale(0.015625)"/>
       <path id="DejaVuSerif-72" d="M 3059 3328 
L 3059 2497 
L 2728 2497 
Q 2713 2744 2591 2866 
Q 2469 2988 2234 2988 
Q 1809 2988 1582 2694 
Q 1356 2400 1356 1850 
L 1356 331 
L 2022 331 
L 2022 0 
L 263 0 
L 263 331 
L 781 331 
L 781 2994 
L 231 2994 
L 231 3322 
L 1356 3322 
L 1356 2731 
Q 1525 3078 1790 3245 
Q 2056 3413 2438 3413 
Q 2578 3413 2733 3391 
Q 2888 3369 3059 3328 
z
" transform="scale(0.015625)"/>
       <path id="DejaVuSerif-393" d="M 1581 331 
L 2328 331 
L 2328 0 
L 353 0 
L 353 331 
L 947 331 
L 947 4331 
L 353 4331 
L 353 4666 
L 4172 4666 
L 4172 3625 
L 3788 3625 
L 3788 4281 
L 1581 4281 
L 1581 331 
z
" transform="scale(0.015625)"/>
       <path id="DejaVuSerif-Italic-41" d="M 1159 1691 
L 2872 1691 
L 2447 3909 
L 1159 1691 
z
M -488 0 
L -425 331 
L -16 331 
L 2491 4666 
L 3016 4666 
L 3841 331 
L 4297 331 
L 4234 0 
L 2538 0 
L 2600 331 
L 3119 331 
L 2928 1356 
L 966 1356 
L 375 331 
L 888 331 
L 825 0 
L -488 0 
z
" transform="scale(0.015625)"/>
      </defs>
      <use xlink:href="#DejaVuSerif-Italic-3b5" transform="translate(0 0.015625)"/>
      <use xlink:href="#DejaVuSerif-Italic-61" transform="translate(53.662109 -15.55625) scale(0.7)"/>
      <use xlink:href="#DejaVuSerif-20" transform="translate(97.99082 0.015625)"/>
      <use xlink:href="#DejaVuSerif-66" transform="translate(129.77793 0.015625)"/>
      <use xlink:href="#DejaVuSerif-6f" transform="translate(166.789648 0.015625)"/>
      <use xlink:href="#DejaVuSerif-72" transform="translate(226.994727 0.015625)"/>
      <use xlink:href="#DejaVuSerif-20" transform="translate(274.797461 0.015625)"/>
      <use xlink:href="#DejaVuSerif-393" transform="translate(306.58457 0.015625)"/>
      <use xlink:href="#DejaVuSerif-Italic-41" transform="translate(376.877695 -15.55625) scale(0.7)"/>
     </g>
    </g>
   </g>
   <g id="line2d_67">
    <path d="M 88.295416 161.569718 
L 91.634723 179.193055 
L 94.97403 175.197098 
L 98.313336 159.776882 
L 101.652643 157.429196 
L 104.99195 164.789236 
L 108.331257 169.299555 
L 111.670564 173.314651 
L 115.009871 158.866702 
L 118.349177 158.544588 
L 121.688484 167.907252 
L 125.027791 162.582685 
L 128.367098 159.809532 
L 131.706405 159.416064 
L 135.045712 167.799955 
L 138.385018 175.243568 
L 141.724325 160.163586 
L 145.063632 175.40842 
L 148.402939 164.789152 
L 151.742246 160.092921 
L 155.081552 175.822984 
L 158.420859 158.093322 
L 161.760166 167.756704 
L 165.099473 163.009663 
L 168.43878 163.52745 
L 171.778087 157.650602 
L 175.117393 163.42952 
L 178.4567 161.168367 
L 181.796007 162.695839 
L 185.135314 160.093343 
L 188.474621 156.14685 
L 191.813928 163.338483 
L 195.153234 159.694362 
L 198.492541 176.108265 
L 201.831848 160.505972 
L 205.171155 151.138039 
L 208.510462 161.492735 
L 211.849768 165.219659 
L 215.189075 154.395442 
L 218.528382 163.829567 
L 221.867689 151.355582 
L 225.206996 156.25588 
L 228.546303 152.074292 
L 231.885609 160.673242 
L 235.224916 156.428367 
L 238.564223 164.320326 
L 241.90353 164.135384 
L 245.242837 152.6984 
L 248.582144 159.490678 
L 251.92145 154.084723 
L 255.260757 151.862259 
L 258.600064 154.720155 
L 261.939371 159.85677 
L 265.278678 152.222463 
L 268.617985 154.98297 
L 271.957291 151.814842 
L 275.296598 160.426049 
L 278.635905 150.592366 
L 281.975212 152.578127 
L 285.314519 169.613605 
L 288.653825 144.010046 
L 291.993132 155.655639 
L 295.332439 146.717706 
L 298.671746 152.771088 
L 302.011053 151.771927 
L 305.35036 149.619102 
L 308.689666 149.08179 
L 312.028973 148.636194 
L 315.36828 150.465558 
L 318.707587 151.999029 
L 322.046894 141.471847 
L 325.386201 148.567319 
L 328.725507 143.812817 
L 332.064814 148.01271 
L 335.404121 147.409138 
L 338.743428 153.415706 
L 342.082735 146.640542 
L 345.422042 156.608939 
L 348.761348 151.33447 
L 352.100655 151.599783 
L 355.439962 142.301528 
L 358.779269 150.090251 
L 362.118576 146.594014 
L 365.457882 147.90845 
L 368.797189 137.115211 
L 372.136496 134.675866 
L 375.475803 132.710303 
L 378.81511 132.110822 
L 382.154417 130.882604 
L 385.493723 127.112063 
L 388.83303 126.096103 
L 392.172337 122.824388 
L 395.511644 125.642152 
L 398.850951 119.386631 
L 402.190258 119.732044 
L 405.529564 115.225332 
L 408.868871 118.273289 
L 412.208178 112.890768 
L 415.547485 110.874952 
" clip-path="url(#p612f8d1963)" style="fill: none; stroke: #000000; stroke-width: 1.5; stroke-linecap: square"/>
   </g>
   <g id="line2d_68">
    <path d="M 88.295416 119.871724 
L 91.634723 122.592837 
L 94.97403 122.911434 
L 98.313336 122.401482 
L 101.652643 126.069782 
L 104.99195 125.660199 
L 108.331257 121.865941 
L 111.670564 124.376255 
L 115.009871 124.536518 
L 118.349177 124.068606 
L 121.688484 120.715939 
L 125.027791 123.952554 
L 128.367098 120.287646 
L 131.706405 121.273838 
L 135.045712 120.523572 
L 138.385018 120.523581 
L 141.724325 120.511689 
L 145.063632 119.222975 
L 148.402939 118.98049 
L 151.742246 117.952851 
L 155.081552 117.972137 
L 158.420859 117.998664 
L 161.760166 117.033807 
L 165.099473 117.057623 
L 168.43878 117.089435 
L 171.778087 115.51524 
L 175.117393 115.550531 
L 178.4567 115.5894 
L 181.796007 114.951747 
L 185.135314 114.38193 
L 188.474621 113.872257 
L 191.813928 113.409843 
L 195.153234 113.452293 
L 198.492541 113.030962 
L 201.831848 112.236615 
L 205.171155 111.904784 
L 208.510462 111.964321 
L 211.849768 111.319258 
L 215.189075 110.746667 
L 218.528382 110.523525 
L 221.867689 110.046913 
L 225.206996 109.863769 
L 228.546303 109.458836 
L 231.885609 109.094697 
L 235.224916 108.760754 
L 238.564223 108.466875 
L 241.90353 108.020239 
L 245.242837 107.624946 
L 248.582144 107.432806 
L 251.92145 107.112095 
L 255.260757 106.83453 
L 258.600064 106.466277 
L 261.939371 106.271746 
L 265.278678 105.881587 
L 268.617985 105.77089 
L 271.957291 105.498696 
L 275.296598 105.289348 
L 278.635905 105.118865 
L 281.975212 104.967639 
L 285.314519 104.897826 
L 288.653825 104.922882 
L 291.993132 104.933628 
L 295.332439 105.167007 
L 298.671746 105.414122 
L 302.011053 105.883363 
L 305.35036 106.881356 
L 308.689666 108.511073 
L 312.028973 110.485221 
L 315.36828 117.944289 
L 318.707587 113.264799 
L 322.046894 107.674447 
L 325.386201 103.841854 
L 328.725507 101.219513 
L 332.064814 98.440495 
L 335.404121 97.280931 
L 338.743428 95.397574 
L 342.082735 94.56131 
L 345.422042 93.235514 
L 348.761348 93.700254 
L 352.100655 92.928222 
L 355.439962 92.981164 
L 358.779269 93.47642 
L 362.118576 95.15137 
L 365.457882 96.208295 
L 368.797189 96.521256 
L 372.136496 97.414185 
L 375.475803 98.897672 
L 378.81511 100.714363 
L 382.154417 103.728766 
L 385.493723 101.104315 
L 388.83303 105.811043 
L 392.172337 103.202288 
L 395.511644 114.737178 
L 398.850951 106.199666 
L 402.190258 123.251694 
L 405.529564 102.274892 
L 408.868871 102.982517 
L 412.208178 103.268746 
L 415.547485 117.92871 
" clip-path="url(#p612f8d1963)" style="fill: none; stroke-dasharray: 5.55,2.4; stroke-dashoffset: 0; stroke: #808080; stroke-width: 1.5"/>
   </g>
   <g id="line2d_69">
    <path d="M 88.295416 85.260184 
L 91.634723 86.124747 
L 94.97403 86.993827 
L 98.313336 88.872815 
L 101.652643 90.454968 
L 104.99195 90.34645 
L 108.331257 86.194759 
L 111.670564 90.096205 
L 115.009871 90.477987 
L 118.349177 90.736251 
L 121.688484 86.838801 
L 125.027791 90.814963 
L 128.367098 87.15857 
L 131.706405 88.458661 
L 135.045712 88.015554 
L 138.385018 88.280356 
L 141.724325 88.531007 
L 145.063632 87.493202 
L 148.402939 87.555991 
L 151.742246 86.809534 
L 155.081552 87.116509 
L 158.420859 87.406112 
L 161.760166 86.725295 
L 165.099473 87.019845 
L 168.43878 87.304303 
L 171.778087 86.010816 
L 175.117393 86.330924 
L 178.4567 86.632958 
L 181.796007 86.264634 
L 185.135314 85.974683 
L 188.474621 85.750625 
L 191.813928 85.582401 
L 195.153234 85.922057 
L 198.492541 85.792324 
L 201.831848 85.312329 
L 205.171155 85.325175 
L 208.510462 85.730548 
L 211.849768 85.454511 
L 215.189075 85.303912 
L 218.528382 85.546301 
L 221.867689 85.594504 
L 225.206996 86.017818 
L 228.546303 86.318082 
L 231.885609 86.813487 
L 235.224916 87.557731 
L 238.564223 88.664816 
L 241.90353 90.193938 
L 245.242837 93.003007 
L 248.582144 100.3537 
L 251.92145 98.091306 
L 255.260757 91.321137 
L 258.600064 87.811409 
L 261.939371 85.59052 
L 265.278678 83.818484 
L 268.617985 82.728676 
L 271.957291 81.83673 
L 275.296598 81.305341 
L 278.635905 81.117082 
L 281.975212 81.15391 
L 285.314519 81.484644 
L 288.653825 82.10793 
L 291.993132 82.912938 
L 295.332439 83.959843 
L 298.671746 85.19913 
L 302.011053 86.646649 
L 305.35036 88.252695 
L 308.689666 90.120363 
L 312.028973 92.510207 
L 315.36828 94.962788 
L 318.707587 97.780485 
L 322.046894 101.794794 
L 325.386201 106.997841 
L 328.725507 115.781596 
L 332.064814 131.843604 
L 335.404121 111.007149 
L 338.743428 110.737301 
L 342.082735 109.759848 
L 345.422042 111.034956 
L 348.761348 108.826362 
L 352.100655 112.369799 
L 355.439962 112.621806 
L 358.779269 110.611008 
L 362.118576 111.898095 
L 365.457882 111.816277 
L 368.797189 113.831333 
L 372.136496 112.241992 
L 375.475803 116.599043 
L 378.81511 112.889802 
L 382.154417 114.635338 
L 385.493723 115.057392 
L 388.83303 114.075594 
L 392.172337 121.32069 
L 395.511644 113.019675 
L 398.850951 117.913787 
L 402.190258 116.179922 
L 405.529564 130.934216 
L 408.868871 113.652938 
L 412.208178 120.685983 
L 415.547485 116.952187 
" clip-path="url(#p612f8d1963)" style="fill: none; stroke-dasharray: 4.5,1.5,1.5,1.5; stroke-dashoffset: 0; stroke: #000000; stroke-width: 1.5"/>
   </g>
   <g id="line2d_70">
    <path d="M 88.295416 67.881444 
L 91.634723 68.43003 
L 94.97403 69.350346 
L 98.313336 71.223592 
L 101.652643 70.071388 
L 104.99195 70.230226 
L 108.331257 64.636651 
L 111.670564 71.960974 
L 115.009871 72.218712 
L 118.349177 74.224462 
L 121.688484 67.569047 
L 125.027791 72.513953 
L 128.367098 68.444939 
L 131.706405 70.00181 
L 135.045712 69.596081 
L 138.385018 69.989646 
L 141.724325 70.4024 
L 145.063632 69.537176 
L 148.402939 69.975649 
L 151.742246 69.550395 
L 155.081552 70.323772 
L 158.420859 71.159095 
L 161.760166 71.169666 
L 165.099473 72.348837 
L 168.43878 73.686521 
L 171.778087 73.864686 
L 175.117393 76.334337 
L 178.4567 79.68408 
L 181.796007 85.02189 
L 185.135314 90.512349 
L 188.474621 81.310414 
L 191.813928 78.10876 
L 195.153234 76.99118 
L 198.492541 76.213682 
L 201.831848 75.635163 
L 205.171155 76.062459 
L 208.510462 77.357254 
L 211.849768 78.499934 
L 215.189075 80.594286 
L 218.528382 84.5329 
L 221.867689 93.734432 
L 225.206996 89.889036 
L 228.546303 84.77264 
L 231.885609 82.571341 
L 235.224916 81.45461 
L 238.564223 80.923897 
L 241.90353 80.581072 
L 245.242837 80.514674 
L 248.582144 80.778867 
L 251.92145 81.007787 
L 255.260757 81.315915 
L 258.600064 81.567623 
L 261.939371 81.991261 
L 265.278678 82.233138 
L 268.617985 82.726337 
L 271.957291 83.04632 
L 275.296598 83.4074 
L 278.635905 83.806083 
L 281.975212 84.156058 
L 285.314519 84.546604 
L 288.653825 84.96858 
L 291.993132 85.351496 
L 295.332439 85.771315 
L 298.671746 86.161253 
L 302.011053 86.537777 
L 305.35036 86.949687 
L 308.689666 87.346647 
L 312.028973 87.779745 
L 315.36828 88.1961 
L 318.707587 88.61012 
L 322.046894 89.020538 
L 325.386201 89.430966 
L 328.725507 89.847449 
L 332.064814 90.290791 
L 335.404121 90.687142 
L 338.743428 91.13828 
L 342.082735 91.529295 
L 345.422042 91.979867 
L 348.761348 92.394356 
L 352.100655 92.826044 
L 355.439962 93.25028 
L 358.779269 93.680128 
L 362.118576 94.118978 
L 365.457882 94.548799 
L 368.797189 94.973145 
L 372.136496 95.412983 
L 375.475803 95.838856 
L 378.81511 96.286858 
L 382.154417 96.711339 
L 385.493723 97.152383 
L 388.83303 97.581702 
L 392.172337 98.016707 
L 395.511644 98.462048 
L 398.850951 98.887326 
L 402.190258 99.342785 
L 405.529564 99.766051 
L 408.868871 100.21181 
L 412.208178 100.645857 
L 415.547485 101.083497 
" clip-path="url(#p612f8d1963)" style="fill: none; stroke: #808080; stroke-width: 1.5; stroke-linecap: square"/>
   </g>
   <g id="line2d_71">
    <path d="M 88.295416 42.802949 
L 91.634723 50.237465 
L 94.97403 50.410882 
L 98.313336 47.858916 
L 101.652643 55.298193 
L 104.99195 54.398833 
L 108.331257 53.159641 
L 111.670564 54.457403 
L 115.009871 55.664997 
L 118.349177 54.476467 
L 121.688484 57.284737 
L 125.027791 59.424283 
L 128.367098 61.306901 
L 131.706405 68.110056 
L 135.045712 76.114106 
L 138.385018 72.454836 
L 141.724325 68.289626 
L 145.063632 65.395785 
L 148.402939 64.835838 
L 151.742246 63.754642 
L 155.081552 64.128516 
L 158.420859 64.681548 
L 161.760166 64.351703 
L 165.099473 65.092516 
L 168.43878 65.787013 
L 171.778087 65.010887 
L 175.117393 65.846236 
L 178.4567 66.624902 
L 181.796007 66.75151 
L 185.135314 66.95719 
L 188.474621 67.231198 
L 191.813928 67.581008 
L 195.153234 68.425786 
L 198.492541 68.74895 
L 201.831848 68.734844 
L 205.171155 69.209921 
L 208.510462 70.061869 
L 211.849768 70.1618 
L 215.189075 70.386729 
L 218.528382 70.966074 
L 221.867689 71.264596 
L 225.206996 71.849397 
L 228.546303 72.241371 
L 231.885609 72.630856 
L 235.224916 73.063977 
L 238.564223 73.522154 
L 241.90353 73.834451 
L 245.242837 74.19268 
L 248.582144 74.750956 
L 251.92145 75.18539 
L 255.260757 75.610699 
L 258.600064 75.972283 
L 261.939371 76.482905 
L 265.278678 76.75182 
L 268.617985 77.375682 
L 271.957291 77.717973 
L 275.296598 78.149359 
L 278.635905 78.573092 
L 281.975212 78.986425 
L 285.314519 79.419578 
L 288.653825 79.87077 
L 291.993132 80.334708 
L 295.332439 80.781733 
L 298.671746 81.19911 
L 302.011053 81.589725 
L 305.35036 82.060109 
L 308.689666 82.484755 
L 312.028973 82.948328 
L 315.36828 83.400927 
L 318.707587 83.802238 
L 322.046894 84.242244 
L 325.386201 84.704689 
L 328.725507 85.113231 
L 332.064814 85.582458 
L 335.404121 85.996111 
L 338.743428 86.501707 
L 342.082735 86.81966 
L 345.422042 87.32296 
L 348.761348 87.779987 
L 352.100655 88.283758 
L 355.439962 88.619635 
L 358.779269 89.069218 
L 362.118576 89.493819 
L 365.457882 90.023515 
L 368.797189 90.378422 
L 372.136496 90.806101 
L 375.475803 91.348798 
L 378.81511 91.759802 
L 382.154417 92.165385 
L 385.493723 92.662104 
L 388.83303 93.027254 
L 392.172337 93.471034 
L 395.511644 93.915128 
L 398.850951 94.445924 
L 402.190258 94.849393 
L 405.529564 95.280075 
L 408.868871 95.690451 
L 412.208178 96.288063 
L 415.547485 96.526031 
" clip-path="url(#p612f8d1963)" style="fill: none; stroke-dasharray: 5.55,2.4; stroke-dashoffset: 0; stroke: #000000; stroke-width: 1.5"/>
   </g>
   <g id="line2d_72">
    <path d="M 88.295416 45.19842 
L 91.634723 42.395612 
L 94.97403 40.842884 
L 98.313336 41.638351 
L 101.652643 54.703229 
L 104.99195 46.387078 
L 108.331257 40.20453 
L 111.670564 39.859336 
L 115.009871 42.941235 
L 118.349177 44.245313 
L 121.688484 74.895854 
L 125.027791 39.84678 
L 128.367098 41.790741 
L 131.706405 46.40747 
L 135.045712 46.12801 
L 138.385018 44.054819 
L 141.724325 38.798368 
L 145.063632 49.799645 
L 148.402939 49.672739 
L 151.742246 41.039507 
L 155.081552 48.228146 
L 158.420859 40.303522 
L 161.760166 44.468302 
L 165.099473 45.920709 
L 168.43878 33.935841 
L 171.778087 37.477694 
L 175.117393 50.850622 
L 178.4567 46.271658 
L 181.796007 40.796729 
L 185.135314 35.999429 
L 188.474621 43.941602 
L 191.813928 41.047489 
L 195.153234 38.916775 
L 198.492541 29.992508 
L 201.831848 34.34666 
L 205.171155 32.665056 
L 208.510462 38.412274 
L 211.849768 38.268606 
L 215.189075 40.814143 
L 218.528382 44.629266 
L 221.867689 39.561378 
L 225.206996 37.370045 
L 228.546303 28.55944 
L 231.885609 34.182271 
L 235.224916 28.588213 
L 238.564223 37.81402 
L 241.90353 35.11521 
L 245.242837 19.055634 
L 248.582144 31.74232 
L 251.92145 30.727107 
L 255.260757 27.596905 
L 258.600064 21.19354 
L 261.939371 34.183333 
L 265.278678 43.504184 
L 268.617985 29.233972 
L 271.957291 21.84418 
L 275.296598 31.675371 
L 278.635905 21.784531 
L 281.975212 28.973629 
L 285.314519 28.592286 
L 288.653825 40.443292 
L 291.993132 36.01434 
L 295.332439 44.046759 
L 298.671746 31.079016 
L 302.011053 37.964867 
L 305.35036 46.784661 
L 308.689666 30.142576 
L 312.028973 39.781326 
L 315.36828 27.120063 
L 318.707587 42.859656 
L 322.046894 29.002053 
L 325.386201 19.859589 
L 328.725507 31.904608 
L 332.064814 25.112507 
L 335.404121 27.852703 
L 338.743428 33.858636 
L 342.082735 32.136984 
L 345.422042 41.83788 
L 348.761348 29.07087 
L 352.100655 27.497227 
L 355.439962 35.503564 
L 358.779269 23.474577 
L 362.118576 37.173375 
L 365.457882 43.681138 
L 368.797189 36.016579 
L 372.136496 16.550256 
L 375.475803 37.534735 
L 378.81511 35.07949 
L 382.154417 33.34877 
L 385.493723 31.731688 
L 388.83303 19.774263 
L 392.172337 37.003785 
L 395.511644 29.858736 
L 398.850951 24.531659 
L 402.190258 29.234193 
L 405.529564 37.305293 
L 408.868871 30.638667 
L 412.208178 15.390145 
L 415.547485 33.98528 
" clip-path="url(#p612f8d1963)" style="fill: none; stroke-dasharray: 4.5,1.5,1.5,1.5; stroke-dashoffset: 0; stroke: #808080; stroke-width: 1.5"/>
   </g>
   <g id="patch_3">
    <path d="M 71.932813 187.3832 
L 71.932813 7.2 
" style="fill: none; stroke: #000000; stroke-width: 0.8; stroke-linejoin: miter; stroke-linecap: square"/>
   </g>
   <g id="patch_4">
    <path d="M 431.910088 187.3832 
L 431.910088 7.2 
" style="fill: none; stroke: #000000; stroke-width: 0.8; stroke-linejoin: miter; stroke-linecap: square"/>
   </g>
   <g id="patch_5">
    <path d="M 71.932813 187.3832 
L 431.910088 187.3832 
" style="fill: none; stroke: #000000; stroke-width: 0.8; stroke-linejoin: miter; stroke-linecap: square"/>
   </g>
   <g id="patch_6">
    <path d="M 71.932813 7.2 
L 431.910088 7.2 
" style="fill: none; stroke: #000000; stroke-width: 0.8; stroke-linejoin: miter; stroke-linecap: square"/>
   </g>
   <g id="legend_1">
    <g id="line2d_73">
     <path d="M 89.157075 236.678024 
L 106.157075 236.678024 
L 123.157075 236.678024 
" style="fill: none; stroke: #000000; stroke-width: 1.5; stroke-linecap: square"/>
    </g>
    <g id="text_10">
     <!-- D = 0.0001 -->
     <g transform="translate(136.757075 242.628024) scale(0.17 -0.17)">
      <defs>
       <path id="DejaVuSerif-44" d="M 1581 331 
L 2163 331 
Q 3072 331 3558 850 
Q 4044 1369 4044 2338 
Q 4044 3306 3559 3818 
Q 3075 4331 2163 4331 
L 1581 4331 
L 1581 331 
z
M 353 0 
L 353 331 
L 947 331 
L 947 4331 
L 353 4331 
L 353 4666 
L 2209 4666 
Q 3416 4666 4089 4050 
Q 4763 3434 4763 2338 
Q 4763 1238 4088 619 
Q 3413 0 2209 0 
L 353 0 
z
" transform="scale(0.015625)"/>
       <path id="DejaVuSerif-3d" d="M 678 2894 
L 4684 2894 
L 4684 2394 
L 678 2394 
L 678 2894 
z
M 678 1619 
L 4684 1619 
L 4684 1119 
L 678 1119 
L 678 1619 
z
" transform="scale(0.015625)"/>
       <path id="DejaVuSerif-2e" d="M 603 325 
Q 603 500 722 622 
Q 841 744 1019 744 
Q 1191 744 1312 622 
Q 1434 500 1434 325 
Q 1434 153 1312 31 
Q 1191 -91 1019 -91 
Q 841 -91 722 29 
Q 603 150 603 325 
z
" transform="scale(0.015625)"/>
      </defs>
      <use xlink:href="#DejaVuSerif-44"/>
      <use xlink:href="#DejaVuSerif-20" x="80.175781"/>
      <use xlink:href="#DejaVuSerif-3d" x="111.962891"/>
      <use xlink:href="#DejaVuSerif-20" x="195.751953"/>
      <use xlink:href="#DejaVuSerif-30" x="227.539062"/>
      <use xlink:href="#DejaVuSerif-2e" x="291.162109"/>
      <use xlink:href="#DejaVuSerif-30" x="322.949219"/>
      <use xlink:href="#DejaVuSerif-30" x="386.572266"/>
      <use xlink:href="#DejaVuSerif-30" x="450.195312"/>
      <use xlink:href="#DejaVuSerif-31" x="513.818359"/>
     </g>
    </g>
    <g id="line2d_74">
     <path d="M 89.157075 261.630836 
L 106.157075 261.630836 
L 123.157075 261.630836 
" style="fill: none; stroke-dasharray: 5.55,2.4; stroke-dashoffset: 0; stroke: #808080; stroke-width: 1.5"/>
    </g>
    <g id="text_11">
     <!-- D = 0.0006 -->
     <g transform="translate(136.757075 267.580836) scale(0.17 -0.17)">
      <use xlink:href="#DejaVuSerif-44"/>
      <use xlink:href="#DejaVuSerif-20" x="80.175781"/>
      <use xlink:href="#DejaVuSerif-3d" x="111.962891"/>
      <use xlink:href="#DejaVuSerif-20" x="195.751953"/>
      <use xlink:href="#DejaVuSerif-30" x="227.539062"/>
      <use xlink:href="#DejaVuSerif-2e" x="291.162109"/>
      <use xlink:href="#DejaVuSerif-30" x="322.949219"/>
      <use xlink:href="#DejaVuSerif-30" x="386.572266"/>
      <use xlink:href="#DejaVuSerif-30" x="450.195312"/>
      <use xlink:href="#DejaVuSerif-36" x="513.818359"/>
     </g>
    </g>
    <g id="line2d_75">
     <path d="M 89.157075 286.583649 
L 106.157075 286.583649 
L 123.157075 286.583649 
" style="fill: none; stroke-dasharray: 4.5,1.5,1.5,1.5; stroke-dashoffset: 0; stroke: #000000; stroke-width: 1.5"/>
    </g>
    <g id="text_12">
     <!-- D = 0.004 -->
     <g transform="translate(136.757075 292.533649) scale(0.17 -0.17)">
      <defs>
       <path id="DejaVuSerif-34" d="M 2234 1581 
L 2234 4063 
L 641 1581 
L 2234 1581 
z
M 3609 0 
L 1484 0 
L 1484 331 
L 2234 331 
L 2234 1247 
L 197 1247 
L 197 1588 
L 2241 4750 
L 2859 4750 
L 2859 1581 
L 3750 1581 
L 3750 1247 
L 2859 1247 
L 2859 331 
L 3609 331 
L 3609 0 
z
" transform="scale(0.015625)"/>
      </defs>
      <use xlink:href="#DejaVuSerif-44"/>
      <use xlink:href="#DejaVuSerif-20" x="80.175781"/>
      <use xlink:href="#DejaVuSerif-3d" x="111.962891"/>
      <use xlink:href="#DejaVuSerif-20" x="195.751953"/>
      <use xlink:href="#DejaVuSerif-30" x="227.539062"/>
      <use xlink:href="#DejaVuSerif-2e" x="291.162109"/>
      <use xlink:href="#DejaVuSerif-30" x="322.949219"/>
      <use xlink:href="#DejaVuSerif-30" x="386.572266"/>
      <use xlink:href="#DejaVuSerif-34" x="450.195312"/>
     </g>
    </g>
    <g id="line2d_76">
     <path d="M 268.92145 236.678024 
L 285.92145 236.678024 
L 302.92145 236.678024 
" style="fill: none; stroke: #808080; stroke-width: 1.5; stroke-linecap: square"/>
    </g>
    <g id="text_13">
     <!-- D = 0.0251 -->
     <g transform="translate(316.52145 242.628024) scale(0.17 -0.17)">
      <defs>
       <path id="DejaVuSerif-35" d="M 3219 4666 
L 3219 4153 
L 1081 4153 
L 1081 2816 
Q 1244 2928 1461 2984 
Q 1678 3041 1947 3041 
Q 2703 3041 3140 2622 
Q 3578 2203 3578 1478 
Q 3578 738 3136 323 
Q 2694 -91 1894 -91 
Q 1572 -91 1234 -12 
Q 897 66 544 225 
L 544 1131 
L 897 1131 
Q 925 688 1179 453 
Q 1434 219 1894 219 
Q 2388 219 2653 544 
Q 2919 869 2919 1478 
Q 2919 2084 2655 2407 
Q 2391 2731 1894 2731 
Q 1613 2731 1398 2631 
Q 1184 2531 1019 2322 
L 750 2322 
L 750 4666 
L 3219 4666 
z
" transform="scale(0.015625)"/>
      </defs>
      <use xlink:href="#DejaVuSerif-44"/>
      <use xlink:href="#DejaVuSerif-20" x="80.175781"/>
      <use xlink:href="#DejaVuSerif-3d" x="111.962891"/>
      <use xlink:href="#DejaVuSerif-20" x="195.751953"/>
      <use xlink:href="#DejaVuSerif-30" x="227.539062"/>
      <use xlink:href="#DejaVuSerif-2e" x="291.162109"/>
      <use xlink:href="#DejaVuSerif-30" x="322.949219"/>
      <use xlink:href="#DejaVuSerif-32" x="386.572266"/>
      <use xlink:href="#DejaVuSerif-35" x="450.195312"/>
      <use xlink:href="#DejaVuSerif-31" x="513.818359"/>
     </g>
    </g>
    <g id="line2d_77">
     <path d="M 268.92145 261.630836 
L 285.92145 261.630836 
L 302.92145 261.630836 
" style="fill: none; stroke-dasharray: 5.55,2.4; stroke-dashoffset: 0; stroke: #000000; stroke-width: 1.5"/>
    </g>
    <g id="text_14">
     <!-- D = 0.1585 -->
     <g transform="translate(316.52145 267.580836) scale(0.17 -0.17)">
      <defs>
       <path id="DejaVuSerif-38" d="M 2981 1275 
Q 2981 1775 2732 2051 
Q 2484 2328 2034 2328 
Q 1584 2328 1336 2051 
Q 1088 1775 1088 1275 
Q 1088 772 1336 495 
Q 1584 219 2034 219 
Q 2484 219 2732 495 
Q 2981 772 2981 1275 
z
M 2853 3541 
Q 2853 3966 2637 4203 
Q 2422 4441 2034 4441 
Q 1650 4441 1433 4203 
Q 1216 3966 1216 3541 
Q 1216 3113 1433 2875 
Q 1650 2638 2034 2638 
Q 2422 2638 2637 2875 
Q 2853 3113 2853 3541 
z
M 2516 2484 
Q 3047 2413 3344 2092 
Q 3641 1772 3641 1275 
Q 3641 619 3225 264 
Q 2809 -91 2034 -91 
Q 1263 -91 845 264 
Q 428 619 428 1275 
Q 428 1772 725 2092 
Q 1022 2413 1556 2484 
Q 1084 2569 832 2842 
Q 581 3116 581 3541 
Q 581 4103 968 4426 
Q 1356 4750 2034 4750 
Q 2713 4750 3100 4426 
Q 3488 4103 3488 3541 
Q 3488 3116 3236 2842 
Q 2984 2569 2516 2484 
z
" transform="scale(0.015625)"/>
      </defs>
      <use xlink:href="#DejaVuSerif-44"/>
      <use xlink:href="#DejaVuSerif-20" x="80.175781"/>
      <use xlink:href="#DejaVuSerif-3d" x="111.962891"/>
      <use xlink:href="#DejaVuSerif-20" x="195.751953"/>
      <use xlink:href="#DejaVuSerif-30" x="227.539062"/>
      <use xlink:href="#DejaVuSerif-2e" x="291.162109"/>
      <use xlink:href="#DejaVuSerif-31" x="322.949219"/>
      <use xlink:href="#DejaVuSerif-35" x="386.572266"/>
      <use xlink:href="#DejaVuSerif-38" x="450.195312"/>
      <use xlink:href="#DejaVuSerif-35" x="513.818359"/>
     </g>
    </g>
    <g id="line2d_78">
     <path d="M 268.92145 286.583649 
L 285.92145 286.583649 
L 302.92145 286.583649 
" style="fill: none; stroke-dasharray: 4.5,1.5,1.5,1.5; stroke-dashoffset: 0; stroke: #808080; stroke-width: 1.5"/>
    </g>
    <g id="text_15">
     <!-- D = 1.0 -->
     <g transform="translate(316.52145 292.533649) scale(0.17 -0.17)">
      <use xlink:href="#DejaVuSerif-44"/>
      <use xlink:href="#DejaVuSerif-20" x="80.175781"/>
      <use xlink:href="#DejaVuSerif-3d" x="111.962891"/>
      <use xlink:href="#DejaVuSerif-20" x="195.751953"/>
      <use xlink:href="#DejaVuSerif-31" x="227.539062"/>
      <use xlink:href="#DejaVuSerif-2e" x="291.162109"/>
      <use xlink:href="#DejaVuSerif-30" x="322.949219"/>
     </g>
    </g>
   </g>
  </g>
 </g>
 <defs>
  <clipPath id="p612f8d1963">
   <rect x="71.932813" y="7.2" width="359.977276" height="180.1832"/>
  </clipPath>
 </defs>
</svg>
