<?xml version="1.0" encoding="utf-8" standalone="no"?>
<!DOCTYPE svg PUBLIC "-//W3C//DTD SVG 1.1//EN"
  "http://www.w3.org/Graphics/SVG/1.1/DTD/svg11.dtd">
<svg xmlns:xlink="http://www.w3.org/1999/xlink" width="482.527656pt" height="390.467472pt" viewBox="0 0 482.527656 390.467472" xmlns="http://www.w3.org/2000/svg" version="1.1">
 <metadata>
  <rdf:RDF xmlns:dc="http://purl.org/dc/elements/1.1/" xmlns:cc="http://creativecommons.org/ns#" xmlns:rdf="http://www.w3.org/1999/02/22-rdf-syntax-ns#">
   <cc:Work>
    <dc:type rdf:resource="http://purl.org/dc/dcmitype/StillImage"/>
    <dc:date>2025-05-15T09:02:40.618029</dc:date>
    <dc:format>image/svg+xml</dc:format>
    <dc:creator>
     <cc:Agent>
      <dc:title>Matplotlib v3.9.2, https://matplotlib.org/</dc:title>
     </cc:Agent>
    </dc:creator>
   </cc:Work>
  </rdf:RDF>
 </metadata>
 <defs>
  <style type="text/css">*{stroke-linejoin: round; stroke-linecap: butt}</style>
 </defs>
 <g id="figure_1">
  <g id="patch_1">
   <path d="M 0 390.467472 
L 482.527656 390.467472 
L 482.527656 -0 
L 0 -0 
z
" style="fill: #ffffff"/>
  </g>
  <g id="axes_1">
   <g id="patch_2">
    <path d="M 79.592656 279.770672 
L 436.712656 279.770672 
L 436.712656 13.658672 
L 79.592656 13.658672 
z
" style="fill: #ffffff"/>
   </g>
   <g id="matplotlib.axis_1">
    <g id="xtick_1">
     <g id="line2d_1">
      <defs>
       <path id="m2e311deaea" d="M 0 0 
L 0 -5 
" style="stroke: #000000; stroke-width: 0.75"/>
      </defs>
      <g>
       <use xlink:href="#m2e311deaea" x="436.712656" y="279.770672" style="stroke: #000000; stroke-width: 0.75"/>
      </g>
     </g>
     <g id="line2d_2">
      <defs>
       <path id="m85a0afbcce" d="M 0 0 
L 0 5 
" style="stroke: #000000; stroke-width: 0.75"/>
      </defs>
      <g>
       <use xlink:href="#m85a0afbcce" x="436.712656" y="13.658672" style="stroke: #000000; stroke-width: 0.75"/>
      </g>
     </g>
     <g id="text_1">
      <!-- 1e-4 -->
      <g transform="translate(417.992734 296.188016) scale(0.17 -0.17)">
       <defs>
        <path id="DejaVuSerif-31" d="M 909 0 
L 909 331 
L 1722 331 
L 1722 4213 
L 781 3603 
L 781 4013 
L 1919 4750 
L 2350 4750 
L 2350 331 
L 3163 331 
L 3163 0 
L 909 0 
z
" transform="scale(0.015625)"/>
        <path id="DejaVuSerif-65" d="M 3469 1600 
L 991 1600 
L 991 1575 
Q 991 903 1244 561 
Q 1497 219 1991 219 
Q 2369 219 2611 417 
Q 2853 616 2950 1006 
L 3413 1006 
Q 3275 459 2904 184 
Q 2534 -91 1931 -91 
Q 1203 -91 761 389 
Q 319 869 319 1663 
Q 319 2450 753 2931 
Q 1188 3413 1894 3413 
Q 2647 3413 3050 2948 
Q 3453 2484 3469 1600 
z
M 2791 1931 
Q 2772 2513 2545 2808 
Q 2319 3103 1894 3103 
Q 1497 3103 1269 2806 
Q 1041 2509 991 1931 
L 2791 1931 
z
" transform="scale(0.015625)"/>
        <path id="DejaVuSerif-2d" d="M 281 1959 
L 1881 1959 
L 1881 1472 
L 281 1472 
L 281 1959 
z
" transform="scale(0.015625)"/>
        <path id="DejaVuSerif-34" d="M 2234 1581 
L 2234 4063 
L 641 1581 
L 2234 1581 
z
M 3609 0 
L 1484 0 
L 1484 331 
L 2234 331 
L 2234 1247 
L 197 1247 
L 197 1588 
L 2241 4750 
L 2859 4750 
L 2859 1581 
L 3750 1581 
L 3750 1247 
L 2859 1247 
L 2859 331 
L 3609 331 
L 3609 0 
z
" transform="scale(0.015625)"/>
       </defs>
       <use xlink:href="#DejaVuSerif-31"/>
       <use xlink:href="#DejaVuSerif-65" x="63.623047"/>
       <use xlink:href="#DejaVuSerif-2d" x="122.802734"/>
       <use xlink:href="#DejaVuSerif-34" x="156.591797"/>
      </g>
     </g>
    </g>
    <g id="xtick_2">
     <g id="line2d_3">
      <g>
       <use xlink:href="#m2e311deaea" x="317.672656" y="279.770672" style="stroke: #000000; stroke-width: 0.75"/>
      </g>
     </g>
     <g id="line2d_4">
      <g>
       <use xlink:href="#m85a0afbcce" x="317.672656" y="13.658672" style="stroke: #000000; stroke-width: 0.75"/>
      </g>
     </g>
     <g id="text_2">
      <!-- 1e-3 -->
      <g transform="translate(298.952734 296.188016) scale(0.17 -0.17)">
       <defs>
        <path id="DejaVuSerif-33" d="M 622 4469 
Q 988 4606 1323 4678 
Q 1659 4750 1953 4750 
Q 2638 4750 3022 4454 
Q 3406 4159 3406 3634 
Q 3406 3213 3140 2930 
Q 2875 2647 2388 2547 
Q 2963 2466 3280 2130 
Q 3597 1794 3597 1259 
Q 3597 606 3158 257 
Q 2719 -91 1894 -91 
Q 1528 -91 1179 -12 
Q 831 66 488 225 
L 488 1131 
L 838 1131 
Q 869 681 1141 450 
Q 1413 219 1906 219 
Q 2384 219 2661 495 
Q 2938 772 2938 1253 
Q 2938 1803 2653 2086 
Q 2369 2369 1819 2369 
L 1522 2369 
L 1522 2688 
L 1678 2688 
Q 2225 2688 2498 2914 
Q 2772 3141 2772 3597 
Q 2772 4006 2547 4223 
Q 2322 4441 1900 4441 
Q 1478 4441 1245 4241 
Q 1013 4041 972 3647 
L 622 3647 
L 622 4469 
z
" transform="scale(0.015625)"/>
       </defs>
       <use xlink:href="#DejaVuSerif-31"/>
       <use xlink:href="#DejaVuSerif-65" x="63.623047"/>
       <use xlink:href="#DejaVuSerif-2d" x="122.802734"/>
       <use xlink:href="#DejaVuSerif-33" x="156.591797"/>
      </g>
     </g>
    </g>
    <g id="xtick_3">
     <g id="line2d_5">
      <g>
       <use xlink:href="#m2e311deaea" x="198.632656" y="279.770672" style="stroke: #000000; stroke-width: 0.75"/>
      </g>
     </g>
     <g id="line2d_6">
      <g>
       <use xlink:href="#m85a0afbcce" x="198.632656" y="13.658672" style="stroke: #000000; stroke-width: 0.75"/>
      </g>
     </g>
     <g id="text_3">
      <!-- 1e-2 -->
      <g transform="translate(179.912734 296.188016) scale(0.17 -0.17)">
       <defs>
        <path id="DejaVuSerif-32" d="M 819 3553 
L 469 3553 
L 469 4384 
Q 803 4563 1142 4656 
Q 1481 4750 1806 4750 
Q 2534 4750 2956 4397 
Q 3378 4044 3378 3438 
Q 3378 2753 2422 1800 
Q 2347 1728 2309 1691 
L 1131 513 
L 3078 513 
L 3078 1088 
L 3444 1088 
L 3444 0 
L 434 0 
L 434 341 
L 1850 1753 
Q 2319 2222 2519 2614 
Q 2719 3006 2719 3438 
Q 2719 3909 2473 4175 
Q 2228 4441 1797 4441 
Q 1350 4441 1106 4219 
Q 863 3997 819 3553 
z
" transform="scale(0.015625)"/>
       </defs>
       <use xlink:href="#DejaVuSerif-31"/>
       <use xlink:href="#DejaVuSerif-65" x="63.623047"/>
       <use xlink:href="#DejaVuSerif-2d" x="122.802734"/>
       <use xlink:href="#DejaVuSerif-32" x="156.591797"/>
      </g>
     </g>
    </g>
    <g id="xtick_4">
     <g id="line2d_7">
      <g>
       <use xlink:href="#m2e311deaea" x="79.592656" y="279.770672" style="stroke: #000000; stroke-width: 0.75"/>
      </g>
     </g>
     <g id="line2d_8">
      <g>
       <use xlink:href="#m85a0afbcce" x="79.592656" y="13.658672" style="stroke: #000000; stroke-width: 0.75"/>
      </g>
     </g>
     <g id="text_4">
      <!--       1e-1 -->
      <g transform="translate(44.664297 296.188016) scale(0.17 -0.17)">
       <defs>
        <path id="DejaVuSerif-20" transform="scale(0.015625)"/>
       </defs>
       <use xlink:href="#DejaVuSerif-20"/>
       <use xlink:href="#DejaVuSerif-20" x="31.787109"/>
       <use xlink:href="#DejaVuSerif-20" x="63.574219"/>
       <use xlink:href="#DejaVuSerif-20" x="95.361328"/>
       <use xlink:href="#DejaVuSerif-20" x="127.148438"/>
       <use xlink:href="#DejaVuSerif-20" x="158.935547"/>
       <use xlink:href="#DejaVuSerif-31" x="190.722656"/>
       <use xlink:href="#DejaVuSerif-65" x="254.345703"/>
       <use xlink:href="#DejaVuSerif-2d" x="313.525391"/>
       <use xlink:href="#DejaVuSerif-31" x="347.314453"/>
      </g>
     </g>
    </g>
    <g id="xtick_5">
     <g id="line2d_9">
      <defs>
       <path id="mbf2d624f77" d="M 0 0 
L 0 -2.5 
" style="stroke: #000000; stroke-width: 0.75"/>
      </defs>
      <g>
       <use xlink:href="#mbf2d624f77" x="400.878046" y="279.770672" style="stroke: #000000; stroke-width: 0.75"/>
      </g>
     </g>
     <g id="line2d_10">
      <defs>
       <path id="ma18eb8c132" d="M 0 0 
L 0 2.5 
" style="stroke: #000000; stroke-width: 0.75"/>
      </defs>
      <g>
       <use xlink:href="#ma18eb8c132" x="400.878046" y="13.658672" style="stroke: #000000; stroke-width: 0.75"/>
      </g>
     </g>
    </g>
    <g id="xtick_6">
     <g id="line2d_11">
      <g>
       <use xlink:href="#mbf2d624f77" x="379.916142" y="279.770672" style="stroke: #000000; stroke-width: 0.75"/>
      </g>
     </g>
     <g id="line2d_12">
      <g>
       <use xlink:href="#ma18eb8c132" x="379.916142" y="13.658672" style="stroke: #000000; stroke-width: 0.75"/>
      </g>
     </g>
    </g>
    <g id="xtick_7">
     <g id="line2d_13">
      <g>
       <use xlink:href="#mbf2d624f77" x="365.043435" y="279.770672" style="stroke: #000000; stroke-width: 0.75"/>
      </g>
     </g>
     <g id="line2d_14">
      <g>
       <use xlink:href="#ma18eb8c132" x="365.043435" y="13.658672" style="stroke: #000000; stroke-width: 0.75"/>
      </g>
     </g>
    </g>
    <g id="xtick_8">
     <g id="line2d_15">
      <g>
       <use xlink:href="#mbf2d624f77" x="353.507267" y="279.770672" style="stroke: #000000; stroke-width: 0.75"/>
      </g>
     </g>
     <g id="line2d_16">
      <g>
       <use xlink:href="#ma18eb8c132" x="353.507267" y="13.658672" style="stroke: #000000; stroke-width: 0.75"/>
      </g>
     </g>
    </g>
    <g id="xtick_9">
     <g id="line2d_17">
      <g>
       <use xlink:href="#mbf2d624f77" x="344.081531" y="279.770672" style="stroke: #000000; stroke-width: 0.75"/>
      </g>
     </g>
     <g id="line2d_18">
      <g>
       <use xlink:href="#ma18eb8c132" x="344.081531" y="13.658672" style="stroke: #000000; stroke-width: 0.75"/>
      </g>
     </g>
    </g>
    <g id="xtick_10">
     <g id="line2d_19">
      <g>
       <use xlink:href="#mbf2d624f77" x="336.112186" y="279.770672" style="stroke: #000000; stroke-width: 0.75"/>
      </g>
     </g>
     <g id="line2d_20">
      <g>
       <use xlink:href="#ma18eb8c132" x="336.112186" y="13.658672" style="stroke: #000000; stroke-width: 0.75"/>
      </g>
     </g>
    </g>
    <g id="xtick_11">
     <g id="line2d_21">
      <g>
       <use xlink:href="#mbf2d624f77" x="329.208824" y="279.770672" style="stroke: #000000; stroke-width: 0.75"/>
      </g>
     </g>
     <g id="line2d_22">
      <g>
       <use xlink:href="#ma18eb8c132" x="329.208824" y="13.658672" style="stroke: #000000; stroke-width: 0.75"/>
      </g>
     </g>
    </g>
    <g id="xtick_12">
     <g id="line2d_23">
      <g>
       <use xlink:href="#mbf2d624f77" x="323.119628" y="279.770672" style="stroke: #000000; stroke-width: 0.75"/>
      </g>
     </g>
     <g id="line2d_24">
      <g>
       <use xlink:href="#ma18eb8c132" x="323.119628" y="13.658672" style="stroke: #000000; stroke-width: 0.75"/>
      </g>
     </g>
    </g>
    <g id="xtick_13">
     <g id="line2d_25">
      <g>
       <use xlink:href="#mbf2d624f77" x="281.838046" y="279.770672" style="stroke: #000000; stroke-width: 0.75"/>
      </g>
     </g>
     <g id="line2d_26">
      <g>
       <use xlink:href="#ma18eb8c132" x="281.838046" y="13.658672" style="stroke: #000000; stroke-width: 0.75"/>
      </g>
     </g>
    </g>
    <g id="xtick_14">
     <g id="line2d_27">
      <g>
       <use xlink:href="#mbf2d624f77" x="260.876142" y="279.770672" style="stroke: #000000; stroke-width: 0.75"/>
      </g>
     </g>
     <g id="line2d_28">
      <g>
       <use xlink:href="#ma18eb8c132" x="260.876142" y="13.658672" style="stroke: #000000; stroke-width: 0.75"/>
      </g>
     </g>
    </g>
    <g id="xtick_15">
     <g id="line2d_29">
      <g>
       <use xlink:href="#mbf2d624f77" x="246.003435" y="279.770672" style="stroke: #000000; stroke-width: 0.75"/>
      </g>
     </g>
     <g id="line2d_30">
      <g>
       <use xlink:href="#ma18eb8c132" x="246.003435" y="13.658672" style="stroke: #000000; stroke-width: 0.75"/>
      </g>
     </g>
    </g>
    <g id="xtick_16">
     <g id="line2d_31">
      <g>
       <use xlink:href="#mbf2d624f77" x="234.467267" y="279.770672" style="stroke: #000000; stroke-width: 0.75"/>
      </g>
     </g>
     <g id="line2d_32">
      <g>
       <use xlink:href="#ma18eb8c132" x="234.467267" y="13.658672" style="stroke: #000000; stroke-width: 0.75"/>
      </g>
     </g>
    </g>
    <g id="xtick_17">
     <g id="line2d_33">
      <g>
       <use xlink:href="#mbf2d624f77" x="225.041531" y="279.770672" style="stroke: #000000; stroke-width: 0.75"/>
      </g>
     </g>
     <g id="line2d_34">
      <g>
       <use xlink:href="#ma18eb8c132" x="225.041531" y="13.658672" style="stroke: #000000; stroke-width: 0.75"/>
      </g>
     </g>
    </g>
    <g id="xtick_18">
     <g id="line2d_35">
      <g>
       <use xlink:href="#mbf2d624f77" x="217.072186" y="279.770672" style="stroke: #000000; stroke-width: 0.75"/>
      </g>
     </g>
     <g id="line2d_36">
      <g>
       <use xlink:href="#ma18eb8c132" x="217.072186" y="13.658672" style="stroke: #000000; stroke-width: 0.75"/>
      </g>
     </g>
    </g>
    <g id="xtick_19">
     <g id="line2d_37">
      <g>
       <use xlink:href="#mbf2d624f77" x="210.168824" y="279.770672" style="stroke: #000000; stroke-width: 0.75"/>
      </g>
     </g>
     <g id="line2d_38">
      <g>
       <use xlink:href="#ma18eb8c132" x="210.168824" y="13.658672" style="stroke: #000000; stroke-width: 0.75"/>
      </g>
     </g>
    </g>
    <g id="xtick_20">
     <g id="line2d_39">
      <g>
       <use xlink:href="#mbf2d624f77" x="204.079628" y="279.770672" style="stroke: #000000; stroke-width: 0.75"/>
      </g>
     </g>
     <g id="line2d_40">
      <g>
       <use xlink:href="#ma18eb8c132" x="204.079628" y="13.658672" style="stroke: #000000; stroke-width: 0.75"/>
      </g>
     </g>
    </g>
    <g id="xtick_21">
     <g id="line2d_41">
      <g>
       <use xlink:href="#mbf2d624f77" x="162.798046" y="279.770672" style="stroke: #000000; stroke-width: 0.75"/>
      </g>
     </g>
     <g id="line2d_42">
      <g>
       <use xlink:href="#ma18eb8c132" x="162.798046" y="13.658672" style="stroke: #000000; stroke-width: 0.75"/>
      </g>
     </g>
    </g>
    <g id="xtick_22">
     <g id="line2d_43">
      <g>
       <use xlink:href="#mbf2d624f77" x="141.836142" y="279.770672" style="stroke: #000000; stroke-width: 0.75"/>
      </g>
     </g>
     <g id="line2d_44">
      <g>
       <use xlink:href="#ma18eb8c132" x="141.836142" y="13.658672" style="stroke: #000000; stroke-width: 0.75"/>
      </g>
     </g>
    </g>
    <g id="xtick_23">
     <g id="line2d_45">
      <g>
       <use xlink:href="#mbf2d624f77" x="126.963435" y="279.770672" style="stroke: #000000; stroke-width: 0.75"/>
      </g>
     </g>
     <g id="line2d_46">
      <g>
       <use xlink:href="#ma18eb8c132" x="126.963435" y="13.658672" style="stroke: #000000; stroke-width: 0.75"/>
      </g>
     </g>
    </g>
    <g id="xtick_24">
     <g id="line2d_47">
      <g>
       <use xlink:href="#mbf2d624f77" x="115.427267" y="279.770672" style="stroke: #000000; stroke-width: 0.75"/>
      </g>
     </g>
     <g id="line2d_48">
      <g>
       <use xlink:href="#ma18eb8c132" x="115.427267" y="13.658672" style="stroke: #000000; stroke-width: 0.75"/>
      </g>
     </g>
    </g>
    <g id="xtick_25">
     <g id="line2d_49">
      <g>
       <use xlink:href="#mbf2d624f77" x="106.001531" y="279.770672" style="stroke: #000000; stroke-width: 0.75"/>
      </g>
     </g>
     <g id="line2d_50">
      <g>
       <use xlink:href="#ma18eb8c132" x="106.001531" y="13.658672" style="stroke: #000000; stroke-width: 0.75"/>
      </g>
     </g>
    </g>
    <g id="xtick_26">
     <g id="line2d_51">
      <g>
       <use xlink:href="#mbf2d624f77" x="98.032186" y="279.770672" style="stroke: #000000; stroke-width: 0.75"/>
      </g>
     </g>
     <g id="line2d_52">
      <g>
       <use xlink:href="#ma18eb8c132" x="98.032186" y="13.658672" style="stroke: #000000; stroke-width: 0.75"/>
      </g>
     </g>
    </g>
    <g id="xtick_27">
     <g id="line2d_53">
      <g>
       <use xlink:href="#mbf2d624f77" x="91.128824" y="279.770672" style="stroke: #000000; stroke-width: 0.75"/>
      </g>
     </g>
     <g id="line2d_54">
      <g>
       <use xlink:href="#ma18eb8c132" x="91.128824" y="13.658672" style="stroke: #000000; stroke-width: 0.75"/>
      </g>
     </g>
    </g>
    <g id="xtick_28">
     <g id="line2d_55">
      <g>
       <use xlink:href="#mbf2d624f77" x="85.039628" y="279.770672" style="stroke: #000000; stroke-width: 0.75"/>
      </g>
     </g>
     <g id="line2d_56">
      <g>
       <use xlink:href="#ma18eb8c132" x="85.039628" y="13.658672" style="stroke: #000000; stroke-width: 0.75"/>
      </g>
     </g>
    </g>
    <g id="text_5">
     <!-- $D$ -->
     <g transform="translate(251.267656 316.640828) scale(0.17 -0.17)">
      <defs>
       <path id="DejaVuSerif-Italic-44" d="M 1194 331 
L 1775 331 
Q 2684 331 3271 850 
Q 3859 1369 4048 2337 
Q 4238 3306 3852 3818 
Q 3466 4331 2553 4331 
L 1972 4331 
L 1194 331 
z
M -97 0 
L -34 331 
L 559 331 
L 1338 4331 
L 744 4331 
L 809 4666 
L 2666 4666 
Q 3872 4666 4426 4050 
Q 4981 3434 4766 2338 
Q 4553 1238 3758 619 
Q 2963 0 1759 0 
L -97 0 
z
" transform="scale(0.015625)"/>
      </defs>
      <use xlink:href="#DejaVuSerif-Italic-44" transform="translate(0 0.09375)"/>
     </g>
    </g>
   </g>
   <g id="matplotlib.axis_2">
    <g id="ytick_1">
     <g id="line2d_57">
      <defs>
       <path id="m0533b05159" d="M 0 0 
L 5 0 
" style="stroke: #000000; stroke-width: 0.75"/>
      </defs>
      <g>
       <use xlink:href="#m0533b05159" x="79.592656" y="279.770672" style="stroke: #000000; stroke-width: 0.75"/>
      </g>
     </g>
     <g id="line2d_58">
      <defs>
       <path id="m816ac1b1f1" d="M 0 0 
L -5 0 
" style="stroke: #000000; stroke-width: 0.75"/>
      </defs>
      <g>
       <use xlink:href="#m816ac1b1f1" x="436.712656" y="279.770672" style="stroke: #000000; stroke-width: 0.75"/>
      </g>
     </g>
     <g id="text_6">
      <!-- 1e-8 -->
      <g transform="translate(38.652813 286.229344) scale(0.17 -0.17)">
       <defs>
        <path id="DejaVuSerif-38" d="M 2981 1275 
Q 2981 1775 2732 2051 
Q 2484 2328 2034 2328 
Q 1584 2328 1336 2051 
Q 1088 1775 1088 1275 
Q 1088 772 1336 495 
Q 1584 219 2034 219 
Q 2484 219 2732 495 
Q 2981 772 2981 1275 
z
M 2853 3541 
Q 2853 3966 2637 4203 
Q 2422 4441 2034 4441 
Q 1650 4441 1433 4203 
Q 1216 3966 1216 3541 
Q 1216 3113 1433 2875 
Q 1650 2638 2034 2638 
Q 2422 2638 2637 2875 
Q 2853 3113 2853 3541 
z
M 2516 2484 
Q 3047 2413 3344 2092 
Q 3641 1772 3641 1275 
Q 3641 619 3225 264 
Q 2809 -91 2034 -91 
Q 1263 -91 845 264 
Q 428 619 428 1275 
Q 428 1772 725 2092 
Q 1022 2413 1556 2484 
Q 1084 2569 832 2842 
Q 581 3116 581 3541 
Q 581 4103 968 4426 
Q 1356 4750 2034 4750 
Q 2713 4750 3100 4426 
Q 3488 4103 3488 3541 
Q 3488 3116 3236 2842 
Q 2984 2569 2516 2484 
z
" transform="scale(0.015625)"/>
       </defs>
       <use xlink:href="#DejaVuSerif-31"/>
       <use xlink:href="#DejaVuSerif-65" x="63.623047"/>
       <use xlink:href="#DejaVuSerif-2d" x="122.802734"/>
       <use xlink:href="#DejaVuSerif-38" x="156.591797"/>
      </g>
     </g>
    </g>
    <g id="ytick_2">
     <g id="line2d_59">
      <g>
       <use xlink:href="#m0533b05159" x="79.592656" y="226.548272" style="stroke: #000000; stroke-width: 0.75"/>
      </g>
     </g>
     <g id="line2d_60">
      <g>
       <use xlink:href="#m816ac1b1f1" x="436.712656" y="226.548272" style="stroke: #000000; stroke-width: 0.75"/>
      </g>
     </g>
     <g id="text_7">
      <!-- 1e-6 -->
      <g transform="translate(38.652813 233.006944) scale(0.17 -0.17)">
       <defs>
        <path id="DejaVuSerif-36" d="M 2094 219 
Q 2534 219 2771 542 
Q 3009 866 3009 1472 
Q 3009 2078 2771 2401 
Q 2534 2725 2094 2725 
Q 1647 2725 1412 2412 
Q 1178 2100 1178 1509 
Q 1178 888 1415 553 
Q 1653 219 2094 219 
z
M 1075 2569 
Q 1288 2803 1556 2918 
Q 1825 3034 2163 3034 
Q 2859 3034 3264 2615 
Q 3669 2197 3669 1472 
Q 3669 763 3233 336 
Q 2797 -91 2069 -91 
Q 1278 -91 853 498 
Q 428 1088 428 2181 
Q 428 3406 931 4078 
Q 1434 4750 2350 4750 
Q 2597 4750 2869 4703 
Q 3141 4656 3425 4563 
L 3425 3794 
L 3072 3794 
Q 3034 4109 2831 4275 
Q 2628 4441 2284 4441 
Q 1678 4441 1381 3981 
Q 1084 3522 1075 2569 
z
" transform="scale(0.015625)"/>
       </defs>
       <use xlink:href="#DejaVuSerif-31"/>
       <use xlink:href="#DejaVuSerif-65" x="63.623047"/>
       <use xlink:href="#DejaVuSerif-2d" x="122.802734"/>
       <use xlink:href="#DejaVuSerif-36" x="156.591797"/>
      </g>
     </g>
    </g>
    <g id="ytick_3">
     <g id="line2d_61">
      <g>
       <use xlink:href="#m0533b05159" x="79.592656" y="173.325872" style="stroke: #000000; stroke-width: 0.75"/>
      </g>
     </g>
     <g id="line2d_62">
      <g>
       <use xlink:href="#m816ac1b1f1" x="436.712656" y="173.325872" style="stroke: #000000; stroke-width: 0.75"/>
      </g>
     </g>
     <g id="text_8">
      <!-- 1e-4 -->
      <g transform="translate(38.652813 179.784544) scale(0.17 -0.17)">
       <use xlink:href="#DejaVuSerif-31"/>
       <use xlink:href="#DejaVuSerif-65" x="63.623047"/>
       <use xlink:href="#DejaVuSerif-2d" x="122.802734"/>
       <use xlink:href="#DejaVuSerif-34" x="156.591797"/>
      </g>
     </g>
    </g>
    <g id="ytick_4">
     <g id="line2d_63">
      <g>
       <use xlink:href="#m0533b05159" x="79.592656" y="120.103472" style="stroke: #000000; stroke-width: 0.75"/>
      </g>
     </g>
     <g id="line2d_64">
      <g>
       <use xlink:href="#m816ac1b1f1" x="436.712656" y="120.103472" style="stroke: #000000; stroke-width: 0.75"/>
      </g>
     </g>
     <g id="text_9">
      <!-- 1e-2 -->
      <g transform="translate(38.652813 126.562144) scale(0.17 -0.17)">
       <use xlink:href="#DejaVuSerif-31"/>
       <use xlink:href="#DejaVuSerif-65" x="63.623047"/>
       <use xlink:href="#DejaVuSerif-2d" x="122.802734"/>
       <use xlink:href="#DejaVuSerif-32" x="156.591797"/>
      </g>
     </g>
    </g>
    <g id="ytick_5">
     <g id="line2d_65">
      <g>
       <use xlink:href="#m0533b05159" x="79.592656" y="66.881072" style="stroke: #000000; stroke-width: 0.75"/>
      </g>
     </g>
     <g id="line2d_66">
      <g>
       <use xlink:href="#m816ac1b1f1" x="436.712656" y="66.881072" style="stroke: #000000; stroke-width: 0.75"/>
      </g>
     </g>
     <g id="text_10">
      <!-- 1e0 -->
      <g transform="translate(44.398281 73.339744) scale(0.17 -0.17)">
       <defs>
        <path id="DejaVuSerif-30" d="M 2034 219 
Q 2513 219 2750 744 
Q 2988 1269 2988 2328 
Q 2988 3391 2750 3916 
Q 2513 4441 2034 4441 
Q 1556 4441 1318 3916 
Q 1081 3391 1081 2328 
Q 1081 1269 1318 744 
Q 1556 219 2034 219 
z
M 2034 -91 
Q 1275 -91 848 546 
Q 422 1184 422 2328 
Q 422 3475 848 4112 
Q 1275 4750 2034 4750 
Q 2797 4750 3222 4112 
Q 3647 3475 3647 2328 
Q 3647 1184 3222 546 
Q 2797 -91 2034 -91 
z
" transform="scale(0.015625)"/>
       </defs>
       <use xlink:href="#DejaVuSerif-31"/>
       <use xlink:href="#DejaVuSerif-65" x="63.623047"/>
       <use xlink:href="#DejaVuSerif-30" x="122.802734"/>
      </g>
     </g>
    </g>
    <g id="ytick_6">
     <g id="line2d_67">
      <g>
       <use xlink:href="#m0533b05159" x="79.592656" y="13.658672" style="stroke: #000000; stroke-width: 0.75"/>
      </g>
     </g>
     <g id="line2d_68">
      <g>
       <use xlink:href="#m816ac1b1f1" x="436.712656" y="13.658672" style="stroke: #000000; stroke-width: 0.75"/>
      </g>
     </g>
     <g id="text_11">
      <!-- 1e2 -->
      <g transform="translate(44.398281 20.117344) scale(0.17 -0.17)">
       <use xlink:href="#DejaVuSerif-31"/>
       <use xlink:href="#DejaVuSerif-65" x="63.623047"/>
       <use xlink:href="#DejaVuSerif-32" x="122.802734"/>
      </g>
     </g>
    </g>
    <g id="text_12">
     <!-- $\Gamma  \%$ Error -->
     <g transform="translate(20.117344 186.919672) rotate(-90) scale(0.17 -0.17)">
      <defs>
       <path id="DejaVuSerif-393" d="M 1581 331 
L 2328 331 
L 2328 0 
L 353 0 
L 353 331 
L 947 331 
L 947 4331 
L 353 4331 
L 353 4666 
L 4172 4666 
L 4172 3625 
L 3788 3625 
L 3788 4281 
L 1581 4281 
L 1581 331 
z
" transform="scale(0.015625)"/>
       <path id="DejaVuSerif-25" d="M 1434 4459 
Q 1159 4459 1004 4200 
Q 850 3941 850 3475 
Q 850 3016 1008 2753 
Q 1166 2491 1434 2491 
Q 1700 2491 1854 2752 
Q 2009 3013 2009 3475 
Q 2009 3938 1854 4198 
Q 1700 4459 1434 4459 
z
M 4653 2169 
Q 4381 2169 4226 1906 
Q 4072 1644 4072 1178 
Q 4072 719 4228 458 
Q 4384 197 4653 197 
Q 4922 197 5075 458 
Q 5228 719 5228 1178 
Q 5228 1641 5073 1905 
Q 4919 2169 4653 2169 
z
M 4653 2450 
Q 5147 2450 5437 2106 
Q 5728 1763 5728 1178 
Q 5728 594 5436 251 
Q 5144 -91 4653 -91 
Q 4153 -91 3862 251 
Q 3572 594 3572 1178 
Q 3572 1766 3864 2108 
Q 4156 2450 4653 2450 
z
M 4263 4750 
L 4738 4750 
L 1819 -91 
L 1344 -91 
L 4263 4750 
z
M 1428 4750 
Q 1922 4750 2215 4408 
Q 2509 4066 2509 3481 
Q 2509 2891 2217 2550 
Q 1925 2209 1428 2209 
Q 931 2209 642 2551 
Q 353 2894 353 3481 
Q 353 4063 643 4406 
Q 934 4750 1428 4750 
z
" transform="scale(0.015625)"/>
       <path id="DejaVuSerif-45" d="M 353 0 
L 353 331 
L 947 331 
L 947 4331 
L 353 4331 
L 353 4666 
L 4109 4666 
L 4109 3628 
L 3725 3628 
L 3725 4281 
L 1581 4281 
L 1581 2719 
L 3109 2719 
L 3109 3303 
L 3494 3303 
L 3494 1753 
L 3109 1753 
L 3109 2338 
L 1581 2338 
L 1581 384 
L 3775 384 
L 3775 1038 
L 4159 1038 
L 4159 0 
L 353 0 
z
" transform="scale(0.015625)"/>
       <path id="DejaVuSerif-72" d="M 3059 3328 
L 3059 2497 
L 2728 2497 
Q 2713 2744 2591 2866 
Q 2469 2988 2234 2988 
Q 1809 2988 1582 2694 
Q 1356 2400 1356 1850 
L 1356 331 
L 2022 331 
L 2022 0 
L 263 0 
L 263 331 
L 781 331 
L 781 2994 
L 231 2994 
L 231 3322 
L 1356 3322 
L 1356 2731 
Q 1525 3078 1790 3245 
Q 2056 3413 2438 3413 
Q 2578 3413 2733 3391 
Q 2888 3369 3059 3328 
z
" transform="scale(0.015625)"/>
       <path id="DejaVuSerif-6f" d="M 1925 219 
Q 2388 219 2623 584 
Q 2859 950 2859 1663 
Q 2859 2375 2623 2739 
Q 2388 3103 1925 3103 
Q 1463 3103 1227 2739 
Q 991 2375 991 1663 
Q 991 950 1228 584 
Q 1466 219 1925 219 
z
M 1925 -91 
Q 1200 -91 759 389 
Q 319 869 319 1663 
Q 319 2456 758 2934 
Q 1197 3413 1925 3413 
Q 2653 3413 3092 2934 
Q 3531 2456 3531 1663 
Q 3531 869 3092 389 
Q 2653 -91 1925 -91 
z
" transform="scale(0.015625)"/>
      </defs>
      <use xlink:href="#DejaVuSerif-393" transform="translate(0 0.78125)"/>
      <use xlink:href="#DejaVuSerif-25" transform="translate(69.384766 0.78125)"/>
      <use xlink:href="#DejaVuSerif-20" transform="translate(164.404297 0.78125)"/>
      <use xlink:href="#DejaVuSerif-45" transform="translate(196.191406 0.78125)"/>
      <use xlink:href="#DejaVuSerif-72" transform="translate(269.189453 0.78125)"/>
      <use xlink:href="#DejaVuSerif-72" transform="translate(316.992188 0.78125)"/>
      <use xlink:href="#DejaVuSerif-6f" transform="translate(364.794922 0.78125)"/>
      <use xlink:href="#DejaVuSerif-72" transform="translate(425 0.78125)"/>
     </g>
    </g>
   </g>
   <g id="line2d_69">
    <path d="M 433.105384 250.158381 
L 429.498111 255.280673 
L 425.890838 251.221184 
L 422.283565 234.820801 
L 418.676293 243.158103 
L 415.06902 230.914111 
L 411.461747 226.654212 
L 407.854474 224.543657 
L 404.247202 219.47822 
L 400.639929 219.004385 
L 397.032656 214.559507 
L 393.425384 210.032217 
L 389.818111 208.790814 
L 386.210838 203.831383 
L 382.603565 201.941808 
L 378.996293 198.081433 
L 375.38902 194.269814 
L 371.781747 191.912478 
L 368.174474 187.935348 
L 364.567202 185.39969 
L 360.959929 181.898942 
L 357.352656 178.404524 
L 353.745384 175.572647 
L 350.138111 171.989152 
L 346.530838 169.030987 
L 342.923565 165.714621 
L 339.316293 162.404317 
L 335.70902 159.370645 
L 332.101747 156.046754 
L 328.494474 152.966077 
L 324.887202 149.732145 
L 321.279929 146.515096 
L 317.672656 90.235434 
L 314.065384 88.676209 
L 310.458111 87.122326 
L 306.850838 85.574298 
L 303.243565 84.032673 
L 299.636293 82.498036 
L 296.02902 80.971001 
L 292.421747 79.452215 
L 288.814474 77.942346 
L 285.207202 76.442084 
L 281.599929 74.952131 
L 277.992656 73.473193 
L 274.385384 72.005974 
L 270.778111 70.551164 
L 267.170838 69.109434 
L 263.563565 67.681423 
L 259.956293 66.267732 
L 256.34902 64.86892 
L 252.741747 63.485491 
L 249.134474 62.117899 
L 245.527202 60.766539 
L 241.919929 59.431753 
L 238.312656 58.113825 
L 234.705384 56.812992 
L 231.098111 55.529443 
L 227.490838 54.263327 
L 223.883565 53.01476 
L 220.276293 51.783832 
L 216.66902 50.570612 
L 213.061747 49.375161 
L 209.454474 48.197527 
L 205.847202 47.037763 
L 202.239929 45.895924 
L 198.632656 44.772074 
L 195.025384 43.666291 
L 191.418111 42.578664 
L 187.810838 41.509301 
L 184.203565 40.458324 
L 180.596293 39.425871 
L 176.98902 38.412094 
L 173.381747 37.417159 
L 169.774474 36.441239 
L 166.167202 35.484515 
L 162.559929 34.547169 
L 158.952656 33.629381 
L 155.345384 32.731322 
L 151.738111 31.853153 
L 148.130838 30.995014 
L 144.523565 30.157023 
L 140.916293 29.33927 
L 137.30902 28.541812 
L 133.701747 27.764667 
L 130.094474 27.007815 
L 126.487202 26.271193 
L 122.879929 25.554696 
L 119.272656 24.858174 
L 115.665384 24.181442 
L 112.058111 23.524277 
L 108.450838 22.88643 
L 104.843565 22.267636 
L 101.236293 21.66762 
L 97.62902 21.086118 
L 94.021747 20.522888 
L 90.414474 19.97773 
L 86.807202 19.450505 
L 83.199929 18.941152 
L 79.592656 18.449707 
" clip-path="url(#p97fadce011)" style="fill: none; stroke: #000000; stroke-width: 1.5; stroke-linecap: square"/>
   </g>
   <g id="line2d_70">
    <path d="M 433.105384 233.026893 
L 429.498111 256.709393 
L 425.890838 273.487305 
L 422.283565 249.512172 
L 418.676293 251.606154 
L 415.06902 245.24567 
L 411.461747 251.478891 
L 407.854474 242.508273 
L 404.247202 246.741787 
L 400.639929 269.246917 
L 397.032656 279.453 
L 393.425384 231.873719 
L 389.818111 242.177224 
L 386.210838 243.824365 
L 382.603565 240.807222 
L 378.996293 223.932152 
L 375.38902 234.825326 
L 371.781747 221.912615 
L 368.174474 213.713592 
L 364.567202 214.764525 
L 360.959929 204.001998 
L 357.352656 213.900641 
L 353.745384 204.060266 
L 350.138111 197.453586 
L 346.530838 196.445698 
L 342.923565 190.782918 
L 339.316293 192.124378 
L 335.70902 187.133944 
L 332.101747 182.66256 
L 328.494474 180.494289 
L 324.887202 176.528885 
L 321.279929 174.206663 
L 317.672656 113.054999 
L 314.065384 111.447958 
L 310.458111 109.841403 
L 306.850838 108.235373 
L 303.243565 106.629903 
L 299.636293 105.025079 
L 296.02902 103.420927 
L 292.421747 101.817522 
L 288.814474 100.214942 
L 285.207202 98.613258 
L 281.599929 97.012563 
L 277.992656 95.412953 
L 274.385384 93.814533 
L 270.778111 92.217426 
L 267.170838 90.621764 
L 263.563565 89.027694 
L 259.956293 87.435376 
L 256.34902 85.844992 
L 252.741747 84.256746 
L 249.134474 82.670853 
L 245.527202 81.087561 
L 241.919929 79.507138 
L 238.312656 77.929884 
L 234.705384 76.356127 
L 231.098111 74.786226 
L 227.490838 73.220578 
L 223.883565 71.659615 
L 220.276293 70.103806 
L 216.66902 68.553662 
L 213.061747 67.009734 
L 209.454474 65.472615 
L 205.847202 63.942939 
L 202.239929 62.42138 
L 198.632656 60.908647 
L 195.025384 59.405487 
L 191.418111 57.912672 
L 187.810838 56.431002 
L 184.203565 54.961291 
L 180.596293 53.504365 
L 176.98902 52.061048 
L 173.381747 50.632158 
L 169.774474 49.218497 
L 166.167202 47.820842 
L 162.559929 46.439939 
L 158.952656 45.076496 
L 155.345384 43.731179 
L 151.738111 42.40461 
L 148.130838 41.097366 
L 144.523565 39.809982 
L 140.916293 38.542953 
L 137.30902 37.29674 
L 133.701747 36.071776 
L 130.094474 34.868477 
L 126.487202 33.687248 
L 122.879929 32.528494 
L 119.272656 31.392632 
L 115.665384 30.280101 
L 112.058111 29.191372 
L 108.450838 28.126963 
L 104.843565 27.087448 
L 101.236293 26.073468 
L 97.62902 25.085749 
L 94.021747 24.125105 
L 90.414474 23.192459 
L 86.807202 22.288846 
L 83.199929 21.415426 
L 79.592656 20.573491 
" clip-path="url(#p97fadce011)" style="fill: none; stroke-dasharray: 5.55,2.4; stroke-dashoffset: 0; stroke: #000000; stroke-width: 1.5"/>
   </g>
   <g id="line2d_71">
    <path d="M 433.105384 238.93213 
L 429.498111 242.644522 
L 425.890838 250.616336 
L 422.283565 254.820749 
L 418.676293 252.565794 
L 415.06902 255.791331 
L 411.461747 278.974215 
L 407.854474 258.214211 
L 404.247202 241.562035 
L 400.639929 259.433809 
L 397.032656 234.671055 
L 393.425384 247.484363 
L 389.818111 231.296552 
L 386.210838 224.152099 
L 382.603565 240.536335 
L 378.996293 217.449434 
L 375.38902 221.621816 
L 371.781747 213.485244 
L 368.174474 206.611435 
L 364.567202 210.023561 
L 360.959929 203.842398 
L 357.352656 198.440866 
L 353.745384 196.409278 
L 350.138111 191.289274 
L 346.530838 190.576996 
L 342.923565 186.408377 
L 339.316293 182.703148 
L 335.70902 180.250257 
L 332.101747 176.326584 
L 328.494474 173.830006 
L 324.887202 170.377158 
L 321.279929 166.997079 
L 317.672656 108.078505 
L 314.065384 106.47723 
L 310.458111 104.87691 
L 306.850838 103.277632 
L 303.243565 101.679482 
L 299.636293 100.082585 
L 296.02902 98.487027 
L 292.421747 96.892969 
L 288.814474 95.300521 
L 285.207202 93.709846 
L 281.599929 92.121113 
L 277.992656 90.534505 
L 274.385384 88.950225 
L 270.778111 87.368506 
L 267.170838 85.789584 
L 263.563565 84.213734 
L 259.956293 82.641251 
L 256.34902 81.072461 
L 252.741747 79.507717 
L 249.134474 77.947407 
L 245.527202 76.391951 
L 241.919929 74.841806 
L 238.312656 73.297463 
L 234.705384 71.759452 
L 231.098111 70.22834 
L 227.490838 68.704734 
L 223.883565 67.189274 
L 220.276293 65.682636 
L 216.66902 64.185526 
L 213.061747 62.698679 
L 209.454474 61.22285 
L 205.847202 59.758813 
L 202.239929 58.307348 
L 198.632656 56.869239 
L 195.025384 55.445261 
L 191.418111 54.036176 
L 187.810838 52.642723 
L 184.203565 51.265609 
L 180.596293 49.905505 
L 176.98902 48.563039 
L 173.381747 47.238791 
L 169.774474 45.933293 
L 166.167202 44.647027 
L 162.559929 43.380424 
L 158.952656 42.133868 
L 155.345384 40.907697 
L 151.738111 39.70221 
L 148.130838 38.517671 
L 144.523565 37.354312 
L 140.916293 36.212341 
L 137.30902 35.091949 
L 133.701747 33.993313 
L 130.094474 32.916602 
L 126.487202 31.861986 
L 122.879929 30.829636 
L 119.272656 29.819735 
L 115.665384 28.832481 
L 112.058111 27.868095 
L 108.450838 26.926825 
L 104.843565 26.008959 
L 101.236293 25.114826 
L 97.62902 24.244813 
L 94.021747 23.39937 
L 90.414474 22.579021 
L 86.807202 21.784379 
L 83.199929 21.016152 
L 79.592656 20.275156 
" clip-path="url(#p97fadce011)" style="fill: none; stroke-dasharray: 4.5,1.5,1.5,1.5; stroke-dashoffset: 0; stroke: #808080; stroke-width: 1.5"/>
   </g>
   <g id="line2d_72">
    <path d="M 433.105384 238.660379 
L 429.498111 258.764866 
L 425.890838 243.646806 
L 422.283565 258.334894 
L 418.676293 254.594616 
L 415.06902 249.67676 
L 411.461747 283.469841 
L 407.854474 268.715917 
L 404.247202 239.902056 
L 400.639929 237.571459 
L 397.032656 240.076142 
L 393.425384 231.551198 
L 389.818111 239.691751 
L 386.210838 224.481652 
L 382.603565 246.247409 
L 378.996293 238.711417 
L 375.38902 250.933833 
L 371.781747 213.770382 
L 368.174474 233.969063 
L 364.567202 218.635643 
L 360.959929 203.652387 
L 357.352656 209.200134 
L 353.745384 198.765232 
L 350.138111 210.873025 
L 346.530838 199.155664 
L 342.923565 192.484422 
L 339.316293 193.909969 
L 335.70902 187.294229 
L 332.101747 187.590768 
L 328.494474 183.038299 
L 324.887202 178.745504 
L 321.279929 176.378453 
L 317.672656 113.974051 
L 314.065384 112.364961 
L 310.458111 110.75619 
L 306.850838 109.147787 
L 303.243565 107.539779 
L 299.636293 105.932205 
L 296.02902 104.325116 
L 292.421747 102.718559 
L 288.814474 101.112557 
L 285.207202 99.507267 
L 281.599929 97.902675 
L 277.992656 96.29886 
L 274.385384 94.695937 
L 270.778111 93.093995 
L 267.170838 91.49314 
L 263.563565 89.893496 
L 259.956293 88.295197 
L 256.34902 86.698395 
L 252.741747 85.103259 
L 249.134474 83.509978 
L 245.527202 81.918763 
L 241.919929 80.32985 
L 238.312656 78.7435 
L 234.705384 77.160002 
L 231.098111 75.57968 
L 227.490838 74.002889 
L 223.883565 72.430022 
L 220.276293 70.86151 
L 216.66902 69.297825 
L 213.061747 67.739483 
L 209.454474 66.18704 
L 205.847202 64.6411 
L 202.239929 63.102308 
L 198.632656 61.571352 
L 195.025384 60.048958 
L 191.418111 58.53589 
L 187.810838 57.032939 
L 184.203565 55.540922 
L 180.596293 54.060671 
L 176.98902 52.593027 
L 173.381747 51.138826 
L 169.774474 49.698895 
L 166.167202 48.274041 
L 162.559929 46.865042 
L 158.952656 45.472641 
L 155.345384 44.09754 
L 151.738111 42.740396 
L 148.130838 41.401824 
L 144.523565 40.082394 
L 140.916293 38.782639 
L 137.30902 37.503056 
L 133.701747 36.244122 
L 130.094474 35.006297 
L 126.487202 33.790037 
L 122.879929 32.595808 
L 119.272656 31.4241 
L 115.665384 30.275436 
L 112.058111 29.150392 
L 108.450838 28.049605 
L 104.843565 26.973794 
L 101.236293 25.923769 
L 97.62902 24.900447 
L 94.021747 23.904868 
L 90.414474 22.938202 
L 86.807202 22.001768 
L 83.199929 21.097036 
L 79.592656 20.225637 
" clip-path="url(#p97fadce011)" style="fill: none; stroke: #808080; stroke-width: 1.5; stroke-linecap: square"/>
   </g>
   <g id="line2d_73">
    <path clip-path="url(#p97fadce011)" style="fill: none; stroke: #808080; stroke-linecap: square"/>
   </g>
   <g id="patch_3">
    <path d="M 79.592656 279.770672 
L 79.592656 13.658672 
" style="fill: none; stroke: #000000; stroke-width: 0.8; stroke-linejoin: miter; stroke-linecap: square"/>
   </g>
   <g id="patch_4">
    <path d="M 436.712656 279.770672 
L 436.712656 13.658672 
" style="fill: none; stroke: #000000; stroke-width: 0.8; stroke-linejoin: miter; stroke-linecap: square"/>
   </g>
   <g id="patch_5">
    <path d="M 79.592656 279.770672 
L 436.712656 279.770672 
" style="fill: none; stroke: #000000; stroke-width: 0.8; stroke-linejoin: miter; stroke-linecap: square"/>
   </g>
   <g id="patch_6">
    <path d="M 79.592656 13.658672 
L 436.712656 13.658672 
" style="fill: none; stroke: #000000; stroke-width: 0.8; stroke-linejoin: miter; stroke-linecap: square"/>
   </g>
   <g id="legend_1">
    <g id="line2d_74">
     <path d="M 47.777656 341.957472 
L 64.777656 341.957472 
L 81.777656 341.957472 
" style="fill: none; stroke: #000000; stroke-width: 1.5; stroke-linecap: square"/>
    </g>
    <g id="text_13">
     <!-- $\zeta_0 /R$ = -0.05+0.0i -->
     <g transform="translate(95.377656 347.907472) scale(0.17 -0.17)">
      <defs>
       <path id="DejaVuSerif-Italic-3b6" d="M 3784 4863 
L 3709 4478 
Q 2341 3878 1594 3019 
Q 1134 2491 991 1763 
Q 825 938 997 581 
Q 1169 225 1788 225 
Q 2769 228 2769 -459 
Q 2769 -816 2378 -1097 
Q 2050 -1334 1453 -1334 
L 1519 -997 
Q 2144 -997 2241 -506 
Q 2322 -91 1713 -91 
Q 838 -88 491 388 
Q 144 869 319 1763 
Q 441 2384 1134 3263 
Q 1703 3978 2984 4478 
L 1116 4478 
L 1028 4028 
L 700 4028 
L 863 4863 
L 3784 4863 
z
" transform="scale(0.015625)"/>
       <path id="DejaVuSerif-2f" d="M 1656 4666 
L 2156 4666 
L 500 -594 
L 0 -594 
L 1656 4666 
z
" transform="scale(0.015625)"/>
       <path id="DejaVuSerif-Italic-52" d="M 3066 2316 
Q 3272 2256 3403 2114 
Q 3534 1972 3609 1716 
L 4016 331 
L 4584 331 
L 4522 0 
L 3422 0 
L 2981 1484 
Q 2856 1916 2706 2042 
Q 2556 2169 2250 2169 
L 1553 2169 
L 1194 331 
L 1853 331 
L 1791 0 
L -97 0 
L -34 331 
L 559 331 
L 1338 4331 
L 744 4331 
L 809 4666 
L 3175 4666 
Q 3856 4666 4164 4341 
Q 4472 4016 4356 3419 
Q 4263 2938 3938 2661 
Q 3613 2384 3066 2316 
z
M 1619 2503 
L 2541 2503 
Q 3013 2503 3280 2726 
Q 3547 2950 3639 3419 
Q 3731 3888 3548 4109 
Q 3366 4331 2894 4331 
L 1972 4331 
L 1619 2503 
z
" transform="scale(0.015625)"/>
       <path id="DejaVuSerif-3d" d="M 678 2894 
L 4684 2894 
L 4684 2394 
L 678 2394 
L 678 2894 
z
M 678 1619 
L 4684 1619 
L 4684 1119 
L 678 1119 
L 678 1619 
z
" transform="scale(0.015625)"/>
       <path id="DejaVuSerif-2e" d="M 603 325 
Q 603 500 722 622 
Q 841 744 1019 744 
Q 1191 744 1312 622 
Q 1434 500 1434 325 
Q 1434 153 1312 31 
Q 1191 -91 1019 -91 
Q 841 -91 722 29 
Q 603 150 603 325 
z
" transform="scale(0.015625)"/>
       <path id="DejaVuSerif-35" d="M 3219 4666 
L 3219 4153 
L 1081 4153 
L 1081 2816 
Q 1244 2928 1461 2984 
Q 1678 3041 1947 3041 
Q 2703 3041 3140 2622 
Q 3578 2203 3578 1478 
Q 3578 738 3136 323 
Q 2694 -91 1894 -91 
Q 1572 -91 1234 -12 
Q 897 66 544 225 
L 544 1131 
L 897 1131 
Q 925 688 1179 453 
Q 1434 219 1894 219 
Q 2388 219 2653 544 
Q 2919 869 2919 1478 
Q 2919 2084 2655 2407 
Q 2391 2731 1894 2731 
Q 1613 2731 1398 2631 
Q 1184 2531 1019 2322 
L 750 2322 
L 750 4666 
L 3219 4666 
z
" transform="scale(0.015625)"/>
       <path id="DejaVuSerif-2b" d="M 2931 4013 
L 2931 2259 
L 4684 2259 
L 4684 1753 
L 2931 1753 
L 2931 0 
L 2431 0 
L 2431 1753 
L 678 1753 
L 678 2259 
L 2431 2259 
L 2431 4013 
L 2931 4013 
z
" transform="scale(0.015625)"/>
       <path id="DejaVuSerif-69" d="M 622 4353 
Q 622 4497 726 4603 
Q 831 4709 978 4709 
Q 1122 4709 1226 4603 
Q 1331 4497 1331 4353 
Q 1331 4206 1228 4103 
Q 1125 4000 978 4000 
Q 831 4000 726 4103 
Q 622 4206 622 4353 
z
M 1356 331 
L 1900 331 
L 1900 0 
L 231 0 
L 231 331 
L 781 331 
L 781 2988 
L 231 2988 
L 231 3322 
L 1356 3322 
L 1356 331 
z
" transform="scale(0.015625)"/>
      </defs>
      <use xlink:href="#DejaVuSerif-Italic-3b6" transform="translate(0 0.015625)"/>
      <use xlink:href="#DejaVuSerif-30" transform="translate(54.199219 -15.55625) scale(0.7)"/>
      <use xlink:href="#DejaVuSerif-2f" transform="translate(101.330664 0.015625)"/>
      <use xlink:href="#DejaVuSerif-Italic-52" transform="translate(135.02207 0.015625)"/>
      <use xlink:href="#DejaVuSerif-20" transform="translate(210.315039 0.015625)"/>
      <use xlink:href="#DejaVuSerif-3d" transform="translate(242.102148 0.015625)"/>
      <use xlink:href="#DejaVuSerif-20" transform="translate(325.891211 0.015625)"/>
      <use xlink:href="#DejaVuSerif-2d" transform="translate(357.67832 0.015625)"/>
      <use xlink:href="#DejaVuSerif-30" transform="translate(391.467383 0.015625)"/>
      <use xlink:href="#DejaVuSerif-2e" transform="translate(455.09043 0.015625)"/>
      <use xlink:href="#DejaVuSerif-30" transform="translate(486.877539 0.015625)"/>
      <use xlink:href="#DejaVuSerif-35" transform="translate(550.500586 0.015625)"/>
      <use xlink:href="#DejaVuSerif-2b" transform="translate(614.123633 0.015625)"/>
      <use xlink:href="#DejaVuSerif-30" transform="translate(697.912695 0.015625)"/>
      <use xlink:href="#DejaVuSerif-2e" transform="translate(761.535742 0.015625)"/>
      <use xlink:href="#DejaVuSerif-30" transform="translate(793.322852 0.015625)"/>
      <use xlink:href="#DejaVuSerif-69" transform="translate(856.945898 0.015625)"/>
     </g>
    </g>
    <g id="line2d_75">
     <path d="M 47.777656 366.947472 
L 64.777656 366.947472 
L 81.777656 366.947472 
" style="fill: none; stroke-dasharray: 5.55,2.4; stroke-dashoffset: 0; stroke: #000000; stroke-width: 1.5"/>
    </g>
    <g id="text_14">
     <!-- $\zeta_0 /R$ = -0.15+0.0i -->
     <g transform="translate(95.377656 372.897472) scale(0.17 -0.17)">
      <use xlink:href="#DejaVuSerif-Italic-3b6" transform="translate(0 0.015625)"/>
      <use xlink:href="#DejaVuSerif-30" transform="translate(54.199219 -15.55625) scale(0.7)"/>
      <use xlink:href="#DejaVuSerif-2f" transform="translate(101.330664 0.015625)"/>
      <use xlink:href="#DejaVuSerif-Italic-52" transform="translate(135.02207 0.015625)"/>
      <use xlink:href="#DejaVuSerif-20" transform="translate(210.315039 0.015625)"/>
      <use xlink:href="#DejaVuSerif-3d" transform="translate(242.102148 0.015625)"/>
      <use xlink:href="#DejaVuSerif-20" transform="translate(325.891211 0.015625)"/>
      <use xlink:href="#DejaVuSerif-2d" transform="translate(357.67832 0.015625)"/>
      <use xlink:href="#DejaVuSerif-30" transform="translate(391.467383 0.015625)"/>
      <use xlink:href="#DejaVuSerif-2e" transform="translate(455.09043 0.015625)"/>
      <use xlink:href="#DejaVuSerif-31" transform="translate(486.877539 0.015625)"/>
      <use xlink:href="#DejaVuSerif-35" transform="translate(550.500586 0.015625)"/>
      <use xlink:href="#DejaVuSerif-2b" transform="translate(614.123633 0.015625)"/>
      <use xlink:href="#DejaVuSerif-30" transform="translate(697.912695 0.015625)"/>
      <use xlink:href="#DejaVuSerif-2e" transform="translate(761.535742 0.015625)"/>
      <use xlink:href="#DejaVuSerif-30" transform="translate(793.322852 0.015625)"/>
      <use xlink:href="#DejaVuSerif-69" transform="translate(856.945898 0.015625)"/>
     </g>
    </g>
    <g id="line2d_76">
     <path d="M 280.507656 341.957472 
L 297.507656 341.957472 
L 314.507656 341.957472 
" style="fill: none; stroke-dasharray: 4.5,1.5,1.5,1.5; stroke-dashoffset: 0; stroke: #808080; stroke-width: 1.5"/>
    </g>
    <g id="text_15">
     <!-- $\zeta_0 /R$ = -0.1+0.0i -->
     <g transform="translate(328.107656 347.907472) scale(0.17 -0.17)">
      <use xlink:href="#DejaVuSerif-Italic-3b6" transform="translate(0 0.015625)"/>
      <use xlink:href="#DejaVuSerif-30" transform="translate(54.199219 -15.55625) scale(0.7)"/>
      <use xlink:href="#DejaVuSerif-2f" transform="translate(101.330664 0.015625)"/>
      <use xlink:href="#DejaVuSerif-Italic-52" transform="translate(135.02207 0.015625)"/>
      <use xlink:href="#DejaVuSerif-20" transform="translate(210.315039 0.015625)"/>
      <use xlink:href="#DejaVuSerif-3d" transform="translate(242.102148 0.015625)"/>
      <use xlink:href="#DejaVuSerif-20" transform="translate(325.891211 0.015625)"/>
      <use xlink:href="#DejaVuSerif-2d" transform="translate(357.67832 0.015625)"/>
      <use xlink:href="#DejaVuSerif-30" transform="translate(391.467383 0.015625)"/>
      <use xlink:href="#DejaVuSerif-2e" transform="translate(455.09043 0.015625)"/>
      <use xlink:href="#DejaVuSerif-31" transform="translate(486.877539 0.015625)"/>
      <use xlink:href="#DejaVuSerif-2b" transform="translate(550.500586 0.015625)"/>
      <use xlink:href="#DejaVuSerif-30" transform="translate(634.289648 0.015625)"/>
      <use xlink:href="#DejaVuSerif-2e" transform="translate(697.912695 0.015625)"/>
      <use xlink:href="#DejaVuSerif-30" transform="translate(729.699805 0.015625)"/>
      <use xlink:href="#DejaVuSerif-69" transform="translate(793.322852 0.015625)"/>
     </g>
    </g>
    <g id="line2d_77">
     <path d="M 280.507656 366.947472 
L 297.507656 366.947472 
L 314.507656 366.947472 
" style="fill: none; stroke: #808080; stroke-width: 1.5; stroke-linecap: square"/>
    </g>
    <g id="text_16">
     <!-- $\zeta_0 /R$ = -0.2+0.0i -->
     <g transform="translate(328.107656 372.897472) scale(0.17 -0.17)">
      <use xlink:href="#DejaVuSerif-Italic-3b6" transform="translate(0 0.015625)"/>
      <use xlink:href="#DejaVuSerif-30" transform="translate(54.199219 -15.55625) scale(0.7)"/>
      <use xlink:href="#DejaVuSerif-2f" transform="translate(101.330664 0.015625)"/>
      <use xlink:href="#DejaVuSerif-Italic-52" transform="translate(135.02207 0.015625)"/>
      <use xlink:href="#DejaVuSerif-20" transform="translate(210.315039 0.015625)"/>
      <use xlink:href="#DejaVuSerif-3d" transform="translate(242.102148 0.015625)"/>
      <use xlink:href="#DejaVuSerif-20" transform="translate(325.891211 0.015625)"/>
      <use xlink:href="#DejaVuSerif-2d" transform="translate(357.67832 0.015625)"/>
      <use xlink:href="#DejaVuSerif-30" transform="translate(391.467383 0.015625)"/>
      <use xlink:href="#DejaVuSerif-2e" transform="translate(455.09043 0.015625)"/>
      <use xlink:href="#DejaVuSerif-32" transform="translate(484.252539 0.015625)"/>
      <use xlink:href="#DejaVuSerif-2b" transform="translate(547.875586 0.015625)"/>
      <use xlink:href="#DejaVuSerif-30" transform="translate(631.664648 0.015625)"/>
      <use xlink:href="#DejaVuSerif-2e" transform="translate(695.287695 0.015625)"/>
      <use xlink:href="#DejaVuSerif-30" transform="translate(727.074805 0.015625)"/>
      <use xlink:href="#DejaVuSerif-69" transform="translate(790.697852 0.015625)"/>
     </g>
    </g>
   </g>
  </g>
 </g>
 <defs>
  <clipPath id="p97fadce011">
   <rect x="79.592656" y="13.658672" width="357.12" height="266.112"/>
  </clipPath>
 </defs>
</svg>
