<?xml version="1.0" encoding="utf-8" standalone="no"?>
<!DOCTYPE svg PUBLIC "-//W3C//DTD SVG 1.1//EN"
  "http://www.w3.org/Graphics/SVG/1.1/DTD/svg11.dtd">
<svg xmlns:xlink="http://www.w3.org/1999/xlink" width="460.8pt" height="345.6pt" viewBox="0 0 460.8 345.6" xmlns="http://www.w3.org/2000/svg" version="1.1">
 <metadata>
  <rdf:RDF xmlns:dc="http://purl.org/dc/elements/1.1/" xmlns:cc="http://creativecommons.org/ns#" xmlns:rdf="http://www.w3.org/1999/02/22-rdf-syntax-ns#">
   <cc:Work>
    <dc:type rdf:resource="http://purl.org/dc/dcmitype/StillImage"/>
    <dc:date>2025-09-03T23:20:54.462745</dc:date>
    <dc:format>image/svg+xml</dc:format>
    <dc:creator>
     <cc:Agent>
      <dc:title>Matplotlib v3.9.2, https://matplotlib.org/</dc:title>
     </cc:Agent>
    </dc:creator>
   </cc:Work>
  </rdf:RDF>
 </metadata>
 <defs>
  <style type="text/css">*{stroke-linejoin: round; stroke-linecap: butt}</style>
 </defs>
 <g id="figure_1">
  <g id="patch_1">
   <path d="M 0 345.6 
L 460.8 345.6 
L 460.8 0 
L 0 0 
z
" style="fill: #ffffff"/>
  </g>
  <g id="axes_1">
   <g id="patch_2">
    <path d="M 103.104 307.584 
L 369.216 307.584 
L 369.216 41.472 
L 103.104 41.472 
z
" style="fill: #ffffff"/>
   </g>
   <g id="PathCollection_1">
    <defs>
     <path id="m8c71ed37b1" d="M 0 1.936492 
C 0.513564 1.936492 1.006162 1.732451 1.369306 1.369306 
C 1.732451 1.006162 1.936492 0.513564 1.936492 0 
C 1.936492 -0.513564 1.732451 -1.006162 1.369306 -1.369306 
C 1.006162 -1.732451 0.513564 -1.936492 0 -1.936492 
C -0.513564 -1.936492 -1.006162 -1.732451 -1.369306 -1.369306 
C -1.732451 -1.006162 -1.936492 -0.513564 -1.936492 0 
C -1.936492 0.513564 -1.732451 1.006162 -1.369306 1.369306 
C -1.006162 1.732451 -0.513564 1.936492 0 1.936492 
z
" style="stroke: #000000"/>
    </defs>
    <g clip-path="url(#pbbc02c618c)">
     <use xlink:href="#m8c71ed37b1" x="229.5072" y="174.528" style="stroke: #000000"/>
    </g>
   </g>
   <g id="matplotlib.axis_1">
    <g id="xtick_1">
     <g id="line2d_1">
      <defs>
       <path id="m33a3ae6333" d="M 0 0 
L 0 -5 
" style="stroke: #000000; stroke-width: 0.75"/>
      </defs>
      <g>
       <use xlink:href="#m33a3ae6333" x="169.632" y="307.584" style="stroke: #000000; stroke-width: 0.75"/>
      </g>
     </g>
     <g id="line2d_2">
      <defs>
       <path id="m1dce5ebb4e" d="M 0 0 
L 0 5 
" style="stroke: #000000; stroke-width: 0.75"/>
      </defs>
      <g>
       <use xlink:href="#m1dce5ebb4e" x="169.632" y="41.472" style="stroke: #000000; stroke-width: 0.75"/>
      </g>
     </g>
     <g id="text_1">
      <!-- −1 -->
      <g transform="translate(157.101141 324.001344) scale(0.17 -0.17)">
       <defs>
        <path id="DejaVuSerif-2212" d="M 678 2259 
L 4684 2259 
L 4684 1753 
L 678 1753 
L 678 2259 
z
" transform="scale(0.015625)"/>
        <path id="DejaVuSerif-31" d="M 909 0 
L 909 331 
L 1722 331 
L 1722 4213 
L 781 3603 
L 781 4013 
L 1919 4750 
L 2350 4750 
L 2350 331 
L 3163 331 
L 3163 0 
L 909 0 
z
" transform="scale(0.015625)"/>
       </defs>
       <use xlink:href="#DejaVuSerif-2212"/>
       <use xlink:href="#DejaVuSerif-31" x="83.789062"/>
      </g>
     </g>
    </g>
    <g id="xtick_2">
     <g id="line2d_3">
      <g>
       <use xlink:href="#m33a3ae6333" x="236.16" y="307.584" style="stroke: #000000; stroke-width: 0.75"/>
      </g>
     </g>
     <g id="line2d_4">
      <g>
       <use xlink:href="#m1dce5ebb4e" x="236.16" y="41.472" style="stroke: #000000; stroke-width: 0.75"/>
      </g>
     </g>
     <g id="text_2">
      <!-- 0 -->
      <g transform="translate(230.751875 324.001344) scale(0.17 -0.17)">
       <defs>
        <path id="DejaVuSerif-30" d="M 2034 219 
Q 2513 219 2750 744 
Q 2988 1269 2988 2328 
Q 2988 3391 2750 3916 
Q 2513 4441 2034 4441 
Q 1556 4441 1318 3916 
Q 1081 3391 1081 2328 
Q 1081 1269 1318 744 
Q 1556 219 2034 219 
z
M 2034 -91 
Q 1275 -91 848 546 
Q 422 1184 422 2328 
Q 422 3475 848 4112 
Q 1275 4750 2034 4750 
Q 2797 4750 3222 4112 
Q 3647 3475 3647 2328 
Q 3647 1184 3222 546 
Q 2797 -91 2034 -91 
z
" transform="scale(0.015625)"/>
       </defs>
       <use xlink:href="#DejaVuSerif-30"/>
      </g>
     </g>
    </g>
    <g id="xtick_3">
     <g id="line2d_5">
      <g>
       <use xlink:href="#m33a3ae6333" x="302.688" y="307.584" style="stroke: #000000; stroke-width: 0.75"/>
      </g>
     </g>
     <g id="line2d_6">
      <g>
       <use xlink:href="#m1dce5ebb4e" x="302.688" y="41.472" style="stroke: #000000; stroke-width: 0.75"/>
      </g>
     </g>
     <g id="text_3">
      <!-- 1 -->
      <g transform="translate(297.279875 324.001344) scale(0.17 -0.17)">
       <use xlink:href="#DejaVuSerif-31"/>
      </g>
     </g>
    </g>
    <g id="xtick_4">
     <g id="line2d_7">
      <g>
       <use xlink:href="#m33a3ae6333" x="369.216" y="307.584" style="stroke: #000000; stroke-width: 0.75"/>
      </g>
     </g>
     <g id="line2d_8">
      <g>
       <use xlink:href="#m1dce5ebb4e" x="369.216" y="41.472" style="stroke: #000000; stroke-width: 0.75"/>
      </g>
     </g>
     <g id="text_4">
      <!-- 2 -->
      <g transform="translate(363.807875 324.001344) scale(0.17 -0.17)">
       <defs>
        <path id="DejaVuSerif-32" d="M 819 3553 
L 469 3553 
L 469 4384 
Q 803 4563 1142 4656 
Q 1481 4750 1806 4750 
Q 2534 4750 2956 4397 
Q 3378 4044 3378 3438 
Q 3378 2753 2422 1800 
Q 2347 1728 2309 1691 
L 1131 513 
L 3078 513 
L 3078 1088 
L 3444 1088 
L 3444 0 
L 434 0 
L 434 341 
L 1850 1753 
Q 2319 2222 2519 2614 
Q 2719 3006 2719 3438 
Q 2719 3909 2473 4175 
Q 2228 4441 1797 4441 
Q 1350 4441 1106 4219 
Q 863 3997 819 3553 
z
" transform="scale(0.015625)"/>
       </defs>
       <use xlink:href="#DejaVuSerif-32"/>
      </g>
     </g>
    </g>
    <g id="xtick_5">
     <g id="line2d_9">
      <defs>
       <path id="me3b35f8482" d="M 0 0 
L 0 -2.5 
" style="stroke: #000000; stroke-width: 0.75"/>
      </defs>
      <g>
       <use xlink:href="#me3b35f8482" x="103.104" y="307.584" style="stroke: #000000; stroke-width: 0.75"/>
      </g>
     </g>
     <g id="line2d_10">
      <defs>
       <path id="m71a48e81d4" d="M 0 0 
L 0 2.5 
" style="stroke: #000000; stroke-width: 0.75"/>
      </defs>
      <g>
       <use xlink:href="#m71a48e81d4" x="103.104" y="41.472" style="stroke: #000000; stroke-width: 0.75"/>
      </g>
     </g>
    </g>
    <g id="xtick_6">
     <g id="line2d_11">
      <g>
       <use xlink:href="#me3b35f8482" x="116.4096" y="307.584" style="stroke: #000000; stroke-width: 0.75"/>
      </g>
     </g>
     <g id="line2d_12">
      <g>
       <use xlink:href="#m71a48e81d4" x="116.4096" y="41.472" style="stroke: #000000; stroke-width: 0.75"/>
      </g>
     </g>
    </g>
    <g id="xtick_7">
     <g id="line2d_13">
      <g>
       <use xlink:href="#me3b35f8482" x="129.7152" y="307.584" style="stroke: #000000; stroke-width: 0.75"/>
      </g>
     </g>
     <g id="line2d_14">
      <g>
       <use xlink:href="#m71a48e81d4" x="129.7152" y="41.472" style="stroke: #000000; stroke-width: 0.75"/>
      </g>
     </g>
    </g>
    <g id="xtick_8">
     <g id="line2d_15">
      <g>
       <use xlink:href="#me3b35f8482" x="143.0208" y="307.584" style="stroke: #000000; stroke-width: 0.75"/>
      </g>
     </g>
     <g id="line2d_16">
      <g>
       <use xlink:href="#m71a48e81d4" x="143.0208" y="41.472" style="stroke: #000000; stroke-width: 0.75"/>
      </g>
     </g>
    </g>
    <g id="xtick_9">
     <g id="line2d_17">
      <g>
       <use xlink:href="#me3b35f8482" x="156.3264" y="307.584" style="stroke: #000000; stroke-width: 0.75"/>
      </g>
     </g>
     <g id="line2d_18">
      <g>
       <use xlink:href="#m71a48e81d4" x="156.3264" y="41.472" style="stroke: #000000; stroke-width: 0.75"/>
      </g>
     </g>
    </g>
    <g id="xtick_10">
     <g id="line2d_19">
      <g>
       <use xlink:href="#me3b35f8482" x="182.9376" y="307.584" style="stroke: #000000; stroke-width: 0.75"/>
      </g>
     </g>
     <g id="line2d_20">
      <g>
       <use xlink:href="#m71a48e81d4" x="182.9376" y="41.472" style="stroke: #000000; stroke-width: 0.75"/>
      </g>
     </g>
    </g>
    <g id="xtick_11">
     <g id="line2d_21">
      <g>
       <use xlink:href="#me3b35f8482" x="196.2432" y="307.584" style="stroke: #000000; stroke-width: 0.75"/>
      </g>
     </g>
     <g id="line2d_22">
      <g>
       <use xlink:href="#m71a48e81d4" x="196.2432" y="41.472" style="stroke: #000000; stroke-width: 0.75"/>
      </g>
     </g>
    </g>
    <g id="xtick_12">
     <g id="line2d_23">
      <g>
       <use xlink:href="#me3b35f8482" x="209.5488" y="307.584" style="stroke: #000000; stroke-width: 0.75"/>
      </g>
     </g>
     <g id="line2d_24">
      <g>
       <use xlink:href="#m71a48e81d4" x="209.5488" y="41.472" style="stroke: #000000; stroke-width: 0.75"/>
      </g>
     </g>
    </g>
    <g id="xtick_13">
     <g id="line2d_25">
      <g>
       <use xlink:href="#me3b35f8482" x="222.8544" y="307.584" style="stroke: #000000; stroke-width: 0.75"/>
      </g>
     </g>
     <g id="line2d_26">
      <g>
       <use xlink:href="#m71a48e81d4" x="222.8544" y="41.472" style="stroke: #000000; stroke-width: 0.75"/>
      </g>
     </g>
    </g>
    <g id="xtick_14">
     <g id="line2d_27">
      <g>
       <use xlink:href="#me3b35f8482" x="249.4656" y="307.584" style="stroke: #000000; stroke-width: 0.75"/>
      </g>
     </g>
     <g id="line2d_28">
      <g>
       <use xlink:href="#m71a48e81d4" x="249.4656" y="41.472" style="stroke: #000000; stroke-width: 0.75"/>
      </g>
     </g>
    </g>
    <g id="xtick_15">
     <g id="line2d_29">
      <g>
       <use xlink:href="#me3b35f8482" x="262.7712" y="307.584" style="stroke: #000000; stroke-width: 0.75"/>
      </g>
     </g>
     <g id="line2d_30">
      <g>
       <use xlink:href="#m71a48e81d4" x="262.7712" y="41.472" style="stroke: #000000; stroke-width: 0.75"/>
      </g>
     </g>
    </g>
    <g id="xtick_16">
     <g id="line2d_31">
      <g>
       <use xlink:href="#me3b35f8482" x="276.0768" y="307.584" style="stroke: #000000; stroke-width: 0.75"/>
      </g>
     </g>
     <g id="line2d_32">
      <g>
       <use xlink:href="#m71a48e81d4" x="276.0768" y="41.472" style="stroke: #000000; stroke-width: 0.75"/>
      </g>
     </g>
    </g>
    <g id="xtick_17">
     <g id="line2d_33">
      <g>
       <use xlink:href="#me3b35f8482" x="289.3824" y="307.584" style="stroke: #000000; stroke-width: 0.75"/>
      </g>
     </g>
     <g id="line2d_34">
      <g>
       <use xlink:href="#m71a48e81d4" x="289.3824" y="41.472" style="stroke: #000000; stroke-width: 0.75"/>
      </g>
     </g>
    </g>
    <g id="xtick_18">
     <g id="line2d_35">
      <g>
       <use xlink:href="#me3b35f8482" x="315.9936" y="307.584" style="stroke: #000000; stroke-width: 0.75"/>
      </g>
     </g>
     <g id="line2d_36">
      <g>
       <use xlink:href="#m71a48e81d4" x="315.9936" y="41.472" style="stroke: #000000; stroke-width: 0.75"/>
      </g>
     </g>
    </g>
    <g id="xtick_19">
     <g id="line2d_37">
      <g>
       <use xlink:href="#me3b35f8482" x="329.2992" y="307.584" style="stroke: #000000; stroke-width: 0.75"/>
      </g>
     </g>
     <g id="line2d_38">
      <g>
       <use xlink:href="#m71a48e81d4" x="329.2992" y="41.472" style="stroke: #000000; stroke-width: 0.75"/>
      </g>
     </g>
    </g>
    <g id="xtick_20">
     <g id="line2d_39">
      <g>
       <use xlink:href="#me3b35f8482" x="342.6048" y="307.584" style="stroke: #000000; stroke-width: 0.75"/>
      </g>
     </g>
     <g id="line2d_40">
      <g>
       <use xlink:href="#m71a48e81d4" x="342.6048" y="41.472" style="stroke: #000000; stroke-width: 0.75"/>
      </g>
     </g>
    </g>
    <g id="xtick_21">
     <g id="line2d_41">
      <g>
       <use xlink:href="#me3b35f8482" x="355.9104" y="307.584" style="stroke: #000000; stroke-width: 0.75"/>
      </g>
     </g>
     <g id="line2d_42">
      <g>
       <use xlink:href="#m71a48e81d4" x="355.9104" y="41.472" style="stroke: #000000; stroke-width: 0.75"/>
      </g>
     </g>
    </g>
    <g id="text_5">
     <!-- $Real$/$R$ -->
     <g transform="translate(207.6 340.455156) scale(0.17 -0.17)">
      <defs>
       <path id="DejaVuSerif-Italic-52" d="M 3066 2316 
Q 3272 2256 3403 2114 
Q 3534 1972 3609 1716 
L 4016 331 
L 4584 331 
L 4522 0 
L 3422 0 
L 2981 1484 
Q 2856 1916 2706 2042 
Q 2556 2169 2250 2169 
L 1553 2169 
L 1194 331 
L 1853 331 
L 1791 0 
L -97 0 
L -34 331 
L 559 331 
L 1338 4331 
L 744 4331 
L 809 4666 
L 3175 4666 
Q 3856 4666 4164 4341 
Q 4472 4016 4356 3419 
Q 4263 2938 3938 2661 
Q 3613 2384 3066 2316 
z
M 1619 2503 
L 2541 2503 
Q 3013 2503 3280 2726 
Q 3547 2950 3639 3419 
Q 3731 3888 3548 4109 
Q 3366 4331 2894 4331 
L 1972 4331 
L 1619 2503 
z
" transform="scale(0.015625)"/>
       <path id="DejaVuSerif-Italic-65" d="M 938 1275 
Q 925 1156 925 1050 
Q 925 756 1031 563 
Q 1216 219 1709 219 
Q 2072 219 2250 328 
Q 2569 525 2644 778 
L 3066 778 
Q 2941 381 2475 103 
Q 2150 -91 1506 -91 
Q 863 -91 516 388 
Q 272 722 272 1206 
Q 272 1419 319 1659 
Q 472 2450 1000 2931 
Q 1528 3413 2278 3413 
Q 3500 3413 3500 2547 
Q 3500 1913 2859 1603 
Q 2206 1288 938 1275 
z
M 2541 1975 
Q 2891 2181 2891 2569 
Q 2891 3103 2181 3103 
Q 1763 3103 1472 2784 
Q 1181 2466 1003 1606 
Q 2006 1653 2541 1975 
z
" transform="scale(0.015625)"/>
       <path id="DejaVuSerif-Italic-61" d="M 2325 519 
Q 1909 -91 1238 -91 
Q 688 -91 409 281 
Q 216 544 216 919 
Q 216 1078 250 1256 
Q 463 2359 1231 2928 
Q 1884 3413 2675 3413 
Q 3206 3413 3388 3322 
L 2806 331 
L 3300 331 
L 3238 0 
L 2225 0 
L 2325 519 
z
M 822 938 
Q 822 269 1469 269 
Q 1863 269 2130 583 
Q 2397 897 2516 1497 
L 2806 3003 
L 2806 3003 
Q 2806 3094 2556 3094 
Q 1956 3094 1491 2625 
Q 1028 2153 863 1297 
Q 822 1097 822 938 
z
" transform="scale(0.015625)"/>
       <path id="DejaVuSerif-Italic-6c" d="M 903 331 
L 1447 331 
L 1384 0 
L 266 0 
L 1147 4531 
L 594 4531 
L 656 4863 
L 1784 4863 
L 903 331 
z
" transform="scale(0.015625)"/>
       <path id="DejaVuSerif-2f" d="M 1656 4666 
L 2156 4666 
L 500 -594 
L 0 -594 
L 1656 4666 
z
" transform="scale(0.015625)"/>
      </defs>
      <use xlink:href="#DejaVuSerif-Italic-52" transform="translate(0 0.015625)"/>
      <use xlink:href="#DejaVuSerif-Italic-65" transform="translate(75.292969 0.015625)"/>
      <use xlink:href="#DejaVuSerif-Italic-61" transform="translate(134.472656 0.015625)"/>
      <use xlink:href="#DejaVuSerif-Italic-6c" transform="translate(194.091797 0.015625)"/>
      <use xlink:href="#DejaVuSerif-2f" transform="translate(226.074219 0.015625)"/>
      <use xlink:href="#DejaVuSerif-Italic-52" transform="translate(259.765625 0.015625)"/>
     </g>
    </g>
   </g>
   <g id="matplotlib.axis_2">
    <g id="ytick_1">
     <g id="line2d_43">
      <defs>
       <path id="m157569f633" d="M 0 0 
L 5 0 
" style="stroke: #000000; stroke-width: 0.75"/>
      </defs>
      <g>
       <use xlink:href="#m157569f633" x="103.104" y="241.056" style="stroke: #000000; stroke-width: 0.75"/>
      </g>
     </g>
     <g id="line2d_44">
      <defs>
       <path id="md6bec0c1d3" d="M 0 0 
L -5 0 
" style="stroke: #000000; stroke-width: 0.75"/>
      </defs>
      <g>
       <use xlink:href="#md6bec0c1d3" x="369.216" y="241.056" style="stroke: #000000; stroke-width: 0.75"/>
      </g>
     </g>
     <g id="text_6">
      <!-- −1 -->
      <g transform="translate(74.542281 247.514672) scale(0.17 -0.17)">
       <use xlink:href="#DejaVuSerif-2212"/>
       <use xlink:href="#DejaVuSerif-31" x="83.789062"/>
      </g>
     </g>
    </g>
    <g id="ytick_2">
     <g id="line2d_45">
      <g>
       <use xlink:href="#m157569f633" x="103.104" y="174.528" style="stroke: #000000; stroke-width: 0.75"/>
      </g>
     </g>
     <g id="line2d_46">
      <g>
       <use xlink:href="#md6bec0c1d3" x="369.216" y="174.528" style="stroke: #000000; stroke-width: 0.75"/>
      </g>
     </g>
     <g id="text_7">
      <!-- 0 -->
      <g transform="translate(88.78775 180.986672) scale(0.17 -0.17)">
       <use xlink:href="#DejaVuSerif-30"/>
      </g>
     </g>
    </g>
    <g id="ytick_3">
     <g id="line2d_47">
      <g>
       <use xlink:href="#m157569f633" x="103.104" y="108" style="stroke: #000000; stroke-width: 0.75"/>
      </g>
     </g>
     <g id="line2d_48">
      <g>
       <use xlink:href="#md6bec0c1d3" x="369.216" y="108" style="stroke: #000000; stroke-width: 0.75"/>
      </g>
     </g>
     <g id="text_8">
      <!-- 1 -->
      <g transform="translate(88.78775 114.458672) scale(0.17 -0.17)">
       <use xlink:href="#DejaVuSerif-31"/>
      </g>
     </g>
    </g>
    <g id="ytick_4">
     <g id="line2d_49">
      <g>
       <use xlink:href="#m157569f633" x="103.104" y="41.472" style="stroke: #000000; stroke-width: 0.75"/>
      </g>
     </g>
     <g id="line2d_50">
      <g>
       <use xlink:href="#md6bec0c1d3" x="369.216" y="41.472" style="stroke: #000000; stroke-width: 0.75"/>
      </g>
     </g>
     <g id="text_9">
      <!-- 2 -->
      <g transform="translate(88.78775 47.930672) scale(0.17 -0.17)">
       <use xlink:href="#DejaVuSerif-32"/>
      </g>
     </g>
    </g>
    <g id="ytick_5">
     <g id="line2d_51">
      <defs>
       <path id="m6d8be04b09" d="M 0 0 
L 2.5 0 
" style="stroke: #000000; stroke-width: 0.75"/>
      </defs>
      <g>
       <use xlink:href="#m6d8be04b09" x="103.104" y="307.584" style="stroke: #000000; stroke-width: 0.75"/>
      </g>
     </g>
     <g id="line2d_52">
      <defs>
       <path id="m94c8687c78" d="M 0 0 
L -2.5 0 
" style="stroke: #000000; stroke-width: 0.75"/>
      </defs>
      <g>
       <use xlink:href="#m94c8687c78" x="369.216" y="307.584" style="stroke: #000000; stroke-width: 0.75"/>
      </g>
     </g>
    </g>
    <g id="ytick_6">
     <g id="line2d_53">
      <g>
       <use xlink:href="#m6d8be04b09" x="103.104" y="294.2784" style="stroke: #000000; stroke-width: 0.75"/>
      </g>
     </g>
     <g id="line2d_54">
      <g>
       <use xlink:href="#m94c8687c78" x="369.216" y="294.2784" style="stroke: #000000; stroke-width: 0.75"/>
      </g>
     </g>
    </g>
    <g id="ytick_7">
     <g id="line2d_55">
      <g>
       <use xlink:href="#m6d8be04b09" x="103.104" y="280.9728" style="stroke: #000000; stroke-width: 0.75"/>
      </g>
     </g>
     <g id="line2d_56">
      <g>
       <use xlink:href="#m94c8687c78" x="369.216" y="280.9728" style="stroke: #000000; stroke-width: 0.75"/>
      </g>
     </g>
    </g>
    <g id="ytick_8">
     <g id="line2d_57">
      <g>
       <use xlink:href="#m6d8be04b09" x="103.104" y="267.6672" style="stroke: #000000; stroke-width: 0.75"/>
      </g>
     </g>
     <g id="line2d_58">
      <g>
       <use xlink:href="#m94c8687c78" x="369.216" y="267.6672" style="stroke: #000000; stroke-width: 0.75"/>
      </g>
     </g>
    </g>
    <g id="ytick_9">
     <g id="line2d_59">
      <g>
       <use xlink:href="#m6d8be04b09" x="103.104" y="254.3616" style="stroke: #000000; stroke-width: 0.75"/>
      </g>
     </g>
     <g id="line2d_60">
      <g>
       <use xlink:href="#m94c8687c78" x="369.216" y="254.3616" style="stroke: #000000; stroke-width: 0.75"/>
      </g>
     </g>
    </g>
    <g id="ytick_10">
     <g id="line2d_61">
      <g>
       <use xlink:href="#m6d8be04b09" x="103.104" y="227.7504" style="stroke: #000000; stroke-width: 0.75"/>
      </g>
     </g>
     <g id="line2d_62">
      <g>
       <use xlink:href="#m94c8687c78" x="369.216" y="227.7504" style="stroke: #000000; stroke-width: 0.75"/>
      </g>
     </g>
    </g>
    <g id="ytick_11">
     <g id="line2d_63">
      <g>
       <use xlink:href="#m6d8be04b09" x="103.104" y="214.4448" style="stroke: #000000; stroke-width: 0.75"/>
      </g>
     </g>
     <g id="line2d_64">
      <g>
       <use xlink:href="#m94c8687c78" x="369.216" y="214.4448" style="stroke: #000000; stroke-width: 0.75"/>
      </g>
     </g>
    </g>
    <g id="ytick_12">
     <g id="line2d_65">
      <g>
       <use xlink:href="#m6d8be04b09" x="103.104" y="201.1392" style="stroke: #000000; stroke-width: 0.75"/>
      </g>
     </g>
     <g id="line2d_66">
      <g>
       <use xlink:href="#m94c8687c78" x="369.216" y="201.1392" style="stroke: #000000; stroke-width: 0.75"/>
      </g>
     </g>
    </g>
    <g id="ytick_13">
     <g id="line2d_67">
      <g>
       <use xlink:href="#m6d8be04b09" x="103.104" y="187.8336" style="stroke: #000000; stroke-width: 0.75"/>
      </g>
     </g>
     <g id="line2d_68">
      <g>
       <use xlink:href="#m94c8687c78" x="369.216" y="187.8336" style="stroke: #000000; stroke-width: 0.75"/>
      </g>
     </g>
    </g>
    <g id="ytick_14">
     <g id="line2d_69">
      <g>
       <use xlink:href="#m6d8be04b09" x="103.104" y="161.2224" style="stroke: #000000; stroke-width: 0.75"/>
      </g>
     </g>
     <g id="line2d_70">
      <g>
       <use xlink:href="#m94c8687c78" x="369.216" y="161.2224" style="stroke: #000000; stroke-width: 0.75"/>
      </g>
     </g>
    </g>
    <g id="ytick_15">
     <g id="line2d_71">
      <g>
       <use xlink:href="#m6d8be04b09" x="103.104" y="147.9168" style="stroke: #000000; stroke-width: 0.75"/>
      </g>
     </g>
     <g id="line2d_72">
      <g>
       <use xlink:href="#m94c8687c78" x="369.216" y="147.9168" style="stroke: #000000; stroke-width: 0.75"/>
      </g>
     </g>
    </g>
    <g id="ytick_16">
     <g id="line2d_73">
      <g>
       <use xlink:href="#m6d8be04b09" x="103.104" y="134.6112" style="stroke: #000000; stroke-width: 0.75"/>
      </g>
     </g>
     <g id="line2d_74">
      <g>
       <use xlink:href="#m94c8687c78" x="369.216" y="134.6112" style="stroke: #000000; stroke-width: 0.75"/>
      </g>
     </g>
    </g>
    <g id="ytick_17">
     <g id="line2d_75">
      <g>
       <use xlink:href="#m6d8be04b09" x="103.104" y="121.3056" style="stroke: #000000; stroke-width: 0.75"/>
      </g>
     </g>
     <g id="line2d_76">
      <g>
       <use xlink:href="#m94c8687c78" x="369.216" y="121.3056" style="stroke: #000000; stroke-width: 0.75"/>
      </g>
     </g>
    </g>
    <g id="ytick_18">
     <g id="line2d_77">
      <g>
       <use xlink:href="#m6d8be04b09" x="103.104" y="94.6944" style="stroke: #000000; stroke-width: 0.75"/>
      </g>
     </g>
     <g id="line2d_78">
      <g>
       <use xlink:href="#m94c8687c78" x="369.216" y="94.6944" style="stroke: #000000; stroke-width: 0.75"/>
      </g>
     </g>
    </g>
    <g id="ytick_19">
     <g id="line2d_79">
      <g>
       <use xlink:href="#m6d8be04b09" x="103.104" y="81.3888" style="stroke: #000000; stroke-width: 0.75"/>
      </g>
     </g>
     <g id="line2d_80">
      <g>
       <use xlink:href="#m94c8687c78" x="369.216" y="81.3888" style="stroke: #000000; stroke-width: 0.75"/>
      </g>
     </g>
    </g>
    <g id="ytick_20">
     <g id="line2d_81">
      <g>
       <use xlink:href="#m6d8be04b09" x="103.104" y="68.0832" style="stroke: #000000; stroke-width: 0.75"/>
      </g>
     </g>
     <g id="line2d_82">
      <g>
       <use xlink:href="#m94c8687c78" x="369.216" y="68.0832" style="stroke: #000000; stroke-width: 0.75"/>
      </g>
     </g>
    </g>
    <g id="ytick_21">
     <g id="line2d_83">
      <g>
       <use xlink:href="#m6d8be04b09" x="103.104" y="54.7776" style="stroke: #000000; stroke-width: 0.75"/>
      </g>
     </g>
     <g id="line2d_84">
      <g>
       <use xlink:href="#m94c8687c78" x="369.216" y="54.7776" style="stroke: #000000; stroke-width: 0.75"/>
      </g>
     </g>
    </g>
    <g id="text_10">
     <!-- $Imag$/$R$ -->
     <g transform="translate(80.632281 205.723) rotate(-90) scale(0.17 -0.17)">
      <defs>
       <path id="DejaVuSerif-Italic-49" d="M 1194 331 
L 1788 331 
L 1725 0 
L -97 0 
L -34 331 
L 559 331 
L 1338 4331 
L 744 4331 
L 809 4666 
L 2631 4666 
L 2566 4331 
L 1972 4331 
L 1194 331 
z
" transform="scale(0.015625)"/>
       <path id="DejaVuSerif-Italic-6d" d="M 3503 2675 
Q 3741 3041 4034 3227 
Q 4328 3413 4672 3413 
Q 5194 3413 5388 3088 
Q 5503 2894 5503 2578 
Q 5503 2372 5453 2113 
L 5106 331 
L 5625 331 
L 5563 0 
L 4469 0 
L 4866 2047 
Q 4913 2291 4913 2466 
Q 4913 2659 4856 2772 
Q 4750 2988 4403 2988 
Q 4019 2988 3761 2697 
Q 3503 2406 3394 1850 
L 3034 0 
L 2459 0 
L 2863 2069 
Q 2906 2303 2906 2472 
Q 2906 2666 2850 2775 
Q 2741 2988 2394 2988 
Q 2009 2988 1751 2697 
Q 1494 2406 1384 1850 
L 1025 0 
L 450 0 
L 1031 2994 
L 481 2994 
L 544 3322 
L 1669 3322 
L 1556 2731 
Q 1778 3063 2059 3238 
Q 2341 3413 2653 3413 
Q 3041 3413 3262 3220 
Q 3484 3028 3503 2675 
z
" transform="scale(0.015625)"/>
       <path id="DejaVuSerif-Italic-67" d="M 3822 3322 
L 3188 72 
Q 3044 -672 2581 -1031 
Q 2078 -1422 1381 -1422 
Q 1053 -1422 765 -1362 
Q 478 -1303 225 -1184 
L 363 -488 
L 663 -488 
Q 653 -813 834 -963 
Q 1016 -1113 1406 -1113 
Q 1913 -1113 2203 -825 
Q 2494 -544 2613 72 
L 2700 519 
Q 2472 206 2181 57 
Q 1891 -91 1525 -91 
Q 975 -91 697 281 
Q 522 516 503 841 
Q 491 1031 534 1256 
Q 750 2359 1516 2928 
Q 2169 3409 2931 3413 
Q 3631 3416 3822 3322 
z
M 3184 2988 
Q 3181 3094 2844 3094 
Q 2234 3094 1775 2625 
Q 1316 2153 1147 1297 
Q 1100 1044 1113 853 
Q 1125 659 1203 528 
Q 1356 269 1756 269 
Q 2194 269 2484 583 
Q 2775 897 2891 1497 
L 2953 1825 
L 3184 2988 
z
" transform="scale(0.015625)"/>
      </defs>
      <use xlink:href="#DejaVuSerif-Italic-49" transform="translate(0 0.09375)"/>
      <use xlink:href="#DejaVuSerif-Italic-6d" transform="translate(39.501953 0.09375)"/>
      <use xlink:href="#DejaVuSerif-Italic-61" transform="translate(134.326172 0.09375)"/>
      <use xlink:href="#DejaVuSerif-Italic-67" transform="translate(193.945312 0.09375)"/>
      <use xlink:href="#DejaVuSerif-2f" transform="translate(257.958984 0.09375)"/>
      <use xlink:href="#DejaVuSerif-Italic-52" transform="translate(291.650391 0.09375)"/>
     </g>
    </g>
   </g>
   <g id="line2d_85">
    <path d="M 103.104 174.528 
L 369.216 174.528 
" clip-path="url(#pbbc02c618c)" style="fill: none; stroke: #808080; stroke-linecap: square"/>
   </g>
   <g id="line2d_86">
    <path d="M 236.16 307.584 
L 236.16 41.472 
" clip-path="url(#pbbc02c618c)" style="fill: none; stroke: #808080; stroke-linecap: square"/>
   </g>
   <g id="line2d_87">
    <path d="M 296.0352 174.528 
L 295.928858 178.288065 
L 295.610173 182.03611 
L 295.080164 185.760151 
L 294.340524 189.448285 
L 293.393618 193.08872 
L 292.242474 196.669819 
L 290.890772 200.180132 
L 289.342833 203.608438 
L 287.603605 206.943776 
L 285.678648 210.175485 
L 283.574117 213.293232 
L 281.29674 216.287051 
L 278.853797 219.14737 
L 276.253097 221.865046 
L 273.502956 224.431389 
L 270.612164 226.838197 
L 267.589964 229.077774 
L 264.446018 231.142961 
L 261.190375 233.027155 
L 257.833445 234.724334 
L 254.385958 236.229071 
L 250.858936 237.536556 
L 247.263656 238.642609 
L 243.611609 239.543694 
L 239.914472 240.23693 
L 236.184064 240.720101 
L 232.432311 240.991663 
L 228.671206 241.050747 
L 224.912775 240.897165 
L 221.169031 240.531407 
L 217.451943 239.954643 
L 213.773395 239.168716 
L 210.145146 238.176139 
L 206.578796 236.980086 
L 203.085745 235.58438 
L 199.677161 233.993482 
L 196.363941 232.21248 
L 193.156677 230.247065 
L 190.065621 228.103523 
L 187.100657 225.788705 
L 184.271262 223.310012 
L 181.586481 220.675367 
L 179.054898 217.893194 
L 176.684607 214.972387 
L 174.483184 211.922283 
L 172.457667 208.752633 
L 170.614531 205.473571 
L 168.95967 202.095579 
L 167.498373 198.629456 
L 166.235312 195.086283 
L 165.174525 191.477387 
L 164.319403 187.814306 
L 163.67268 184.108749 
L 163.236423 180.372564 
L 163.012028 176.617695 
L 163.00021 172.856145 
L 163.201009 169.09994 
L 163.613782 165.361088 
L 164.23721 161.651541 
L 165.069299 157.983159 
L 166.10739 154.36767 
L 167.348164 150.816631 
L 168.787654 147.341394 
L 170.421258 143.953071 
L 172.243754 140.662493 
L 174.249316 137.480179 
L 176.431532 134.416303 
L 178.783425 131.480661 
L 181.297477 128.682637 
L 183.96565 126.031175 
L 186.779415 123.534753 
L 189.729777 121.201352 
L 192.807304 119.03843 
L 196.002156 117.052903 
L 199.30412 115.251118 
L 202.702641 113.638835 
L 206.186853 112.221209 
L 209.745618 111.002772 
L 213.367558 109.987418 
L 217.041096 109.178394 
L 220.754486 108.578286 
L 224.495858 108.189013 
L 228.253251 108.011819 
L 232.014652 108.04727 
L 235.768038 108.295254 
L 239.501408 108.754977 
L 243.202828 109.42497 
L 246.860464 110.30309 
L 250.462623 111.386532 
L 253.99779 112.67183 
L 257.454663 114.154876 
L 260.822191 115.830929 
L 264.089608 117.694631 
L 267.246469 119.740023 
L 270.28268 121.960567 
L 273.188537 124.349164 
L 275.954749 126.898178 
L 278.572473 129.599459 
L 281.03334 132.444372 
L 283.329483 135.423823 
L 285.453561 138.528285 
L 287.398785 141.747835 
L 289.158935 145.07218 
L 290.728384 148.490693 
L 292.102116 151.992444 
L 293.275738 155.566239 
L 294.245498 159.200652 
L 295.008296 162.884066 
L 295.561694 166.604704 
L 295.903922 170.350672 
L 296.033887 174.109995 
L 296.033887 174.109995 
" clip-path="url(#pbbc02c618c)" style="fill: none; stroke-dasharray: 3.7,1.6; stroke-dashoffset: 0; stroke: #000000"/>
   </g>
   <g id="line2d_88">
    <path d="M 296.0352 174.528 
L 296.033887 174.109995 
" clip-path="url(#pbbc02c618c)" style="fill: none; stroke-dasharray: 3.7,1.6; stroke-dashoffset: 0; stroke: #000000"/>
   </g>
   <g id="line2d_89">
    <path d="M 343.344 174.528 
L 343.217547 175.142464 
L 342.838612 175.759041 
L 342.098037 176.468939 
L 340.876767 177.277748 
L 339.045769 178.193513 
L 336.469629 179.226752 
L 332.693569 180.488749 
L 327.403582 182.005065 
L 320.290681 183.801434 
L 311.08305 185.893812 
L 299.583449 188.27242 
L 286.959196 190.656341 
L 274.145895 192.855107 
L 261.48116 194.803373 
L 249.909756 196.369555 
L 238.940506 197.643043 
L 228.687325 198.623896 
L 218.551498 199.368255 
L 209.269124 199.827073 
L 200.859533 200.033859 
L 192.700515 200.018698 
L 184.836729 199.774253 
L 177.876246 199.341519 
L 171.234129 198.709171 
L 164.939431 197.878844 
L 159.497668 196.947132 
L 154.390049 195.857072 
L 149.634596 194.614899 
L 145.24793 193.228288 
L 141.592889 191.849974 
L 138.2656 190.367436 
L 135.275471 188.789162 
L 132.630911 187.124359 
L 130.552414 185.56019 
L 128.764541 183.941491 
L 127.271327 182.276171 
L 126.194123 180.76336 
L 125.354312 179.226081 
L 124.753383 177.67035 
L 124.392399 176.102269 
L 124.272 174.528 
L 124.392399 172.953731 
L 124.753383 171.38565 
L 125.354312 169.829919 
L 126.194123 168.29264 
L 127.271327 166.779829 
L 128.58401 165.29739 
L 130.33933 163.673115 
L 132.385755 162.102506 
L 134.718662 160.593183 
L 137.332758 159.152399 
L 140.559841 157.640215 
L 144.117603 156.229789 
L 147.995945 154.929059 
L 152.183791 153.745124 
L 157.133484 152.58506 
L 162.425688 151.580695 
L 168.041613 150.737439 
L 174.51353 150.005751 
L 181.318584 149.473152 
L 188.426745 149.140099 
L 196.432171 149.002183 
L 204.712549 149.090564 
L 213.22199 149.396438 
L 222.586436 149.955377 
L 232.779225 150.79764 
L 243.741487 151.943425 
L 255.373766 153.399077 
L 267.526729 155.153629 
L 279.991362 157.176431 
L 293.093367 159.530559 
L 305.764848 162.034835 
L 316.565753 164.383103 
L 325.430014 166.530946 
L 331.713559 168.26924 
L 336.206886 169.733809 
L 339.251015 170.955 
L 341.183384 171.959108 
L 342.313788 172.765212 
L 342.972585 173.473461 
L 343.279475 174.089221 
L 343.341419 174.440269 
L 343.341419 174.440269 
" clip-path="url(#pbbc02c618c)" style="fill: none; stroke: #000000; stroke-linecap: square"/>
   </g>
   <g id="patch_3">
    <path d="M 103.104 307.584 
L 103.104 41.472 
" style="fill: none; stroke: #000000; stroke-width: 0.8; stroke-linejoin: miter; stroke-linecap: square"/>
   </g>
   <g id="patch_4">
    <path d="M 369.216 307.584 
L 369.216 41.472 
" style="fill: none; stroke: #000000; stroke-width: 0.8; stroke-linejoin: miter; stroke-linecap: square"/>
   </g>
   <g id="patch_5">
    <path d="M 103.104 307.584 
L 369.216 307.584 
" style="fill: none; stroke: #000000; stroke-width: 0.8; stroke-linejoin: miter; stroke-linecap: square"/>
   </g>
   <g id="patch_6">
    <path d="M 103.104 41.472 
L 369.216 41.472 
" style="fill: none; stroke: #000000; stroke-width: 0.8; stroke-linejoin: miter; stroke-linecap: square"/>
   </g>
   <g id="text_11">
    <!-- -2 -->
    <g transform="translate(84.47616 323.162464) scale(0.17 -0.17)">
     <defs>
      <path id="DejaVuSerif-2d" d="M 281 1959 
L 1881 1959 
L 1881 1472 
L 281 1472 
L 281 1959 
z
" transform="scale(0.015625)"/>
     </defs>
     <use xlink:href="#DejaVuSerif-2d"/>
     <use xlink:href="#DejaVuSerif-32" x="33.789062"/>
    </g>
   </g>
  </g>
 </g>
 <defs>
  <clipPath id="pbbc02c618c">
   <rect x="103.104" y="41.472" width="266.112" height="266.112"/>
  </clipPath>
 </defs>
</svg>
