<?xml version="1.0" encoding="utf-8" standalone="no"?>
<!DOCTYPE svg PUBLIC "-//W3C//DTD SVG 1.1//EN"
  "http://www.w3.org/Graphics/SVG/1.1/DTD/svg11.dtd">
<svg xmlns:xlink="http://www.w3.org/1999/xlink" width="460.8pt" height="345.6pt" viewBox="0 0 460.8 345.6" xmlns="http://www.w3.org/2000/svg" version="1.1">
 <metadata>
  <rdf:RDF xmlns:dc="http://purl.org/dc/elements/1.1/" xmlns:cc="http://creativecommons.org/ns#" xmlns:rdf="http://www.w3.org/1999/02/22-rdf-syntax-ns#">
   <cc:Work>
    <dc:type rdf:resource="http://purl.org/dc/dcmitype/StillImage"/>
    <dc:date>2025-09-04T08:13:51.911942</dc:date>
    <dc:format>image/svg+xml</dc:format>
    <dc:creator>
     <cc:Agent>
      <dc:title>Matplotlib v3.9.2, https://matplotlib.org/</dc:title>
     </cc:Agent>
    </dc:creator>
   </cc:Work>
  </rdf:RDF>
 </metadata>
 <defs>
  <style type="text/css">*{stroke-linejoin: round; stroke-linecap: butt}</style>
 </defs>
 <g id="figure_1">
  <g id="patch_1">
   <path d="M 0 345.6 
L 460.8 345.6 
L 460.8 0 
L 0 0 
z
" style="fill: #ffffff"/>
  </g>
  <g id="axes_1">
   <g id="patch_2">
    <path d="M 103.104 307.584 
L 369.216 307.584 
L 369.216 41.472 
L 103.104 41.472 
z
" style="fill: #ffffff"/>
   </g>
   <g id="matplotlib.axis_1">
    <g id="xtick_1">
     <g id="line2d_1">
      <defs>
       <path id="me2f8d145fa" d="M 0 0 
L 0 -5 
" style="stroke: #000000; stroke-width: 0.75"/>
      </defs>
      <g>
       <use xlink:href="#me2f8d145fa" x="169.632" y="307.584" style="stroke: #000000; stroke-width: 0.75"/>
      </g>
     </g>
     <g id="line2d_2">
      <defs>
       <path id="ma09d81444b" d="M 0 0 
L 0 5 
" style="stroke: #000000; stroke-width: 0.75"/>
      </defs>
      <g>
       <use xlink:href="#ma09d81444b" x="169.632" y="41.472" style="stroke: #000000; stroke-width: 0.75"/>
      </g>
     </g>
     <g id="text_1">
      <!-- −1 -->
      <g transform="translate(157.101141 324.001344) scale(0.17 -0.17)">
       <defs>
        <path id="DejaVuSerif-2212" d="M 678 2259 
L 4684 2259 
L 4684 1753 
L 678 1753 
L 678 2259 
z
" transform="scale(0.015625)"/>
        <path id="DejaVuSerif-31" d="M 909 0 
L 909 331 
L 1722 331 
L 1722 4213 
L 781 3603 
L 781 4013 
L 1919 4750 
L 2350 4750 
L 2350 331 
L 3163 331 
L 3163 0 
L 909 0 
z
" transform="scale(0.015625)"/>
       </defs>
       <use xlink:href="#DejaVuSerif-2212"/>
       <use xlink:href="#DejaVuSerif-31" x="83.789062"/>
      </g>
     </g>
    </g>
    <g id="xtick_2">
     <g id="line2d_3">
      <g>
       <use xlink:href="#me2f8d145fa" x="236.16" y="307.584" style="stroke: #000000; stroke-width: 0.75"/>
      </g>
     </g>
     <g id="line2d_4">
      <g>
       <use xlink:href="#ma09d81444b" x="236.16" y="41.472" style="stroke: #000000; stroke-width: 0.75"/>
      </g>
     </g>
     <g id="text_2">
      <!-- 0 -->
      <g transform="translate(230.751875 324.001344) scale(0.17 -0.17)">
       <defs>
        <path id="DejaVuSerif-30" d="M 2034 219 
Q 2513 219 2750 744 
Q 2988 1269 2988 2328 
Q 2988 3391 2750 3916 
Q 2513 4441 2034 4441 
Q 1556 4441 1318 3916 
Q 1081 3391 1081 2328 
Q 1081 1269 1318 744 
Q 1556 219 2034 219 
z
M 2034 -91 
Q 1275 -91 848 546 
Q 422 1184 422 2328 
Q 422 3475 848 4112 
Q 1275 4750 2034 4750 
Q 2797 4750 3222 4112 
Q 3647 3475 3647 2328 
Q 3647 1184 3222 546 
Q 2797 -91 2034 -91 
z
" transform="scale(0.015625)"/>
       </defs>
       <use xlink:href="#DejaVuSerif-30"/>
      </g>
     </g>
    </g>
    <g id="xtick_3">
     <g id="line2d_5">
      <g>
       <use xlink:href="#me2f8d145fa" x="302.688" y="307.584" style="stroke: #000000; stroke-width: 0.75"/>
      </g>
     </g>
     <g id="line2d_6">
      <g>
       <use xlink:href="#ma09d81444b" x="302.688" y="41.472" style="stroke: #000000; stroke-width: 0.75"/>
      </g>
     </g>
     <g id="text_3">
      <!-- 1 -->
      <g transform="translate(297.279875 324.001344) scale(0.17 -0.17)">
       <use xlink:href="#DejaVuSerif-31"/>
      </g>
     </g>
    </g>
    <g id="xtick_4">
     <g id="line2d_7">
      <g>
       <use xlink:href="#me2f8d145fa" x="369.216" y="307.584" style="stroke: #000000; stroke-width: 0.75"/>
      </g>
     </g>
     <g id="line2d_8">
      <g>
       <use xlink:href="#ma09d81444b" x="369.216" y="41.472" style="stroke: #000000; stroke-width: 0.75"/>
      </g>
     </g>
     <g id="text_4">
      <!-- 2 -->
      <g transform="translate(363.807875 324.001344) scale(0.17 -0.17)">
       <defs>
        <path id="DejaVuSerif-32" d="M 819 3553 
L 469 3553 
L 469 4384 
Q 803 4563 1142 4656 
Q 1481 4750 1806 4750 
Q 2534 4750 2956 4397 
Q 3378 4044 3378 3438 
Q 3378 2753 2422 1800 
Q 2347 1728 2309 1691 
L 1131 513 
L 3078 513 
L 3078 1088 
L 3444 1088 
L 3444 0 
L 434 0 
L 434 341 
L 1850 1753 
Q 2319 2222 2519 2614 
Q 2719 3006 2719 3438 
Q 2719 3909 2473 4175 
Q 2228 4441 1797 4441 
Q 1350 4441 1106 4219 
Q 863 3997 819 3553 
z
" transform="scale(0.015625)"/>
       </defs>
       <use xlink:href="#DejaVuSerif-32"/>
      </g>
     </g>
    </g>
    <g id="xtick_5">
     <g id="line2d_9">
      <defs>
       <path id="m7d02fa76b4" d="M 0 0 
L 0 -2.5 
" style="stroke: #000000; stroke-width: 0.75"/>
      </defs>
      <g>
       <use xlink:href="#m7d02fa76b4" x="103.104" y="307.584" style="stroke: #000000; stroke-width: 0.75"/>
      </g>
     </g>
     <g id="line2d_10">
      <defs>
       <path id="m1345186fab" d="M 0 0 
L 0 2.5 
" style="stroke: #000000; stroke-width: 0.75"/>
      </defs>
      <g>
       <use xlink:href="#m1345186fab" x="103.104" y="41.472" style="stroke: #000000; stroke-width: 0.75"/>
      </g>
     </g>
    </g>
    <g id="xtick_6">
     <g id="line2d_11">
      <g>
       <use xlink:href="#m7d02fa76b4" x="116.4096" y="307.584" style="stroke: #000000; stroke-width: 0.75"/>
      </g>
     </g>
     <g id="line2d_12">
      <g>
       <use xlink:href="#m1345186fab" x="116.4096" y="41.472" style="stroke: #000000; stroke-width: 0.75"/>
      </g>
     </g>
    </g>
    <g id="xtick_7">
     <g id="line2d_13">
      <g>
       <use xlink:href="#m7d02fa76b4" x="129.7152" y="307.584" style="stroke: #000000; stroke-width: 0.75"/>
      </g>
     </g>
     <g id="line2d_14">
      <g>
       <use xlink:href="#m1345186fab" x="129.7152" y="41.472" style="stroke: #000000; stroke-width: 0.75"/>
      </g>
     </g>
    </g>
    <g id="xtick_8">
     <g id="line2d_15">
      <g>
       <use xlink:href="#m7d02fa76b4" x="143.0208" y="307.584" style="stroke: #000000; stroke-width: 0.75"/>
      </g>
     </g>
     <g id="line2d_16">
      <g>
       <use xlink:href="#m1345186fab" x="143.0208" y="41.472" style="stroke: #000000; stroke-width: 0.75"/>
      </g>
     </g>
    </g>
    <g id="xtick_9">
     <g id="line2d_17">
      <g>
       <use xlink:href="#m7d02fa76b4" x="156.3264" y="307.584" style="stroke: #000000; stroke-width: 0.75"/>
      </g>
     </g>
     <g id="line2d_18">
      <g>
       <use xlink:href="#m1345186fab" x="156.3264" y="41.472" style="stroke: #000000; stroke-width: 0.75"/>
      </g>
     </g>
    </g>
    <g id="xtick_10">
     <g id="line2d_19">
      <g>
       <use xlink:href="#m7d02fa76b4" x="182.9376" y="307.584" style="stroke: #000000; stroke-width: 0.75"/>
      </g>
     </g>
     <g id="line2d_20">
      <g>
       <use xlink:href="#m1345186fab" x="182.9376" y="41.472" style="stroke: #000000; stroke-width: 0.75"/>
      </g>
     </g>
    </g>
    <g id="xtick_11">
     <g id="line2d_21">
      <g>
       <use xlink:href="#m7d02fa76b4" x="196.2432" y="307.584" style="stroke: #000000; stroke-width: 0.75"/>
      </g>
     </g>
     <g id="line2d_22">
      <g>
       <use xlink:href="#m1345186fab" x="196.2432" y="41.472" style="stroke: #000000; stroke-width: 0.75"/>
      </g>
     </g>
    </g>
    <g id="xtick_12">
     <g id="line2d_23">
      <g>
       <use xlink:href="#m7d02fa76b4" x="209.5488" y="307.584" style="stroke: #000000; stroke-width: 0.75"/>
      </g>
     </g>
     <g id="line2d_24">
      <g>
       <use xlink:href="#m1345186fab" x="209.5488" y="41.472" style="stroke: #000000; stroke-width: 0.75"/>
      </g>
     </g>
    </g>
    <g id="xtick_13">
     <g id="line2d_25">
      <g>
       <use xlink:href="#m7d02fa76b4" x="222.8544" y="307.584" style="stroke: #000000; stroke-width: 0.75"/>
      </g>
     </g>
     <g id="line2d_26">
      <g>
       <use xlink:href="#m1345186fab" x="222.8544" y="41.472" style="stroke: #000000; stroke-width: 0.75"/>
      </g>
     </g>
    </g>
    <g id="xtick_14">
     <g id="line2d_27">
      <g>
       <use xlink:href="#m7d02fa76b4" x="249.4656" y="307.584" style="stroke: #000000; stroke-width: 0.75"/>
      </g>
     </g>
     <g id="line2d_28">
      <g>
       <use xlink:href="#m1345186fab" x="249.4656" y="41.472" style="stroke: #000000; stroke-width: 0.75"/>
      </g>
     </g>
    </g>
    <g id="xtick_15">
     <g id="line2d_29">
      <g>
       <use xlink:href="#m7d02fa76b4" x="262.7712" y="307.584" style="stroke: #000000; stroke-width: 0.75"/>
      </g>
     </g>
     <g id="line2d_30">
      <g>
       <use xlink:href="#m1345186fab" x="262.7712" y="41.472" style="stroke: #000000; stroke-width: 0.75"/>
      </g>
     </g>
    </g>
    <g id="xtick_16">
     <g id="line2d_31">
      <g>
       <use xlink:href="#m7d02fa76b4" x="276.0768" y="307.584" style="stroke: #000000; stroke-width: 0.75"/>
      </g>
     </g>
     <g id="line2d_32">
      <g>
       <use xlink:href="#m1345186fab" x="276.0768" y="41.472" style="stroke: #000000; stroke-width: 0.75"/>
      </g>
     </g>
    </g>
    <g id="xtick_17">
     <g id="line2d_33">
      <g>
       <use xlink:href="#m7d02fa76b4" x="289.3824" y="307.584" style="stroke: #000000; stroke-width: 0.75"/>
      </g>
     </g>
     <g id="line2d_34">
      <g>
       <use xlink:href="#m1345186fab" x="289.3824" y="41.472" style="stroke: #000000; stroke-width: 0.75"/>
      </g>
     </g>
    </g>
    <g id="xtick_18">
     <g id="line2d_35">
      <g>
       <use xlink:href="#m7d02fa76b4" x="315.9936" y="307.584" style="stroke: #000000; stroke-width: 0.75"/>
      </g>
     </g>
     <g id="line2d_36">
      <g>
       <use xlink:href="#m1345186fab" x="315.9936" y="41.472" style="stroke: #000000; stroke-width: 0.75"/>
      </g>
     </g>
    </g>
    <g id="xtick_19">
     <g id="line2d_37">
      <g>
       <use xlink:href="#m7d02fa76b4" x="329.2992" y="307.584" style="stroke: #000000; stroke-width: 0.75"/>
      </g>
     </g>
     <g id="line2d_38">
      <g>
       <use xlink:href="#m1345186fab" x="329.2992" y="41.472" style="stroke: #000000; stroke-width: 0.75"/>
      </g>
     </g>
    </g>
    <g id="xtick_20">
     <g id="line2d_39">
      <g>
       <use xlink:href="#m7d02fa76b4" x="342.6048" y="307.584" style="stroke: #000000; stroke-width: 0.75"/>
      </g>
     </g>
     <g id="line2d_40">
      <g>
       <use xlink:href="#m1345186fab" x="342.6048" y="41.472" style="stroke: #000000; stroke-width: 0.75"/>
      </g>
     </g>
    </g>
    <g id="xtick_21">
     <g id="line2d_41">
      <g>
       <use xlink:href="#m7d02fa76b4" x="355.9104" y="307.584" style="stroke: #000000; stroke-width: 0.75"/>
      </g>
     </g>
     <g id="line2d_42">
      <g>
       <use xlink:href="#m1345186fab" x="355.9104" y="41.472" style="stroke: #000000; stroke-width: 0.75"/>
      </g>
     </g>
    </g>
    <g id="text_5">
     <!-- $Real$/$R$ -->
     <g transform="translate(207.6 340.455156) scale(0.17 -0.17)">
      <defs>
       <path id="DejaVuSerif-Italic-52" d="M 3066 2316 
Q 3272 2256 3403 2114 
Q 3534 1972 3609 1716 
L 4016 331 
L 4584 331 
L 4522 0 
L 3422 0 
L 2981 1484 
Q 2856 1916 2706 2042 
Q 2556 2169 2250 2169 
L 1553 2169 
L 1194 331 
L 1853 331 
L 1791 0 
L -97 0 
L -34 331 
L 559 331 
L 1338 4331 
L 744 4331 
L 809 4666 
L 3175 4666 
Q 3856 4666 4164 4341 
Q 4472 4016 4356 3419 
Q 4263 2938 3938 2661 
Q 3613 2384 3066 2316 
z
M 1619 2503 
L 2541 2503 
Q 3013 2503 3280 2726 
Q 3547 2950 3639 3419 
Q 3731 3888 3548 4109 
Q 3366 4331 2894 4331 
L 1972 4331 
L 1619 2503 
z
" transform="scale(0.015625)"/>
       <path id="DejaVuSerif-Italic-65" d="M 938 1275 
Q 925 1156 925 1050 
Q 925 756 1031 563 
Q 1216 219 1709 219 
Q 2072 219 2250 328 
Q 2569 525 2644 778 
L 3066 778 
Q 2941 381 2475 103 
Q 2150 -91 1506 -91 
Q 863 -91 516 388 
Q 272 722 272 1206 
Q 272 1419 319 1659 
Q 472 2450 1000 2931 
Q 1528 3413 2278 3413 
Q 3500 3413 3500 2547 
Q 3500 1913 2859 1603 
Q 2206 1288 938 1275 
z
M 2541 1975 
Q 2891 2181 2891 2569 
Q 2891 3103 2181 3103 
Q 1763 3103 1472 2784 
Q 1181 2466 1003 1606 
Q 2006 1653 2541 1975 
z
" transform="scale(0.015625)"/>
       <path id="DejaVuSerif-Italic-61" d="M 2325 519 
Q 1909 -91 1238 -91 
Q 688 -91 409 281 
Q 216 544 216 919 
Q 216 1078 250 1256 
Q 463 2359 1231 2928 
Q 1884 3413 2675 3413 
Q 3206 3413 3388 3322 
L 2806 331 
L 3300 331 
L 3238 0 
L 2225 0 
L 2325 519 
z
M 822 938 
Q 822 269 1469 269 
Q 1863 269 2130 583 
Q 2397 897 2516 1497 
L 2806 3003 
L 2806 3003 
Q 2806 3094 2556 3094 
Q 1956 3094 1491 2625 
Q 1028 2153 863 1297 
Q 822 1097 822 938 
z
" transform="scale(0.015625)"/>
       <path id="DejaVuSerif-Italic-6c" d="M 903 331 
L 1447 331 
L 1384 0 
L 266 0 
L 1147 4531 
L 594 4531 
L 656 4863 
L 1784 4863 
L 903 331 
z
" transform="scale(0.015625)"/>
       <path id="DejaVuSerif-2f" d="M 1656 4666 
L 2156 4666 
L 500 -594 
L 0 -594 
L 1656 4666 
z
" transform="scale(0.015625)"/>
      </defs>
      <use xlink:href="#DejaVuSerif-Italic-52" transform="translate(0 0.015625)"/>
      <use xlink:href="#DejaVuSerif-Italic-65" transform="translate(75.292969 0.015625)"/>
      <use xlink:href="#DejaVuSerif-Italic-61" transform="translate(134.472656 0.015625)"/>
      <use xlink:href="#DejaVuSerif-Italic-6c" transform="translate(194.091797 0.015625)"/>
      <use xlink:href="#DejaVuSerif-2f" transform="translate(226.074219 0.015625)"/>
      <use xlink:href="#DejaVuSerif-Italic-52" transform="translate(259.765625 0.015625)"/>
     </g>
    </g>
   </g>
   <g id="matplotlib.axis_2">
    <g id="ytick_1">
     <g id="line2d_43">
      <defs>
       <path id="m3fc9d419da" d="M 0 0 
L 5 0 
" style="stroke: #000000; stroke-width: 0.75"/>
      </defs>
      <g>
       <use xlink:href="#m3fc9d419da" x="103.104" y="241.056" style="stroke: #000000; stroke-width: 0.75"/>
      </g>
     </g>
     <g id="line2d_44">
      <defs>
       <path id="m9e8d1de1c7" d="M 0 0 
L -5 0 
" style="stroke: #000000; stroke-width: 0.75"/>
      </defs>
      <g>
       <use xlink:href="#m9e8d1de1c7" x="369.216" y="241.056" style="stroke: #000000; stroke-width: 0.75"/>
      </g>
     </g>
     <g id="text_6">
      <!-- −1 -->
      <g transform="translate(74.542281 247.514672) scale(0.17 -0.17)">
       <use xlink:href="#DejaVuSerif-2212"/>
       <use xlink:href="#DejaVuSerif-31" x="83.789062"/>
      </g>
     </g>
    </g>
    <g id="ytick_2">
     <g id="line2d_45">
      <g>
       <use xlink:href="#m3fc9d419da" x="103.104" y="174.528" style="stroke: #000000; stroke-width: 0.75"/>
      </g>
     </g>
     <g id="line2d_46">
      <g>
       <use xlink:href="#m9e8d1de1c7" x="369.216" y="174.528" style="stroke: #000000; stroke-width: 0.75"/>
      </g>
     </g>
     <g id="text_7">
      <!-- 0 -->
      <g transform="translate(88.78775 180.986672) scale(0.17 -0.17)">
       <use xlink:href="#DejaVuSerif-30"/>
      </g>
     </g>
    </g>
    <g id="ytick_3">
     <g id="line2d_47">
      <g>
       <use xlink:href="#m3fc9d419da" x="103.104" y="108" style="stroke: #000000; stroke-width: 0.75"/>
      </g>
     </g>
     <g id="line2d_48">
      <g>
       <use xlink:href="#m9e8d1de1c7" x="369.216" y="108" style="stroke: #000000; stroke-width: 0.75"/>
      </g>
     </g>
     <g id="text_8">
      <!-- 1 -->
      <g transform="translate(88.78775 114.458672) scale(0.17 -0.17)">
       <use xlink:href="#DejaVuSerif-31"/>
      </g>
     </g>
    </g>
    <g id="ytick_4">
     <g id="line2d_49">
      <g>
       <use xlink:href="#m3fc9d419da" x="103.104" y="41.472" style="stroke: #000000; stroke-width: 0.75"/>
      </g>
     </g>
     <g id="line2d_50">
      <g>
       <use xlink:href="#m9e8d1de1c7" x="369.216" y="41.472" style="stroke: #000000; stroke-width: 0.75"/>
      </g>
     </g>
     <g id="text_9">
      <!-- 2 -->
      <g transform="translate(88.78775 47.930672) scale(0.17 -0.17)">
       <use xlink:href="#DejaVuSerif-32"/>
      </g>
     </g>
    </g>
    <g id="ytick_5">
     <g id="line2d_51">
      <defs>
       <path id="m32f5d53f00" d="M 0 0 
L 2.5 0 
" style="stroke: #000000; stroke-width: 0.75"/>
      </defs>
      <g>
       <use xlink:href="#m32f5d53f00" x="103.104" y="307.584" style="stroke: #000000; stroke-width: 0.75"/>
      </g>
     </g>
     <g id="line2d_52">
      <defs>
       <path id="m85bf52c664" d="M 0 0 
L -2.5 0 
" style="stroke: #000000; stroke-width: 0.75"/>
      </defs>
      <g>
       <use xlink:href="#m85bf52c664" x="369.216" y="307.584" style="stroke: #000000; stroke-width: 0.75"/>
      </g>
     </g>
    </g>
    <g id="ytick_6">
     <g id="line2d_53">
      <g>
       <use xlink:href="#m32f5d53f00" x="103.104" y="294.2784" style="stroke: #000000; stroke-width: 0.75"/>
      </g>
     </g>
     <g id="line2d_54">
      <g>
       <use xlink:href="#m85bf52c664" x="369.216" y="294.2784" style="stroke: #000000; stroke-width: 0.75"/>
      </g>
     </g>
    </g>
    <g id="ytick_7">
     <g id="line2d_55">
      <g>
       <use xlink:href="#m32f5d53f00" x="103.104" y="280.9728" style="stroke: #000000; stroke-width: 0.75"/>
      </g>
     </g>
     <g id="line2d_56">
      <g>
       <use xlink:href="#m85bf52c664" x="369.216" y="280.9728" style="stroke: #000000; stroke-width: 0.75"/>
      </g>
     </g>
    </g>
    <g id="ytick_8">
     <g id="line2d_57">
      <g>
       <use xlink:href="#m32f5d53f00" x="103.104" y="267.6672" style="stroke: #000000; stroke-width: 0.75"/>
      </g>
     </g>
     <g id="line2d_58">
      <g>
       <use xlink:href="#m85bf52c664" x="369.216" y="267.6672" style="stroke: #000000; stroke-width: 0.75"/>
      </g>
     </g>
    </g>
    <g id="ytick_9">
     <g id="line2d_59">
      <g>
       <use xlink:href="#m32f5d53f00" x="103.104" y="254.3616" style="stroke: #000000; stroke-width: 0.75"/>
      </g>
     </g>
     <g id="line2d_60">
      <g>
       <use xlink:href="#m85bf52c664" x="369.216" y="254.3616" style="stroke: #000000; stroke-width: 0.75"/>
      </g>
     </g>
    </g>
    <g id="ytick_10">
     <g id="line2d_61">
      <g>
       <use xlink:href="#m32f5d53f00" x="103.104" y="227.7504" style="stroke: #000000; stroke-width: 0.75"/>
      </g>
     </g>
     <g id="line2d_62">
      <g>
       <use xlink:href="#m85bf52c664" x="369.216" y="227.7504" style="stroke: #000000; stroke-width: 0.75"/>
      </g>
     </g>
    </g>
    <g id="ytick_11">
     <g id="line2d_63">
      <g>
       <use xlink:href="#m32f5d53f00" x="103.104" y="214.4448" style="stroke: #000000; stroke-width: 0.75"/>
      </g>
     </g>
     <g id="line2d_64">
      <g>
       <use xlink:href="#m85bf52c664" x="369.216" y="214.4448" style="stroke: #000000; stroke-width: 0.75"/>
      </g>
     </g>
    </g>
    <g id="ytick_12">
     <g id="line2d_65">
      <g>
       <use xlink:href="#m32f5d53f00" x="103.104" y="201.1392" style="stroke: #000000; stroke-width: 0.75"/>
      </g>
     </g>
     <g id="line2d_66">
      <g>
       <use xlink:href="#m85bf52c664" x="369.216" y="201.1392" style="stroke: #000000; stroke-width: 0.75"/>
      </g>
     </g>
    </g>
    <g id="ytick_13">
     <g id="line2d_67">
      <g>
       <use xlink:href="#m32f5d53f00" x="103.104" y="187.8336" style="stroke: #000000; stroke-width: 0.75"/>
      </g>
     </g>
     <g id="line2d_68">
      <g>
       <use xlink:href="#m85bf52c664" x="369.216" y="187.8336" style="stroke: #000000; stroke-width: 0.75"/>
      </g>
     </g>
    </g>
    <g id="ytick_14">
     <g id="line2d_69">
      <g>
       <use xlink:href="#m32f5d53f00" x="103.104" y="161.2224" style="stroke: #000000; stroke-width: 0.75"/>
      </g>
     </g>
     <g id="line2d_70">
      <g>
       <use xlink:href="#m85bf52c664" x="369.216" y="161.2224" style="stroke: #000000; stroke-width: 0.75"/>
      </g>
     </g>
    </g>
    <g id="ytick_15">
     <g id="line2d_71">
      <g>
       <use xlink:href="#m32f5d53f00" x="103.104" y="147.9168" style="stroke: #000000; stroke-width: 0.75"/>
      </g>
     </g>
     <g id="line2d_72">
      <g>
       <use xlink:href="#m85bf52c664" x="369.216" y="147.9168" style="stroke: #000000; stroke-width: 0.75"/>
      </g>
     </g>
    </g>
    <g id="ytick_16">
     <g id="line2d_73">
      <g>
       <use xlink:href="#m32f5d53f00" x="103.104" y="134.6112" style="stroke: #000000; stroke-width: 0.75"/>
      </g>
     </g>
     <g id="line2d_74">
      <g>
       <use xlink:href="#m85bf52c664" x="369.216" y="134.6112" style="stroke: #000000; stroke-width: 0.75"/>
      </g>
     </g>
    </g>
    <g id="ytick_17">
     <g id="line2d_75">
      <g>
       <use xlink:href="#m32f5d53f00" x="103.104" y="121.3056" style="stroke: #000000; stroke-width: 0.75"/>
      </g>
     </g>
     <g id="line2d_76">
      <g>
       <use xlink:href="#m85bf52c664" x="369.216" y="121.3056" style="stroke: #000000; stroke-width: 0.75"/>
      </g>
     </g>
    </g>
    <g id="ytick_18">
     <g id="line2d_77">
      <g>
       <use xlink:href="#m32f5d53f00" x="103.104" y="94.6944" style="stroke: #000000; stroke-width: 0.75"/>
      </g>
     </g>
     <g id="line2d_78">
      <g>
       <use xlink:href="#m85bf52c664" x="369.216" y="94.6944" style="stroke: #000000; stroke-width: 0.75"/>
      </g>
     </g>
    </g>
    <g id="ytick_19">
     <g id="line2d_79">
      <g>
       <use xlink:href="#m32f5d53f00" x="103.104" y="81.3888" style="stroke: #000000; stroke-width: 0.75"/>
      </g>
     </g>
     <g id="line2d_80">
      <g>
       <use xlink:href="#m85bf52c664" x="369.216" y="81.3888" style="stroke: #000000; stroke-width: 0.75"/>
      </g>
     </g>
    </g>
    <g id="ytick_20">
     <g id="line2d_81">
      <g>
       <use xlink:href="#m32f5d53f00" x="103.104" y="68.0832" style="stroke: #000000; stroke-width: 0.75"/>
      </g>
     </g>
     <g id="line2d_82">
      <g>
       <use xlink:href="#m85bf52c664" x="369.216" y="68.0832" style="stroke: #000000; stroke-width: 0.75"/>
      </g>
     </g>
    </g>
    <g id="ytick_21">
     <g id="line2d_83">
      <g>
       <use xlink:href="#m32f5d53f00" x="103.104" y="54.7776" style="stroke: #000000; stroke-width: 0.75"/>
      </g>
     </g>
     <g id="line2d_84">
      <g>
       <use xlink:href="#m85bf52c664" x="369.216" y="54.7776" style="stroke: #000000; stroke-width: 0.75"/>
      </g>
     </g>
    </g>
    <g id="text_10">
     <!-- $Imag$/$R$ -->
     <g transform="translate(80.632281 205.723) rotate(-90) scale(0.17 -0.17)">
      <defs>
       <path id="DejaVuSerif-Italic-49" d="M 1194 331 
L 1788 331 
L 1725 0 
L -97 0 
L -34 331 
L 559 331 
L 1338 4331 
L 744 4331 
L 809 4666 
L 2631 4666 
L 2566 4331 
L 1972 4331 
L 1194 331 
z
" transform="scale(0.015625)"/>
       <path id="DejaVuSerif-Italic-6d" d="M 3503 2675 
Q 3741 3041 4034 3227 
Q 4328 3413 4672 3413 
Q 5194 3413 5388 3088 
Q 5503 2894 5503 2578 
Q 5503 2372 5453 2113 
L 5106 331 
L 5625 331 
L 5563 0 
L 4469 0 
L 4866 2047 
Q 4913 2291 4913 2466 
Q 4913 2659 4856 2772 
Q 4750 2988 4403 2988 
Q 4019 2988 3761 2697 
Q 3503 2406 3394 1850 
L 3034 0 
L 2459 0 
L 2863 2069 
Q 2906 2303 2906 2472 
Q 2906 2666 2850 2775 
Q 2741 2988 2394 2988 
Q 2009 2988 1751 2697 
Q 1494 2406 1384 1850 
L 1025 0 
L 450 0 
L 1031 2994 
L 481 2994 
L 544 3322 
L 1669 3322 
L 1556 2731 
Q 1778 3063 2059 3238 
Q 2341 3413 2653 3413 
Q 3041 3413 3262 3220 
Q 3484 3028 3503 2675 
z
" transform="scale(0.015625)"/>
       <path id="DejaVuSerif-Italic-67" d="M 3822 3322 
L 3188 72 
Q 3044 -672 2581 -1031 
Q 2078 -1422 1381 -1422 
Q 1053 -1422 765 -1362 
Q 478 -1303 225 -1184 
L 363 -488 
L 663 -488 
Q 653 -813 834 -963 
Q 1016 -1113 1406 -1113 
Q 1913 -1113 2203 -825 
Q 2494 -544 2613 72 
L 2700 519 
Q 2472 206 2181 57 
Q 1891 -91 1525 -91 
Q 975 -91 697 281 
Q 522 516 503 841 
Q 491 1031 534 1256 
Q 750 2359 1516 2928 
Q 2169 3409 2931 3413 
Q 3631 3416 3822 3322 
z
M 3184 2988 
Q 3181 3094 2844 3094 
Q 2234 3094 1775 2625 
Q 1316 2153 1147 1297 
Q 1100 1044 1113 853 
Q 1125 659 1203 528 
Q 1356 269 1756 269 
Q 2194 269 2484 583 
Q 2775 897 2891 1497 
L 2953 1825 
L 3184 2988 
z
" transform="scale(0.015625)"/>
      </defs>
      <use xlink:href="#DejaVuSerif-Italic-49" transform="translate(0 0.09375)"/>
      <use xlink:href="#DejaVuSerif-Italic-6d" transform="translate(39.501953 0.09375)"/>
      <use xlink:href="#DejaVuSerif-Italic-61" transform="translate(134.326172 0.09375)"/>
      <use xlink:href="#DejaVuSerif-Italic-67" transform="translate(193.945312 0.09375)"/>
      <use xlink:href="#DejaVuSerif-2f" transform="translate(257.958984 0.09375)"/>
      <use xlink:href="#DejaVuSerif-Italic-52" transform="translate(291.650391 0.09375)"/>
     </g>
    </g>
   </g>
   <g id="line2d_85">
    <path d="M 335.446387 174.528 
L 335.33274 175.581433 
L 334.992144 176.635184 
L 334.425627 177.689541 
L 333.503764 178.895556 
L 332.292687 180.102872 
L 330.590441 181.462669 
L 328.53648 182.823788 
L 325.853928 184.336714 
L 322.434722 185.999479 
L 318.172486 187.80749 
L 312.967766 189.751845 
L 307.199599 191.67089 
L 300.417509 193.694196 
L 292.571246 195.790729 
L 284.211295 197.787329 
L 275.42761 199.654885 
L 266.310855 201.362896 
L 256.951285 202.880524 
L 248.075096 204.098615 
L 239.135574 205.101441 
L 230.837976 205.821305 
L 222.598269 206.322191 
L 214.467782 206.591262 
L 207.102313 206.624889 
L 199.909049 206.446054 
L 192.923483 206.050732 
L 186.17942 205.437043 
L 180.236929 204.68288 
L 174.54771 203.747295 
L 169.133854 202.633656 
L 164.01614 201.346827 
L 159.637037 200.03198 
L 155.532383 198.584947 
L 151.714852 197.012376 
L 148.196157 195.321776 
L 144.987027 193.521456 
L 142.371557 191.814821 
L 140.021136 190.033702 
L 137.941498 188.185572 
L 136.137699 186.278266 
L 134.614115 184.319938 
L 133.498058 182.543175 
L 132.608459 180.738827 
L 131.947016 178.913081 
L 131.514988 177.072217 
L 131.3132 175.222576 
L 131.342033 173.370539 
L 131.601435 171.522496 
L 132.090911 169.684818 
L 132.809528 167.863836 
L 133.755917 166.065808 
L 134.928274 164.296896 
L 136.324358 162.56314 
L 138.159034 160.662012 
L 140.269021 158.820947 
L 142.649187 157.047742 
L 145.293724 155.349827 
L 148.196157 153.734224 
L 151.714852 152.043624 
L 155.532383 150.471053 
L 159.637037 149.02402 
L 164.01614 147.709173 
L 168.656069 146.532256 
L 174.043841 145.40265 
L 179.708921 144.450716 
L 185.629333 143.679961 
L 191.781814 143.092366 
L 198.72943 142.660722 
L 205.890498 142.446028 
L 213.229801 142.444613 
L 221.339058 142.677036 
L 229.565253 143.143034 
L 237.857364 143.830137 
L 246.800273 144.800426 
L 255.689796 145.989144 
L 265.074983 147.479085 
L 274.229309 149.163488 
L 283.062642 151.011551 
L 291.484316 152.992668 
L 299.40421 155.077483 
L 306.734031 157.238899 
L 312.967766 159.304155 
L 318.172486 161.24851 
L 322.434722 163.056521 
L 326.140737 164.870562 
L 329.022827 166.534764 
L 331.197381 168.046769 
L 332.780457 169.406029 
L 333.883573 170.612844 
L 334.69599 171.818417 
L 335.165853 172.872482 
L 335.409272 173.926059 
L 335.444067 174.377517 
L 335.444067 174.377517 
" clip-path="url(#pd52ba7e0b6)" style="fill: none; stroke-dasharray: 6,10,2,10; stroke-dashoffset: 0; stroke: #000000; stroke-width: 2"/>
   </g>
   <g id="patch_3">
    <path d="M 103.104 307.584 
L 103.104 41.472 
" style="fill: none; stroke: #000000; stroke-width: 0.8; stroke-linejoin: miter; stroke-linecap: square"/>
   </g>
   <g id="patch_4">
    <path d="M 369.216 307.584 
L 369.216 41.472 
" style="fill: none; stroke: #000000; stroke-width: 0.8; stroke-linejoin: miter; stroke-linecap: square"/>
   </g>
   <g id="patch_5">
    <path d="M 103.104 307.584 
L 369.216 307.584 
" style="fill: none; stroke: #000000; stroke-width: 0.8; stroke-linejoin: miter; stroke-linecap: square"/>
   </g>
   <g id="patch_6">
    <path d="M 103.104 41.472 
L 369.216 41.472 
" style="fill: none; stroke: #000000; stroke-width: 0.8; stroke-linejoin: miter; stroke-linecap: square"/>
   </g>
   <g id="text_11">
    <!-- -2 -->
    <g transform="translate(84.47616 323.162464) scale(0.17 -0.17)">
     <defs>
      <path id="DejaVuSerif-2d" d="M 281 1959 
L 1881 1959 
L 1881 1472 
L 281 1472 
L 281 1959 
z
" transform="scale(0.015625)"/>
     </defs>
     <use xlink:href="#DejaVuSerif-2d"/>
     <use xlink:href="#DejaVuSerif-32" x="33.789062"/>
    </g>
   </g>
  </g>
 </g>
 <defs>
  <clipPath id="pd52ba7e0b6">
   <rect x="103.104" y="41.472" width="266.112" height="266.112"/>
  </clipPath>
 </defs>
</svg>
