<?xml version="1.0" encoding="utf-8" standalone="no"?>
<!DOCTYPE svg PUBLIC "-//W3C//DTD SVG 1.1//EN"
  "http://www.w3.org/Graphics/SVG/1.1/DTD/svg11.dtd">
<svg xmlns:xlink="http://www.w3.org/1999/xlink" width="460.8pt" height="345.6pt" viewBox="0 0 460.8 345.6" xmlns="http://www.w3.org/2000/svg" version="1.1">
 <metadata>
  <rdf:RDF xmlns:dc="http://purl.org/dc/elements/1.1/" xmlns:cc="http://creativecommons.org/ns#" xmlns:rdf="http://www.w3.org/1999/02/22-rdf-syntax-ns#">
   <cc:Work>
    <dc:type rdf:resource="http://purl.org/dc/dcmitype/StillImage"/>
    <dc:date>2025-09-04T09:38:22.711879</dc:date>
    <dc:format>image/svg+xml</dc:format>
    <dc:creator>
     <cc:Agent>
      <dc:title>Matplotlib v3.9.2, https://matplotlib.org/</dc:title>
     </cc:Agent>
    </dc:creator>
   </cc:Work>
  </rdf:RDF>
 </metadata>
 <defs>
  <style type="text/css">*{stroke-linejoin: round; stroke-linecap: butt}</style>
 </defs>
 <g id="figure_1">
  <g id="patch_1">
   <path d="M 0 345.6 
L 460.8 345.6 
L 460.8 0 
L 0 0 
z
" style="fill: #ffffff"/>
  </g>
  <g id="axes_1">
   <g id="patch_2">
    <path d="M 103.104 307.584 
L 369.216 307.584 
L 369.216 41.472 
L 103.104 41.472 
z
" style="fill: #ffffff"/>
   </g>
   <g id="PathCollection_1">
    <defs>
     <path id="m771b4c9288" d="M 0 1.936492 
C 0.513564 1.936492 1.006162 1.732451 1.369306 1.369306 
C 1.732451 1.006162 1.936492 0.513564 1.936492 0 
C 1.936492 -0.513564 1.732451 -1.006162 1.369306 -1.369306 
C 1.006162 -1.732451 0.513564 -1.936492 0 -1.936492 
C -0.513564 -1.936492 -1.006162 -1.732451 -1.369306 -1.369306 
C -1.732451 -1.006162 -1.936492 -0.513564 -1.936492 0 
C -1.936492 0.513564 -1.732451 1.006162 -1.369306 1.369306 
C -1.006162 1.732451 -0.513564 1.936492 0 1.936492 
z
" style="stroke: #000000"/>
    </defs>
    <g clip-path="url(#p00111ad0eb)">
     <use xlink:href="#m771b4c9288" x="230.17248" y="174.528" style="stroke: #000000"/>
    </g>
   </g>
   <g id="matplotlib.axis_1">
    <g id="xtick_1">
     <g id="line2d_1">
      <defs>
       <path id="mf1c40e5105" d="M 0 0 
L 0 -5 
" style="stroke: #000000; stroke-width: 0.75"/>
      </defs>
      <g>
       <use xlink:href="#mf1c40e5105" x="169.632" y="307.584" style="stroke: #000000; stroke-width: 0.75"/>
      </g>
     </g>
     <g id="line2d_2">
      <defs>
       <path id="mb92c864fbc" d="M 0 0 
L 0 5 
" style="stroke: #000000; stroke-width: 0.75"/>
      </defs>
      <g>
       <use xlink:href="#mb92c864fbc" x="169.632" y="41.472" style="stroke: #000000; stroke-width: 0.75"/>
      </g>
     </g>
     <g id="text_1">
      <!-- −1 -->
      <g transform="translate(157.101141 324.001344) scale(0.17 -0.17)">
       <defs>
        <path id="DejaVuSerif-2212" d="M 678 2259 
L 4684 2259 
L 4684 1753 
L 678 1753 
L 678 2259 
z
" transform="scale(0.015625)"/>
        <path id="DejaVuSerif-31" d="M 909 0 
L 909 331 
L 1722 331 
L 1722 4213 
L 781 3603 
L 781 4013 
L 1919 4750 
L 2350 4750 
L 2350 331 
L 3163 331 
L 3163 0 
L 909 0 
z
" transform="scale(0.015625)"/>
       </defs>
       <use xlink:href="#DejaVuSerif-2212"/>
       <use xlink:href="#DejaVuSerif-31" x="83.789062"/>
      </g>
     </g>
    </g>
    <g id="xtick_2">
     <g id="line2d_3">
      <g>
       <use xlink:href="#mf1c40e5105" x="236.16" y="307.584" style="stroke: #000000; stroke-width: 0.75"/>
      </g>
     </g>
     <g id="line2d_4">
      <g>
       <use xlink:href="#mb92c864fbc" x="236.16" y="41.472" style="stroke: #000000; stroke-width: 0.75"/>
      </g>
     </g>
     <g id="text_2">
      <!-- 0 -->
      <g transform="translate(230.751875 324.001344) scale(0.17 -0.17)">
       <defs>
        <path id="DejaVuSerif-30" d="M 2034 219 
Q 2513 219 2750 744 
Q 2988 1269 2988 2328 
Q 2988 3391 2750 3916 
Q 2513 4441 2034 4441 
Q 1556 4441 1318 3916 
Q 1081 3391 1081 2328 
Q 1081 1269 1318 744 
Q 1556 219 2034 219 
z
M 2034 -91 
Q 1275 -91 848 546 
Q 422 1184 422 2328 
Q 422 3475 848 4112 
Q 1275 4750 2034 4750 
Q 2797 4750 3222 4112 
Q 3647 3475 3647 2328 
Q 3647 1184 3222 546 
Q 2797 -91 2034 -91 
z
" transform="scale(0.015625)"/>
       </defs>
       <use xlink:href="#DejaVuSerif-30"/>
      </g>
     </g>
    </g>
    <g id="xtick_3">
     <g id="line2d_5">
      <g>
       <use xlink:href="#mf1c40e5105" x="302.688" y="307.584" style="stroke: #000000; stroke-width: 0.75"/>
      </g>
     </g>
     <g id="line2d_6">
      <g>
       <use xlink:href="#mb92c864fbc" x="302.688" y="41.472" style="stroke: #000000; stroke-width: 0.75"/>
      </g>
     </g>
     <g id="text_3">
      <!-- 1 -->
      <g transform="translate(297.279875 324.001344) scale(0.17 -0.17)">
       <use xlink:href="#DejaVuSerif-31"/>
      </g>
     </g>
    </g>
    <g id="xtick_4">
     <g id="line2d_7">
      <g>
       <use xlink:href="#mf1c40e5105" x="369.216" y="307.584" style="stroke: #000000; stroke-width: 0.75"/>
      </g>
     </g>
     <g id="line2d_8">
      <g>
       <use xlink:href="#mb92c864fbc" x="369.216" y="41.472" style="stroke: #000000; stroke-width: 0.75"/>
      </g>
     </g>
     <g id="text_4">
      <!-- 2 -->
      <g transform="translate(363.807875 324.001344) scale(0.17 -0.17)">
       <defs>
        <path id="DejaVuSerif-32" d="M 819 3553 
L 469 3553 
L 469 4384 
Q 803 4563 1142 4656 
Q 1481 4750 1806 4750 
Q 2534 4750 2956 4397 
Q 3378 4044 3378 3438 
Q 3378 2753 2422 1800 
Q 2347 1728 2309 1691 
L 1131 513 
L 3078 513 
L 3078 1088 
L 3444 1088 
L 3444 0 
L 434 0 
L 434 341 
L 1850 1753 
Q 2319 2222 2519 2614 
Q 2719 3006 2719 3438 
Q 2719 3909 2473 4175 
Q 2228 4441 1797 4441 
Q 1350 4441 1106 4219 
Q 863 3997 819 3553 
z
" transform="scale(0.015625)"/>
       </defs>
       <use xlink:href="#DejaVuSerif-32"/>
      </g>
     </g>
    </g>
    <g id="xtick_5">
     <g id="line2d_9">
      <defs>
       <path id="m368a726e91" d="M 0 0 
L 0 -2.5 
" style="stroke: #000000; stroke-width: 0.75"/>
      </defs>
      <g>
       <use xlink:href="#m368a726e91" x="103.104" y="307.584" style="stroke: #000000; stroke-width: 0.75"/>
      </g>
     </g>
     <g id="line2d_10">
      <defs>
       <path id="m78ef2027d7" d="M 0 0 
L 0 2.5 
" style="stroke: #000000; stroke-width: 0.75"/>
      </defs>
      <g>
       <use xlink:href="#m78ef2027d7" x="103.104" y="41.472" style="stroke: #000000; stroke-width: 0.75"/>
      </g>
     </g>
    </g>
    <g id="xtick_6">
     <g id="line2d_11">
      <g>
       <use xlink:href="#m368a726e91" x="116.4096" y="307.584" style="stroke: #000000; stroke-width: 0.75"/>
      </g>
     </g>
     <g id="line2d_12">
      <g>
       <use xlink:href="#m78ef2027d7" x="116.4096" y="41.472" style="stroke: #000000; stroke-width: 0.75"/>
      </g>
     </g>
    </g>
    <g id="xtick_7">
     <g id="line2d_13">
      <g>
       <use xlink:href="#m368a726e91" x="129.7152" y="307.584" style="stroke: #000000; stroke-width: 0.75"/>
      </g>
     </g>
     <g id="line2d_14">
      <g>
       <use xlink:href="#m78ef2027d7" x="129.7152" y="41.472" style="stroke: #000000; stroke-width: 0.75"/>
      </g>
     </g>
    </g>
    <g id="xtick_8">
     <g id="line2d_15">
      <g>
       <use xlink:href="#m368a726e91" x="143.0208" y="307.584" style="stroke: #000000; stroke-width: 0.75"/>
      </g>
     </g>
     <g id="line2d_16">
      <g>
       <use xlink:href="#m78ef2027d7" x="143.0208" y="41.472" style="stroke: #000000; stroke-width: 0.75"/>
      </g>
     </g>
    </g>
    <g id="xtick_9">
     <g id="line2d_17">
      <g>
       <use xlink:href="#m368a726e91" x="156.3264" y="307.584" style="stroke: #000000; stroke-width: 0.75"/>
      </g>
     </g>
     <g id="line2d_18">
      <g>
       <use xlink:href="#m78ef2027d7" x="156.3264" y="41.472" style="stroke: #000000; stroke-width: 0.75"/>
      </g>
     </g>
    </g>
    <g id="xtick_10">
     <g id="line2d_19">
      <g>
       <use xlink:href="#m368a726e91" x="182.9376" y="307.584" style="stroke: #000000; stroke-width: 0.75"/>
      </g>
     </g>
     <g id="line2d_20">
      <g>
       <use xlink:href="#m78ef2027d7" x="182.9376" y="41.472" style="stroke: #000000; stroke-width: 0.75"/>
      </g>
     </g>
    </g>
    <g id="xtick_11">
     <g id="line2d_21">
      <g>
       <use xlink:href="#m368a726e91" x="196.2432" y="307.584" style="stroke: #000000; stroke-width: 0.75"/>
      </g>
     </g>
     <g id="line2d_22">
      <g>
       <use xlink:href="#m78ef2027d7" x="196.2432" y="41.472" style="stroke: #000000; stroke-width: 0.75"/>
      </g>
     </g>
    </g>
    <g id="xtick_12">
     <g id="line2d_23">
      <g>
       <use xlink:href="#m368a726e91" x="209.5488" y="307.584" style="stroke: #000000; stroke-width: 0.75"/>
      </g>
     </g>
     <g id="line2d_24">
      <g>
       <use xlink:href="#m78ef2027d7" x="209.5488" y="41.472" style="stroke: #000000; stroke-width: 0.75"/>
      </g>
     </g>
    </g>
    <g id="xtick_13">
     <g id="line2d_25">
      <g>
       <use xlink:href="#m368a726e91" x="222.8544" y="307.584" style="stroke: #000000; stroke-width: 0.75"/>
      </g>
     </g>
     <g id="line2d_26">
      <g>
       <use xlink:href="#m78ef2027d7" x="222.8544" y="41.472" style="stroke: #000000; stroke-width: 0.75"/>
      </g>
     </g>
    </g>
    <g id="xtick_14">
     <g id="line2d_27">
      <g>
       <use xlink:href="#m368a726e91" x="249.4656" y="307.584" style="stroke: #000000; stroke-width: 0.75"/>
      </g>
     </g>
     <g id="line2d_28">
      <g>
       <use xlink:href="#m78ef2027d7" x="249.4656" y="41.472" style="stroke: #000000; stroke-width: 0.75"/>
      </g>
     </g>
    </g>
    <g id="xtick_15">
     <g id="line2d_29">
      <g>
       <use xlink:href="#m368a726e91" x="262.7712" y="307.584" style="stroke: #000000; stroke-width: 0.75"/>
      </g>
     </g>
     <g id="line2d_30">
      <g>
       <use xlink:href="#m78ef2027d7" x="262.7712" y="41.472" style="stroke: #000000; stroke-width: 0.75"/>
      </g>
     </g>
    </g>
    <g id="xtick_16">
     <g id="line2d_31">
      <g>
       <use xlink:href="#m368a726e91" x="276.0768" y="307.584" style="stroke: #000000; stroke-width: 0.75"/>
      </g>
     </g>
     <g id="line2d_32">
      <g>
       <use xlink:href="#m78ef2027d7" x="276.0768" y="41.472" style="stroke: #000000; stroke-width: 0.75"/>
      </g>
     </g>
    </g>
    <g id="xtick_17">
     <g id="line2d_33">
      <g>
       <use xlink:href="#m368a726e91" x="289.3824" y="307.584" style="stroke: #000000; stroke-width: 0.75"/>
      </g>
     </g>
     <g id="line2d_34">
      <g>
       <use xlink:href="#m78ef2027d7" x="289.3824" y="41.472" style="stroke: #000000; stroke-width: 0.75"/>
      </g>
     </g>
    </g>
    <g id="xtick_18">
     <g id="line2d_35">
      <g>
       <use xlink:href="#m368a726e91" x="315.9936" y="307.584" style="stroke: #000000; stroke-width: 0.75"/>
      </g>
     </g>
     <g id="line2d_36">
      <g>
       <use xlink:href="#m78ef2027d7" x="315.9936" y="41.472" style="stroke: #000000; stroke-width: 0.75"/>
      </g>
     </g>
    </g>
    <g id="xtick_19">
     <g id="line2d_37">
      <g>
       <use xlink:href="#m368a726e91" x="329.2992" y="307.584" style="stroke: #000000; stroke-width: 0.75"/>
      </g>
     </g>
     <g id="line2d_38">
      <g>
       <use xlink:href="#m78ef2027d7" x="329.2992" y="41.472" style="stroke: #000000; stroke-width: 0.75"/>
      </g>
     </g>
    </g>
    <g id="xtick_20">
     <g id="line2d_39">
      <g>
       <use xlink:href="#m368a726e91" x="342.6048" y="307.584" style="stroke: #000000; stroke-width: 0.75"/>
      </g>
     </g>
     <g id="line2d_40">
      <g>
       <use xlink:href="#m78ef2027d7" x="342.6048" y="41.472" style="stroke: #000000; stroke-width: 0.75"/>
      </g>
     </g>
    </g>
    <g id="xtick_21">
     <g id="line2d_41">
      <g>
       <use xlink:href="#m368a726e91" x="355.9104" y="307.584" style="stroke: #000000; stroke-width: 0.75"/>
      </g>
     </g>
     <g id="line2d_42">
      <g>
       <use xlink:href="#m78ef2027d7" x="355.9104" y="41.472" style="stroke: #000000; stroke-width: 0.75"/>
      </g>
     </g>
    </g>
    <g id="text_5">
     <!-- Real/$R$ -->
     <g transform="translate(207.6 340.455156) scale(0.17 -0.17)">
      <defs>
       <path id="DejaVuSerif-52" d="M 3066 2316 
Q 3284 2256 3442 2114 
Q 3600 1972 3725 1716 
L 4403 331 
L 4972 331 
L 4972 0 
L 3872 0 
L 3144 1484 
Q 2934 1916 2759 2042 
Q 2584 2169 2278 2169 
L 1581 2169 
L 1581 331 
L 2241 331 
L 2241 0 
L 353 0 
L 353 331 
L 947 331 
L 947 4331 
L 353 4331 
L 353 4666 
L 2719 4666 
Q 3400 4666 3770 4341 
Q 4141 4016 4141 3419 
Q 4141 2938 3870 2661 
Q 3600 2384 3066 2316 
z
M 1581 2503 
L 2503 2503 
Q 2975 2503 3200 2726 
Q 3425 2950 3425 3419 
Q 3425 3888 3200 4109 
Q 2975 4331 2503 4331 
L 1581 4331 
L 1581 2503 
z
" transform="scale(0.015625)"/>
       <path id="DejaVuSerif-65" d="M 3469 1600 
L 991 1600 
L 991 1575 
Q 991 903 1244 561 
Q 1497 219 1991 219 
Q 2369 219 2611 417 
Q 2853 616 2950 1006 
L 3413 1006 
Q 3275 459 2904 184 
Q 2534 -91 1931 -91 
Q 1203 -91 761 389 
Q 319 869 319 1663 
Q 319 2450 753 2931 
Q 1188 3413 1894 3413 
Q 2647 3413 3050 2948 
Q 3453 2484 3469 1600 
z
M 2791 1931 
Q 2772 2513 2545 2808 
Q 2319 3103 1894 3103 
Q 1497 3103 1269 2806 
Q 1041 2509 991 1931 
L 2791 1931 
z
" transform="scale(0.015625)"/>
       <path id="DejaVuSerif-61" d="M 2547 1044 
L 2547 1747 
L 1806 1747 
Q 1378 1747 1168 1562 
Q 959 1378 959 997 
Q 959 650 1171 447 
Q 1384 244 1747 244 
Q 2106 244 2326 466 
Q 2547 688 2547 1044 
z
M 3122 2075 
L 3122 331 
L 3634 331 
L 3634 0 
L 2547 0 
L 2547 359 
Q 2356 128 2106 18 
Q 1856 -91 1522 -91 
Q 969 -91 644 203 
Q 319 497 319 997 
Q 319 1513 691 1797 
Q 1063 2081 1741 2081 
L 2547 2081 
L 2547 2309 
Q 2547 2688 2317 2895 
Q 2088 3103 1672 3103 
Q 1328 3103 1125 2947 
Q 922 2791 872 2484 
L 575 2484 
L 575 3156 
Q 875 3284 1158 3348 
Q 1441 3413 1709 3413 
Q 2400 3413 2761 3070 
Q 3122 2728 3122 2075 
z
" transform="scale(0.015625)"/>
       <path id="DejaVuSerif-6c" d="M 1313 331 
L 1856 331 
L 1856 0 
L 184 0 
L 184 331 
L 738 331 
L 738 4531 
L 184 4531 
L 184 4863 
L 1313 4863 
L 1313 331 
z
" transform="scale(0.015625)"/>
       <path id="DejaVuSerif-2f" d="M 1656 4666 
L 2156 4666 
L 500 -594 
L 0 -594 
L 1656 4666 
z
" transform="scale(0.015625)"/>
       <path id="DejaVuSerif-Italic-52" d="M 3066 2316 
Q 3272 2256 3403 2114 
Q 3534 1972 3609 1716 
L 4016 331 
L 4584 331 
L 4522 0 
L 3422 0 
L 2981 1484 
Q 2856 1916 2706 2042 
Q 2556 2169 2250 2169 
L 1553 2169 
L 1194 331 
L 1853 331 
L 1791 0 
L -97 0 
L -34 331 
L 559 331 
L 1338 4331 
L 744 4331 
L 809 4666 
L 3175 4666 
Q 3856 4666 4164 4341 
Q 4472 4016 4356 3419 
Q 4263 2938 3938 2661 
Q 3613 2384 3066 2316 
z
M 1619 2503 
L 2541 2503 
Q 3013 2503 3280 2726 
Q 3547 2950 3639 3419 
Q 3731 3888 3548 4109 
Q 3366 4331 2894 4331 
L 1972 4331 
L 1619 2503 
z
" transform="scale(0.015625)"/>
      </defs>
      <use xlink:href="#DejaVuSerif-52" transform="translate(0 0.015625)"/>
      <use xlink:href="#DejaVuSerif-65" transform="translate(75.292969 0.015625)"/>
      <use xlink:href="#DejaVuSerif-61" transform="translate(134.472656 0.015625)"/>
      <use xlink:href="#DejaVuSerif-6c" transform="translate(194.091797 0.015625)"/>
      <use xlink:href="#DejaVuSerif-2f" transform="translate(226.074219 0.015625)"/>
      <use xlink:href="#DejaVuSerif-Italic-52" transform="translate(259.765625 0.015625)"/>
     </g>
    </g>
   </g>
   <g id="matplotlib.axis_2">
    <g id="ytick_1">
     <g id="line2d_43">
      <defs>
       <path id="mc7fb42f7fb" d="M 0 0 
L 5 0 
" style="stroke: #000000; stroke-width: 0.75"/>
      </defs>
      <g>
       <use xlink:href="#mc7fb42f7fb" x="103.104" y="241.056" style="stroke: #000000; stroke-width: 0.75"/>
      </g>
     </g>
     <g id="line2d_44">
      <defs>
       <path id="m4e5beb7aa1" d="M 0 0 
L -5 0 
" style="stroke: #000000; stroke-width: 0.75"/>
      </defs>
      <g>
       <use xlink:href="#m4e5beb7aa1" x="369.216" y="241.056" style="stroke: #000000; stroke-width: 0.75"/>
      </g>
     </g>
     <g id="text_6">
      <!-- −1 -->
      <g transform="translate(74.542281 247.514672) scale(0.17 -0.17)">
       <use xlink:href="#DejaVuSerif-2212"/>
       <use xlink:href="#DejaVuSerif-31" x="83.789062"/>
      </g>
     </g>
    </g>
    <g id="ytick_2">
     <g id="line2d_45">
      <g>
       <use xlink:href="#mc7fb42f7fb" x="103.104" y="174.528" style="stroke: #000000; stroke-width: 0.75"/>
      </g>
     </g>
     <g id="line2d_46">
      <g>
       <use xlink:href="#m4e5beb7aa1" x="369.216" y="174.528" style="stroke: #000000; stroke-width: 0.75"/>
      </g>
     </g>
     <g id="text_7">
      <!-- 0 -->
      <g transform="translate(88.78775 180.986672) scale(0.17 -0.17)">
       <use xlink:href="#DejaVuSerif-30"/>
      </g>
     </g>
    </g>
    <g id="ytick_3">
     <g id="line2d_47">
      <g>
       <use xlink:href="#mc7fb42f7fb" x="103.104" y="108" style="stroke: #000000; stroke-width: 0.75"/>
      </g>
     </g>
     <g id="line2d_48">
      <g>
       <use xlink:href="#m4e5beb7aa1" x="369.216" y="108" style="stroke: #000000; stroke-width: 0.75"/>
      </g>
     </g>
     <g id="text_8">
      <!-- 1 -->
      <g transform="translate(88.78775 114.458672) scale(0.17 -0.17)">
       <use xlink:href="#DejaVuSerif-31"/>
      </g>
     </g>
    </g>
    <g id="ytick_4">
     <g id="line2d_49">
      <g>
       <use xlink:href="#mc7fb42f7fb" x="103.104" y="41.472" style="stroke: #000000; stroke-width: 0.75"/>
      </g>
     </g>
     <g id="line2d_50">
      <g>
       <use xlink:href="#m4e5beb7aa1" x="369.216" y="41.472" style="stroke: #000000; stroke-width: 0.75"/>
      </g>
     </g>
     <g id="text_9">
      <!-- 2 -->
      <g transform="translate(88.78775 47.930672) scale(0.17 -0.17)">
       <use xlink:href="#DejaVuSerif-32"/>
      </g>
     </g>
    </g>
    <g id="ytick_5">
     <g id="line2d_51">
      <defs>
       <path id="mfeca4c93e3" d="M 0 0 
L 2.5 0 
" style="stroke: #000000; stroke-width: 0.75"/>
      </defs>
      <g>
       <use xlink:href="#mfeca4c93e3" x="103.104" y="307.584" style="stroke: #000000; stroke-width: 0.75"/>
      </g>
     </g>
     <g id="line2d_52">
      <defs>
       <path id="mcbe5891641" d="M 0 0 
L -2.5 0 
" style="stroke: #000000; stroke-width: 0.75"/>
      </defs>
      <g>
       <use xlink:href="#mcbe5891641" x="369.216" y="307.584" style="stroke: #000000; stroke-width: 0.75"/>
      </g>
     </g>
    </g>
    <g id="ytick_6">
     <g id="line2d_53">
      <g>
       <use xlink:href="#mfeca4c93e3" x="103.104" y="294.2784" style="stroke: #000000; stroke-width: 0.75"/>
      </g>
     </g>
     <g id="line2d_54">
      <g>
       <use xlink:href="#mcbe5891641" x="369.216" y="294.2784" style="stroke: #000000; stroke-width: 0.75"/>
      </g>
     </g>
    </g>
    <g id="ytick_7">
     <g id="line2d_55">
      <g>
       <use xlink:href="#mfeca4c93e3" x="103.104" y="280.9728" style="stroke: #000000; stroke-width: 0.75"/>
      </g>
     </g>
     <g id="line2d_56">
      <g>
       <use xlink:href="#mcbe5891641" x="369.216" y="280.9728" style="stroke: #000000; stroke-width: 0.75"/>
      </g>
     </g>
    </g>
    <g id="ytick_8">
     <g id="line2d_57">
      <g>
       <use xlink:href="#mfeca4c93e3" x="103.104" y="267.6672" style="stroke: #000000; stroke-width: 0.75"/>
      </g>
     </g>
     <g id="line2d_58">
      <g>
       <use xlink:href="#mcbe5891641" x="369.216" y="267.6672" style="stroke: #000000; stroke-width: 0.75"/>
      </g>
     </g>
    </g>
    <g id="ytick_9">
     <g id="line2d_59">
      <g>
       <use xlink:href="#mfeca4c93e3" x="103.104" y="254.3616" style="stroke: #000000; stroke-width: 0.75"/>
      </g>
     </g>
     <g id="line2d_60">
      <g>
       <use xlink:href="#mcbe5891641" x="369.216" y="254.3616" style="stroke: #000000; stroke-width: 0.75"/>
      </g>
     </g>
    </g>
    <g id="ytick_10">
     <g id="line2d_61">
      <g>
       <use xlink:href="#mfeca4c93e3" x="103.104" y="227.7504" style="stroke: #000000; stroke-width: 0.75"/>
      </g>
     </g>
     <g id="line2d_62">
      <g>
       <use xlink:href="#mcbe5891641" x="369.216" y="227.7504" style="stroke: #000000; stroke-width: 0.75"/>
      </g>
     </g>
    </g>
    <g id="ytick_11">
     <g id="line2d_63">
      <g>
       <use xlink:href="#mfeca4c93e3" x="103.104" y="214.4448" style="stroke: #000000; stroke-width: 0.75"/>
      </g>
     </g>
     <g id="line2d_64">
      <g>
       <use xlink:href="#mcbe5891641" x="369.216" y="214.4448" style="stroke: #000000; stroke-width: 0.75"/>
      </g>
     </g>
    </g>
    <g id="ytick_12">
     <g id="line2d_65">
      <g>
       <use xlink:href="#mfeca4c93e3" x="103.104" y="201.1392" style="stroke: #000000; stroke-width: 0.75"/>
      </g>
     </g>
     <g id="line2d_66">
      <g>
       <use xlink:href="#mcbe5891641" x="369.216" y="201.1392" style="stroke: #000000; stroke-width: 0.75"/>
      </g>
     </g>
    </g>
    <g id="ytick_13">
     <g id="line2d_67">
      <g>
       <use xlink:href="#mfeca4c93e3" x="103.104" y="187.8336" style="stroke: #000000; stroke-width: 0.75"/>
      </g>
     </g>
     <g id="line2d_68">
      <g>
       <use xlink:href="#mcbe5891641" x="369.216" y="187.8336" style="stroke: #000000; stroke-width: 0.75"/>
      </g>
     </g>
    </g>
    <g id="ytick_14">
     <g id="line2d_69">
      <g>
       <use xlink:href="#mfeca4c93e3" x="103.104" y="161.2224" style="stroke: #000000; stroke-width: 0.75"/>
      </g>
     </g>
     <g id="line2d_70">
      <g>
       <use xlink:href="#mcbe5891641" x="369.216" y="161.2224" style="stroke: #000000; stroke-width: 0.75"/>
      </g>
     </g>
    </g>
    <g id="ytick_15">
     <g id="line2d_71">
      <g>
       <use xlink:href="#mfeca4c93e3" x="103.104" y="147.9168" style="stroke: #000000; stroke-width: 0.75"/>
      </g>
     </g>
     <g id="line2d_72">
      <g>
       <use xlink:href="#mcbe5891641" x="369.216" y="147.9168" style="stroke: #000000; stroke-width: 0.75"/>
      </g>
     </g>
    </g>
    <g id="ytick_16">
     <g id="line2d_73">
      <g>
       <use xlink:href="#mfeca4c93e3" x="103.104" y="134.6112" style="stroke: #000000; stroke-width: 0.75"/>
      </g>
     </g>
     <g id="line2d_74">
      <g>
       <use xlink:href="#mcbe5891641" x="369.216" y="134.6112" style="stroke: #000000; stroke-width: 0.75"/>
      </g>
     </g>
    </g>
    <g id="ytick_17">
     <g id="line2d_75">
      <g>
       <use xlink:href="#mfeca4c93e3" x="103.104" y="121.3056" style="stroke: #000000; stroke-width: 0.75"/>
      </g>
     </g>
     <g id="line2d_76">
      <g>
       <use xlink:href="#mcbe5891641" x="369.216" y="121.3056" style="stroke: #000000; stroke-width: 0.75"/>
      </g>
     </g>
    </g>
    <g id="ytick_18">
     <g id="line2d_77">
      <g>
       <use xlink:href="#mfeca4c93e3" x="103.104" y="94.6944" style="stroke: #000000; stroke-width: 0.75"/>
      </g>
     </g>
     <g id="line2d_78">
      <g>
       <use xlink:href="#mcbe5891641" x="369.216" y="94.6944" style="stroke: #000000; stroke-width: 0.75"/>
      </g>
     </g>
    </g>
    <g id="ytick_19">
     <g id="line2d_79">
      <g>
       <use xlink:href="#mfeca4c93e3" x="103.104" y="81.3888" style="stroke: #000000; stroke-width: 0.75"/>
      </g>
     </g>
     <g id="line2d_80">
      <g>
       <use xlink:href="#mcbe5891641" x="369.216" y="81.3888" style="stroke: #000000; stroke-width: 0.75"/>
      </g>
     </g>
    </g>
    <g id="ytick_20">
     <g id="line2d_81">
      <g>
       <use xlink:href="#mfeca4c93e3" x="103.104" y="68.0832" style="stroke: #000000; stroke-width: 0.75"/>
      </g>
     </g>
     <g id="line2d_82">
      <g>
       <use xlink:href="#mcbe5891641" x="369.216" y="68.0832" style="stroke: #000000; stroke-width: 0.75"/>
      </g>
     </g>
    </g>
    <g id="ytick_21">
     <g id="line2d_83">
      <g>
       <use xlink:href="#mfeca4c93e3" x="103.104" y="54.7776" style="stroke: #000000; stroke-width: 0.75"/>
      </g>
     </g>
     <g id="line2d_84">
      <g>
       <use xlink:href="#mcbe5891641" x="369.216" y="54.7776" style="stroke: #000000; stroke-width: 0.75"/>
      </g>
     </g>
    </g>
    <g id="text_10">
     <!-- Imag/$R$ -->
     <g transform="translate(80.632281 205.723) rotate(-90) scale(0.17 -0.17)">
      <defs>
       <path id="DejaVuSerif-49" d="M 1581 331 
L 2175 331 
L 2175 0 
L 353 0 
L 353 331 
L 947 331 
L 947 4331 
L 353 4331 
L 353 4666 
L 2175 4666 
L 2175 4331 
L 1581 4331 
L 1581 331 
z
" transform="scale(0.015625)"/>
       <path id="DejaVuSerif-6d" d="M 3316 2675 
Q 3481 3041 3739 3227 
Q 3997 3413 4341 3413 
Q 4863 3413 5119 3089 
Q 5375 2766 5375 2113 
L 5375 331 
L 5894 331 
L 5894 0 
L 4300 0 
L 4300 331 
L 4800 331 
L 4800 2047 
Q 4800 2556 4650 2772 
Q 4500 2988 4153 2988 
Q 3769 2988 3567 2697 
Q 3366 2406 3366 1850 
L 3366 331 
L 3866 331 
L 3866 0 
L 2291 0 
L 2291 331 
L 2791 331 
L 2791 2069 
Q 2791 2566 2641 2777 
Q 2491 2988 2144 2988 
Q 1759 2988 1557 2697 
Q 1356 2406 1356 1850 
L 1356 331 
L 1856 331 
L 1856 0 
L 263 0 
L 263 331 
L 781 331 
L 781 2994 
L 231 2994 
L 231 3322 
L 1356 3322 
L 1356 2731 
Q 1516 3063 1762 3238 
Q 2009 3413 2322 3413 
Q 2709 3413 2968 3220 
Q 3228 3028 3316 2675 
z
" transform="scale(0.015625)"/>
       <path id="DejaVuSerif-67" d="M 3359 2988 
L 3359 72 
Q 3359 -644 2965 -1033 
Q 2572 -1422 1844 -1422 
Q 1516 -1422 1216 -1362 
Q 916 -1303 641 -1184 
L 641 -488 
L 941 -488 
Q 997 -813 1206 -963 
Q 1416 -1113 1806 -1113 
Q 2313 -1113 2548 -827 
Q 2784 -541 2784 72 
L 2784 519 
Q 2616 206 2355 57 
Q 2094 -91 1709 -91 
Q 1097 -91 708 395 
Q 319 881 319 1663 
Q 319 2444 706 2928 
Q 1094 3413 1709 3413 
Q 2094 3413 2355 3264 
Q 2616 3116 2784 2803 
L 2784 3322 
L 3909 3322 
L 3909 2988 
L 3359 2988 
z
M 2784 1825 
Q 2784 2422 2554 2737 
Q 2325 3053 1888 3053 
Q 1444 3053 1217 2703 
Q 991 2353 991 1663 
Q 991 975 1217 622 
Q 1444 269 1888 269 
Q 2325 269 2554 583 
Q 2784 897 2784 1497 
L 2784 1825 
z
" transform="scale(0.015625)"/>
      </defs>
      <use xlink:href="#DejaVuSerif-49" transform="translate(0 0.09375)"/>
      <use xlink:href="#DejaVuSerif-6d" transform="translate(39.501953 0.09375)"/>
      <use xlink:href="#DejaVuSerif-61" transform="translate(134.326172 0.09375)"/>
      <use xlink:href="#DejaVuSerif-67" transform="translate(193.945312 0.09375)"/>
      <use xlink:href="#DejaVuSerif-2f" transform="translate(257.958984 0.09375)"/>
      <use xlink:href="#DejaVuSerif-Italic-52" transform="translate(291.650391 0.09375)"/>
     </g>
    </g>
   </g>
   <g id="line2d_85">
    <path d="M 103.104 174.528 
L 369.216 174.528 
" clip-path="url(#p00111ad0eb)" style="fill: none; stroke: #808080; stroke-linecap: square"/>
   </g>
   <g id="line2d_86">
    <path d="M 236.16 307.584 
L 236.16 41.472 
" clip-path="url(#p00111ad0eb)" style="fill: none; stroke: #808080; stroke-linecap: square"/>
   </g>
   <g id="line2d_87">
    <path d="M 296.70048 174.528 
L 296.594138 178.288065 
L 296.275453 182.03611 
L 295.745444 185.760151 
L 295.005804 189.448285 
L 294.058898 193.08872 
L 292.907754 196.669819 
L 291.556052 200.180132 
L 290.008113 203.608438 
L 288.268885 206.943776 
L 286.343928 210.175485 
L 284.239397 213.293232 
L 281.96202 216.287051 
L 279.519077 219.14737 
L 276.918377 221.865046 
L 274.168236 224.431389 
L 271.277444 226.838197 
L 268.255244 229.077774 
L 265.111298 231.142961 
L 261.855655 233.027155 
L 258.498725 234.724334 
L 255.051238 236.229071 
L 251.524216 237.536556 
L 247.928936 238.642609 
L 244.276889 239.543694 
L 240.579752 240.23693 
L 236.849344 240.720101 
L 233.097591 240.991663 
L 229.336486 241.050747 
L 225.578055 240.897165 
L 221.834311 240.531407 
L 218.117223 239.954643 
L 214.438675 239.168716 
L 210.810426 238.176139 
L 207.244076 236.980086 
L 203.751025 235.58438 
L 200.342441 233.993482 
L 197.029221 232.21248 
L 193.821957 230.247065 
L 190.730901 228.103523 
L 187.765937 225.788705 
L 184.936542 223.310012 
L 182.251761 220.675367 
L 179.720178 217.893194 
L 177.349887 214.972387 
L 175.148464 211.922283 
L 173.122947 208.752633 
L 171.279811 205.473571 
L 169.62495 202.095579 
L 168.163653 198.629456 
L 166.900592 195.086283 
L 165.839805 191.477387 
L 164.984683 187.814306 
L 164.33796 184.108749 
L 163.901703 180.372564 
L 163.677308 176.617695 
L 163.66549 172.856145 
L 163.866289 169.09994 
L 164.279062 165.361088 
L 164.90249 161.651541 
L 165.734579 157.983159 
L 166.77267 154.36767 
L 168.013444 150.816631 
L 169.452934 147.341394 
L 171.086538 143.953071 
L 172.909034 140.662493 
L 174.914596 137.480179 
L 177.096812 134.416303 
L 179.448705 131.480661 
L 181.962757 128.682637 
L 184.63093 126.031175 
L 187.444695 123.534753 
L 190.395057 121.201352 
L 193.472584 119.03843 
L 196.667436 117.052903 
L 199.9694 115.251118 
L 203.367921 113.638835 
L 206.852133 112.221209 
L 210.410898 111.002772 
L 214.032838 109.987418 
L 217.706376 109.178394 
L 221.419766 108.578286 
L 225.161138 108.189013 
L 228.918531 108.011819 
L 232.679932 108.04727 
L 236.433318 108.295254 
L 240.166688 108.754977 
L 243.868108 109.42497 
L 247.525744 110.30309 
L 251.127903 111.386532 
L 254.66307 112.67183 
L 258.119943 114.154876 
L 261.487471 115.830929 
L 264.754888 117.694631 
L 267.911749 119.740023 
L 270.94796 121.960567 
L 273.853817 124.349164 
L 276.620029 126.898178 
L 279.237753 129.599459 
L 281.69862 132.444372 
L 283.994763 135.423823 
L 286.118841 138.528285 
L 288.064065 141.747835 
L 289.824215 145.07218 
L 291.393664 148.490693 
L 292.767396 151.992444 
L 293.941018 155.566239 
L 294.910778 159.200652 
L 295.673576 162.884066 
L 296.226974 166.604704 
L 296.569202 170.350672 
L 296.699167 174.109995 
L 296.699167 174.109995 
" clip-path="url(#p00111ad0eb)" style="fill: none; stroke-dasharray: 3.7,1.6; stroke-dashoffset: 0; stroke: #000000"/>
   </g>
   <g id="line2d_88">
    <path d="M 296.70048 174.528 
L 296.699167 174.109995 
" clip-path="url(#p00111ad0eb)" style="fill: none; stroke-dasharray: 3.7,1.6; stroke-dashoffset: 0; stroke: #000000"/>
   </g>
   <g id="line2d_89">
    <path d="M 345.738269 174.528 
L 345.611524 175.084269 
L 345.231692 175.642443 
L 344.489276 176.285077 
L 343.264709 177.017221 
L 341.428165 177.846157 
L 338.579268 178.867837 
L 334.399295 180.103585 
L 328.555544 181.57913 
L 320.729266 183.319009 
L 310.112476 185.438242 
L 297.541018 187.716538 
L 283.796033 189.98212 
L 269.876307 192.048857 
L 256.844862 193.763042 
L 244.303915 195.18749 
L 232.435351 196.304035 
L 221.363352 197.113113 
L 211.164363 197.630597 
L 201.876364 197.884012 
L 192.874982 197.901989 
L 184.824252 197.699497 
L 177.114862 197.281287 
L 170.337046 196.702524 
L 163.915313 195.939972 
L 157.877812 194.997075 
L 152.70329 193.979062 
L 147.89213 192.820009 
L 143.46141 191.527128 
L 139.426715 190.108926 
L 136.114347 188.719056 
L 133.150418 187.241723 
L 130.543376 185.685705 
L 128.508313 184.225761 
L 126.772993 182.716896 
L 125.341378 181.166635 
L 124.326446 179.760154 
L 123.555886 178.332712 
L 123.031083 176.890013 
L 122.752976 175.437836 
L 122.722064 173.982007 
L 122.938402 172.52837 
L 123.401602 171.082757 
L 124.110834 169.650962 
L 125.064827 168.238712 
L 126.261868 166.851637 
L 127.896358 165.328124 
L 129.83199 163.851055 
L 132.064337 162.427755 
L 134.588275 161.065211 
L 137.727545 159.630554 
L 141.210639 158.287495 
L 145.027547 157.043759 
L 149.598491 155.798625 
L 154.543836 154.690096 
L 159.845967 153.724889 
L 166.014546 152.84159 
L 172.558203 152.140027 
L 179.448103 151.622913 
L 187.267026 151.271369 
L 195.414088 151.134494 
L 203.844578 151.20687 
L 213.186053 151.50912 
L 223.427061 152.075191 
L 233.828407 152.870319 
L 245.002727 153.941574 
L 256.844862 155.292958 
L 269.876307 157.007143 
L 283.796033 159.07388 
L 297.541018 161.339462 
L 310.650882 163.720346 
L 321.66017 165.934213 
L 330.118801 167.852193 
L 335.995276 169.39952 
L 339.850454 170.617784 
L 342.408438 171.626598 
L 344.126642 172.528119 
L 345.076832 173.253467 
L 345.572738 173.892153 
L 345.735682 174.448578 
L 345.735682 174.448578 
" clip-path="url(#p00111ad0eb)" style="fill: none; stroke: #000000; stroke-linecap: square"/>
   </g>
   <g id="patch_3">
    <path d="M 103.104 307.584 
L 103.104 41.472 
" style="fill: none; stroke: #000000; stroke-width: 0.8; stroke-linejoin: miter; stroke-linecap: square"/>
   </g>
   <g id="patch_4">
    <path d="M 369.216 307.584 
L 369.216 41.472 
" style="fill: none; stroke: #000000; stroke-width: 0.8; stroke-linejoin: miter; stroke-linecap: square"/>
   </g>
   <g id="patch_5">
    <path d="M 103.104 307.584 
L 369.216 307.584 
" style="fill: none; stroke: #000000; stroke-width: 0.8; stroke-linejoin: miter; stroke-linecap: square"/>
   </g>
   <g id="patch_6">
    <path d="M 103.104 41.472 
L 369.216 41.472 
" style="fill: none; stroke: #000000; stroke-width: 0.8; stroke-linejoin: miter; stroke-linecap: square"/>
   </g>
   <g id="text_11">
    <!-- -2 -->
    <g transform="translate(84.47616 323.162464) scale(0.17 -0.17)">
     <defs>
      <path id="DejaVuSerif-2d" d="M 281 1959 
L 1881 1959 
L 1881 1472 
L 281 1472 
L 281 1959 
z
" transform="scale(0.015625)"/>
     </defs>
     <use xlink:href="#DejaVuSerif-2d"/>
     <use xlink:href="#DejaVuSerif-32" x="33.789062"/>
    </g>
   </g>
  </g>
 </g>
 <defs>
  <clipPath id="p00111ad0eb">
   <rect x="103.104" y="41.472" width="266.112" height="266.112"/>
  </clipPath>
 </defs>
</svg>
