<?xml version="1.0" encoding="utf-8" standalone="no"?>
<!DOCTYPE svg PUBLIC "-//W3C//DTD SVG 1.1//EN"
  "http://www.w3.org/Graphics/SVG/1.1/DTD/svg11.dtd">
<svg xmlns:xlink="http://www.w3.org/1999/xlink" width="460.8pt" height="345.6pt" viewBox="0 0 460.8 345.6" xmlns="http://www.w3.org/2000/svg" version="1.1">
 <metadata>
  <rdf:RDF xmlns:dc="http://purl.org/dc/elements/1.1/" xmlns:cc="http://creativecommons.org/ns#" xmlns:rdf="http://www.w3.org/1999/02/22-rdf-syntax-ns#">
   <cc:Work>
    <dc:type rdf:resource="http://purl.org/dc/dcmitype/StillImage"/>
    <dc:date>2025-03-05T09:09:26.129315</dc:date>
    <dc:format>image/svg+xml</dc:format>
    <dc:creator>
     <cc:Agent>
      <dc:title>Matplotlib v3.9.2, https://matplotlib.org/</dc:title>
     </cc:Agent>
    </dc:creator>
   </cc:Work>
  </rdf:RDF>
 </metadata>
 <defs>
  <style type="text/css">*{stroke-linejoin: round; stroke-linecap: butt}</style>
 </defs>
 <g id="figure_1">
  <g id="patch_1">
   <path d="M 0 345.6 
L 460.8 345.6 
L 460.8 0 
L 0 0 
z
" style="fill: #ffffff"/>
  </g>
  <g id="axes_1">
   <g id="patch_2">
    <path d="M 103.104 307.584 
L 369.216 307.584 
L 369.216 41.472 
L 103.104 41.472 
z
" style="fill: #ffffff"/>
   </g>
   <g id="matplotlib.axis_1">
    <g id="xtick_1">
     <g id="line2d_1">
      <defs>
       <path id="m35c14926c6" d="M 0 0 
L 0 -5 
" style="stroke: #000000; stroke-width: 0.75"/>
      </defs>
      <g>
       <use xlink:href="#m35c14926c6" x="169.632" y="307.584" style="stroke: #000000; stroke-width: 0.75"/>
      </g>
     </g>
     <g id="line2d_2">
      <defs>
       <path id="md82a9187af" d="M 0 0 
L 0 5 
" style="stroke: #000000; stroke-width: 0.75"/>
      </defs>
      <g>
       <use xlink:href="#md82a9187af" x="169.632" y="41.472" style="stroke: #000000; stroke-width: 0.75"/>
      </g>
     </g>
     <g id="text_1">
      <!-- −1 -->
      <g transform="translate(157.101141 324.001344) scale(0.17 -0.17)">
       <defs>
        <path id="DejaVuSerif-2212" d="M 678 2259 
L 4684 2259 
L 4684 1753 
L 678 1753 
L 678 2259 
z
" transform="scale(0.015625)"/>
        <path id="DejaVuSerif-31" d="M 909 0 
L 909 331 
L 1722 331 
L 1722 4213 
L 781 3603 
L 781 4013 
L 1919 4750 
L 2350 4750 
L 2350 331 
L 3163 331 
L 3163 0 
L 909 0 
z
" transform="scale(0.015625)"/>
       </defs>
       <use xlink:href="#DejaVuSerif-2212"/>
       <use xlink:href="#DejaVuSerif-31" x="83.789062"/>
      </g>
     </g>
    </g>
    <g id="xtick_2">
     <g id="line2d_3">
      <g>
       <use xlink:href="#m35c14926c6" x="236.16" y="307.584" style="stroke: #000000; stroke-width: 0.75"/>
      </g>
     </g>
     <g id="line2d_4">
      <g>
       <use xlink:href="#md82a9187af" x="236.16" y="41.472" style="stroke: #000000; stroke-width: 0.75"/>
      </g>
     </g>
     <g id="text_2">
      <!-- 0 -->
      <g transform="translate(230.751875 324.001344) scale(0.17 -0.17)">
       <defs>
        <path id="DejaVuSerif-30" d="M 2034 219 
Q 2513 219 2750 744 
Q 2988 1269 2988 2328 
Q 2988 3391 2750 3916 
Q 2513 4441 2034 4441 
Q 1556 4441 1318 3916 
Q 1081 3391 1081 2328 
Q 1081 1269 1318 744 
Q 1556 219 2034 219 
z
M 2034 -91 
Q 1275 -91 848 546 
Q 422 1184 422 2328 
Q 422 3475 848 4112 
Q 1275 4750 2034 4750 
Q 2797 4750 3222 4112 
Q 3647 3475 3647 2328 
Q 3647 1184 3222 546 
Q 2797 -91 2034 -91 
z
" transform="scale(0.015625)"/>
       </defs>
       <use xlink:href="#DejaVuSerif-30"/>
      </g>
     </g>
    </g>
    <g id="xtick_3">
     <g id="line2d_5">
      <g>
       <use xlink:href="#m35c14926c6" x="302.688" y="307.584" style="stroke: #000000; stroke-width: 0.75"/>
      </g>
     </g>
     <g id="line2d_6">
      <g>
       <use xlink:href="#md82a9187af" x="302.688" y="41.472" style="stroke: #000000; stroke-width: 0.75"/>
      </g>
     </g>
     <g id="text_3">
      <!-- 1 -->
      <g transform="translate(297.279875 324.001344) scale(0.17 -0.17)">
       <use xlink:href="#DejaVuSerif-31"/>
      </g>
     </g>
    </g>
    <g id="xtick_4">
     <g id="line2d_7">
      <g>
       <use xlink:href="#m35c14926c6" x="369.216" y="307.584" style="stroke: #000000; stroke-width: 0.75"/>
      </g>
     </g>
     <g id="line2d_8">
      <g>
       <use xlink:href="#md82a9187af" x="369.216" y="41.472" style="stroke: #000000; stroke-width: 0.75"/>
      </g>
     </g>
     <g id="text_4">
      <!-- 2 -->
      <g transform="translate(363.807875 324.001344) scale(0.17 -0.17)">
       <defs>
        <path id="DejaVuSerif-32" d="M 819 3553 
L 469 3553 
L 469 4384 
Q 803 4563 1142 4656 
Q 1481 4750 1806 4750 
Q 2534 4750 2956 4397 
Q 3378 4044 3378 3438 
Q 3378 2753 2422 1800 
Q 2347 1728 2309 1691 
L 1131 513 
L 3078 513 
L 3078 1088 
L 3444 1088 
L 3444 0 
L 434 0 
L 434 341 
L 1850 1753 
Q 2319 2222 2519 2614 
Q 2719 3006 2719 3438 
Q 2719 3909 2473 4175 
Q 2228 4441 1797 4441 
Q 1350 4441 1106 4219 
Q 863 3997 819 3553 
z
" transform="scale(0.015625)"/>
       </defs>
       <use xlink:href="#DejaVuSerif-32"/>
      </g>
     </g>
    </g>
    <g id="xtick_5">
     <g id="line2d_9">
      <defs>
       <path id="mdb161007c9" d="M 0 0 
L 0 -2.5 
" style="stroke: #000000; stroke-width: 0.75"/>
      </defs>
      <g>
       <use xlink:href="#mdb161007c9" x="103.104" y="307.584" style="stroke: #000000; stroke-width: 0.75"/>
      </g>
     </g>
     <g id="line2d_10">
      <defs>
       <path id="m6c031214c3" d="M 0 0 
L 0 2.5 
" style="stroke: #000000; stroke-width: 0.75"/>
      </defs>
      <g>
       <use xlink:href="#m6c031214c3" x="103.104" y="41.472" style="stroke: #000000; stroke-width: 0.75"/>
      </g>
     </g>
    </g>
    <g id="xtick_6">
     <g id="line2d_11">
      <g>
       <use xlink:href="#mdb161007c9" x="116.4096" y="307.584" style="stroke: #000000; stroke-width: 0.75"/>
      </g>
     </g>
     <g id="line2d_12">
      <g>
       <use xlink:href="#m6c031214c3" x="116.4096" y="41.472" style="stroke: #000000; stroke-width: 0.75"/>
      </g>
     </g>
    </g>
    <g id="xtick_7">
     <g id="line2d_13">
      <g>
       <use xlink:href="#mdb161007c9" x="129.7152" y="307.584" style="stroke: #000000; stroke-width: 0.75"/>
      </g>
     </g>
     <g id="line2d_14">
      <g>
       <use xlink:href="#m6c031214c3" x="129.7152" y="41.472" style="stroke: #000000; stroke-width: 0.75"/>
      </g>
     </g>
    </g>
    <g id="xtick_8">
     <g id="line2d_15">
      <g>
       <use xlink:href="#mdb161007c9" x="143.0208" y="307.584" style="stroke: #000000; stroke-width: 0.75"/>
      </g>
     </g>
     <g id="line2d_16">
      <g>
       <use xlink:href="#m6c031214c3" x="143.0208" y="41.472" style="stroke: #000000; stroke-width: 0.75"/>
      </g>
     </g>
    </g>
    <g id="xtick_9">
     <g id="line2d_17">
      <g>
       <use xlink:href="#mdb161007c9" x="156.3264" y="307.584" style="stroke: #000000; stroke-width: 0.75"/>
      </g>
     </g>
     <g id="line2d_18">
      <g>
       <use xlink:href="#m6c031214c3" x="156.3264" y="41.472" style="stroke: #000000; stroke-width: 0.75"/>
      </g>
     </g>
    </g>
    <g id="xtick_10">
     <g id="line2d_19">
      <g>
       <use xlink:href="#mdb161007c9" x="182.9376" y="307.584" style="stroke: #000000; stroke-width: 0.75"/>
      </g>
     </g>
     <g id="line2d_20">
      <g>
       <use xlink:href="#m6c031214c3" x="182.9376" y="41.472" style="stroke: #000000; stroke-width: 0.75"/>
      </g>
     </g>
    </g>
    <g id="xtick_11">
     <g id="line2d_21">
      <g>
       <use xlink:href="#mdb161007c9" x="196.2432" y="307.584" style="stroke: #000000; stroke-width: 0.75"/>
      </g>
     </g>
     <g id="line2d_22">
      <g>
       <use xlink:href="#m6c031214c3" x="196.2432" y="41.472" style="stroke: #000000; stroke-width: 0.75"/>
      </g>
     </g>
    </g>
    <g id="xtick_12">
     <g id="line2d_23">
      <g>
       <use xlink:href="#mdb161007c9" x="209.5488" y="307.584" style="stroke: #000000; stroke-width: 0.75"/>
      </g>
     </g>
     <g id="line2d_24">
      <g>
       <use xlink:href="#m6c031214c3" x="209.5488" y="41.472" style="stroke: #000000; stroke-width: 0.75"/>
      </g>
     </g>
    </g>
    <g id="xtick_13">
     <g id="line2d_25">
      <g>
       <use xlink:href="#mdb161007c9" x="222.8544" y="307.584" style="stroke: #000000; stroke-width: 0.75"/>
      </g>
     </g>
     <g id="line2d_26">
      <g>
       <use xlink:href="#m6c031214c3" x="222.8544" y="41.472" style="stroke: #000000; stroke-width: 0.75"/>
      </g>
     </g>
    </g>
    <g id="xtick_14">
     <g id="line2d_27">
      <g>
       <use xlink:href="#mdb161007c9" x="249.4656" y="307.584" style="stroke: #000000; stroke-width: 0.75"/>
      </g>
     </g>
     <g id="line2d_28">
      <g>
       <use xlink:href="#m6c031214c3" x="249.4656" y="41.472" style="stroke: #000000; stroke-width: 0.75"/>
      </g>
     </g>
    </g>
    <g id="xtick_15">
     <g id="line2d_29">
      <g>
       <use xlink:href="#mdb161007c9" x="262.7712" y="307.584" style="stroke: #000000; stroke-width: 0.75"/>
      </g>
     </g>
     <g id="line2d_30">
      <g>
       <use xlink:href="#m6c031214c3" x="262.7712" y="41.472" style="stroke: #000000; stroke-width: 0.75"/>
      </g>
     </g>
    </g>
    <g id="xtick_16">
     <g id="line2d_31">
      <g>
       <use xlink:href="#mdb161007c9" x="276.0768" y="307.584" style="stroke: #000000; stroke-width: 0.75"/>
      </g>
     </g>
     <g id="line2d_32">
      <g>
       <use xlink:href="#m6c031214c3" x="276.0768" y="41.472" style="stroke: #000000; stroke-width: 0.75"/>
      </g>
     </g>
    </g>
    <g id="xtick_17">
     <g id="line2d_33">
      <g>
       <use xlink:href="#mdb161007c9" x="289.3824" y="307.584" style="stroke: #000000; stroke-width: 0.75"/>
      </g>
     </g>
     <g id="line2d_34">
      <g>
       <use xlink:href="#m6c031214c3" x="289.3824" y="41.472" style="stroke: #000000; stroke-width: 0.75"/>
      </g>
     </g>
    </g>
    <g id="xtick_18">
     <g id="line2d_35">
      <g>
       <use xlink:href="#mdb161007c9" x="315.9936" y="307.584" style="stroke: #000000; stroke-width: 0.75"/>
      </g>
     </g>
     <g id="line2d_36">
      <g>
       <use xlink:href="#m6c031214c3" x="315.9936" y="41.472" style="stroke: #000000; stroke-width: 0.75"/>
      </g>
     </g>
    </g>
    <g id="xtick_19">
     <g id="line2d_37">
      <g>
       <use xlink:href="#mdb161007c9" x="329.2992" y="307.584" style="stroke: #000000; stroke-width: 0.75"/>
      </g>
     </g>
     <g id="line2d_38">
      <g>
       <use xlink:href="#m6c031214c3" x="329.2992" y="41.472" style="stroke: #000000; stroke-width: 0.75"/>
      </g>
     </g>
    </g>
    <g id="xtick_20">
     <g id="line2d_39">
      <g>
       <use xlink:href="#mdb161007c9" x="342.6048" y="307.584" style="stroke: #000000; stroke-width: 0.75"/>
      </g>
     </g>
     <g id="line2d_40">
      <g>
       <use xlink:href="#m6c031214c3" x="342.6048" y="41.472" style="stroke: #000000; stroke-width: 0.75"/>
      </g>
     </g>
    </g>
    <g id="xtick_21">
     <g id="line2d_41">
      <g>
       <use xlink:href="#mdb161007c9" x="355.9104" y="307.584" style="stroke: #000000; stroke-width: 0.75"/>
      </g>
     </g>
     <g id="line2d_42">
      <g>
       <use xlink:href="#m6c031214c3" x="355.9104" y="41.472" style="stroke: #000000; stroke-width: 0.75"/>
      </g>
     </g>
    </g>
    <g id="text_5">
     <!-- $\xi$/$R$ -->
     <g transform="translate(222.135 340.457812) scale(0.17 -0.17)">
      <defs>
       <path id="DejaVuSerif-Italic-3be" d="M 2806 2600 
L 2741 2266 
Q 1906 2266 1572 2072 
Q 984 1731 894 1259 
Q 803 797 972 450 
Q 1078 225 1788 225 
Q 2769 228 2769 -459 
Q 2769 -816 2378 -1097 
Q 2050 -1334 1453 -1334 
L 1519 -997 
Q 2144 -997 2241 -506 
Q 2322 -91 1713 -91 
Q 703 -91 416 281 
Q 106 678 222 1259 
Q 319 1759 1069 2266 
Q 1213 2363 1728 2450 
Q 938 2719 1069 3394 
Q 1219 4163 2309 4478 
L 1116 4478 
L 1028 4028 
L 700 4028 
L 863 4863 
L 3784 4863 
L 3709 4481 
Q 1931 4363 1734 3356 
Q 1594 2628 2806 2600 
z
" transform="scale(0.015625)"/>
       <path id="DejaVuSerif-2f" d="M 1656 4666 
L 2156 4666 
L 500 -594 
L 0 -594 
L 1656 4666 
z
" transform="scale(0.015625)"/>
       <path id="DejaVuSerif-Italic-52" d="M 3066 2316 
Q 3272 2256 3403 2114 
Q 3534 1972 3609 1716 
L 4016 331 
L 4584 331 
L 4522 0 
L 3422 0 
L 2981 1484 
Q 2856 1916 2706 2042 
Q 2556 2169 2250 2169 
L 1553 2169 
L 1194 331 
L 1853 331 
L 1791 0 
L -97 0 
L -34 331 
L 559 331 
L 1338 4331 
L 744 4331 
L 809 4666 
L 3175 4666 
Q 3856 4666 4164 4341 
Q 4472 4016 4356 3419 
Q 4263 2938 3938 2661 
Q 3613 2384 3066 2316 
z
M 1619 2503 
L 2541 2503 
Q 3013 2503 3280 2726 
Q 3547 2950 3639 3419 
Q 3731 3888 3548 4109 
Q 3366 4331 2894 4331 
L 1972 4331 
L 1619 2503 
z
" transform="scale(0.015625)"/>
      </defs>
      <use xlink:href="#DejaVuSerif-Italic-3be" transform="translate(0 0.015625)"/>
      <use xlink:href="#DejaVuSerif-2f" transform="translate(55.078125 0.015625)"/>
      <use xlink:href="#DejaVuSerif-Italic-52" transform="translate(88.769531 0.015625)"/>
     </g>
    </g>
   </g>
   <g id="matplotlib.axis_2">
    <g id="ytick_1">
     <g id="line2d_43">
      <defs>
       <path id="mc8eee10a9a" d="M 0 0 
L 5 0 
" style="stroke: #000000; stroke-width: 0.75"/>
      </defs>
      <g>
       <use xlink:href="#mc8eee10a9a" x="103.104" y="241.056" style="stroke: #000000; stroke-width: 0.75"/>
      </g>
     </g>
     <g id="line2d_44">
      <defs>
       <path id="m650ec1e7c2" d="M 0 0 
L -5 0 
" style="stroke: #000000; stroke-width: 0.75"/>
      </defs>
      <g>
       <use xlink:href="#m650ec1e7c2" x="369.216" y="241.056" style="stroke: #000000; stroke-width: 0.75"/>
      </g>
     </g>
     <g id="text_6">
      <!-- −1 -->
      <g transform="translate(74.542281 247.514672) scale(0.17 -0.17)">
       <use xlink:href="#DejaVuSerif-2212"/>
       <use xlink:href="#DejaVuSerif-31" x="83.789062"/>
      </g>
     </g>
    </g>
    <g id="ytick_2">
     <g id="line2d_45">
      <g>
       <use xlink:href="#mc8eee10a9a" x="103.104" y="174.528" style="stroke: #000000; stroke-width: 0.75"/>
      </g>
     </g>
     <g id="line2d_46">
      <g>
       <use xlink:href="#m650ec1e7c2" x="369.216" y="174.528" style="stroke: #000000; stroke-width: 0.75"/>
      </g>
     </g>
     <g id="text_7">
      <!-- 0 -->
      <g transform="translate(88.78775 180.986672) scale(0.17 -0.17)">
       <use xlink:href="#DejaVuSerif-30"/>
      </g>
     </g>
    </g>
    <g id="ytick_3">
     <g id="line2d_47">
      <g>
       <use xlink:href="#mc8eee10a9a" x="103.104" y="108" style="stroke: #000000; stroke-width: 0.75"/>
      </g>
     </g>
     <g id="line2d_48">
      <g>
       <use xlink:href="#m650ec1e7c2" x="369.216" y="108" style="stroke: #000000; stroke-width: 0.75"/>
      </g>
     </g>
     <g id="text_8">
      <!-- 1 -->
      <g transform="translate(88.78775 114.458672) scale(0.17 -0.17)">
       <use xlink:href="#DejaVuSerif-31"/>
      </g>
     </g>
    </g>
    <g id="ytick_4">
     <g id="line2d_49">
      <g>
       <use xlink:href="#mc8eee10a9a" x="103.104" y="41.472" style="stroke: #000000; stroke-width: 0.75"/>
      </g>
     </g>
     <g id="line2d_50">
      <g>
       <use xlink:href="#m650ec1e7c2" x="369.216" y="41.472" style="stroke: #000000; stroke-width: 0.75"/>
      </g>
     </g>
     <g id="text_9">
      <!-- 2 -->
      <g transform="translate(88.78775 47.930672) scale(0.17 -0.17)">
       <use xlink:href="#DejaVuSerif-32"/>
      </g>
     </g>
    </g>
    <g id="ytick_5">
     <g id="line2d_51">
      <defs>
       <path id="madf74b046d" d="M 0 0 
L 2.5 0 
" style="stroke: #000000; stroke-width: 0.75"/>
      </defs>
      <g>
       <use xlink:href="#madf74b046d" x="103.104" y="307.584" style="stroke: #000000; stroke-width: 0.75"/>
      </g>
     </g>
     <g id="line2d_52">
      <defs>
       <path id="md8d1f17058" d="M 0 0 
L -2.5 0 
" style="stroke: #000000; stroke-width: 0.75"/>
      </defs>
      <g>
       <use xlink:href="#md8d1f17058" x="369.216" y="307.584" style="stroke: #000000; stroke-width: 0.75"/>
      </g>
     </g>
    </g>
    <g id="ytick_6">
     <g id="line2d_53">
      <g>
       <use xlink:href="#madf74b046d" x="103.104" y="294.2784" style="stroke: #000000; stroke-width: 0.75"/>
      </g>
     </g>
     <g id="line2d_54">
      <g>
       <use xlink:href="#md8d1f17058" x="369.216" y="294.2784" style="stroke: #000000; stroke-width: 0.75"/>
      </g>
     </g>
    </g>
    <g id="ytick_7">
     <g id="line2d_55">
      <g>
       <use xlink:href="#madf74b046d" x="103.104" y="280.9728" style="stroke: #000000; stroke-width: 0.75"/>
      </g>
     </g>
     <g id="line2d_56">
      <g>
       <use xlink:href="#md8d1f17058" x="369.216" y="280.9728" style="stroke: #000000; stroke-width: 0.75"/>
      </g>
     </g>
    </g>
    <g id="ytick_8">
     <g id="line2d_57">
      <g>
       <use xlink:href="#madf74b046d" x="103.104" y="267.6672" style="stroke: #000000; stroke-width: 0.75"/>
      </g>
     </g>
     <g id="line2d_58">
      <g>
       <use xlink:href="#md8d1f17058" x="369.216" y="267.6672" style="stroke: #000000; stroke-width: 0.75"/>
      </g>
     </g>
    </g>
    <g id="ytick_9">
     <g id="line2d_59">
      <g>
       <use xlink:href="#madf74b046d" x="103.104" y="254.3616" style="stroke: #000000; stroke-width: 0.75"/>
      </g>
     </g>
     <g id="line2d_60">
      <g>
       <use xlink:href="#md8d1f17058" x="369.216" y="254.3616" style="stroke: #000000; stroke-width: 0.75"/>
      </g>
     </g>
    </g>
    <g id="ytick_10">
     <g id="line2d_61">
      <g>
       <use xlink:href="#madf74b046d" x="103.104" y="227.7504" style="stroke: #000000; stroke-width: 0.75"/>
      </g>
     </g>
     <g id="line2d_62">
      <g>
       <use xlink:href="#md8d1f17058" x="369.216" y="227.7504" style="stroke: #000000; stroke-width: 0.75"/>
      </g>
     </g>
    </g>
    <g id="ytick_11">
     <g id="line2d_63">
      <g>
       <use xlink:href="#madf74b046d" x="103.104" y="214.4448" style="stroke: #000000; stroke-width: 0.75"/>
      </g>
     </g>
     <g id="line2d_64">
      <g>
       <use xlink:href="#md8d1f17058" x="369.216" y="214.4448" style="stroke: #000000; stroke-width: 0.75"/>
      </g>
     </g>
    </g>
    <g id="ytick_12">
     <g id="line2d_65">
      <g>
       <use xlink:href="#madf74b046d" x="103.104" y="201.1392" style="stroke: #000000; stroke-width: 0.75"/>
      </g>
     </g>
     <g id="line2d_66">
      <g>
       <use xlink:href="#md8d1f17058" x="369.216" y="201.1392" style="stroke: #000000; stroke-width: 0.75"/>
      </g>
     </g>
    </g>
    <g id="ytick_13">
     <g id="line2d_67">
      <g>
       <use xlink:href="#madf74b046d" x="103.104" y="187.8336" style="stroke: #000000; stroke-width: 0.75"/>
      </g>
     </g>
     <g id="line2d_68">
      <g>
       <use xlink:href="#md8d1f17058" x="369.216" y="187.8336" style="stroke: #000000; stroke-width: 0.75"/>
      </g>
     </g>
    </g>
    <g id="ytick_14">
     <g id="line2d_69">
      <g>
       <use xlink:href="#madf74b046d" x="103.104" y="161.2224" style="stroke: #000000; stroke-width: 0.75"/>
      </g>
     </g>
     <g id="line2d_70">
      <g>
       <use xlink:href="#md8d1f17058" x="369.216" y="161.2224" style="stroke: #000000; stroke-width: 0.75"/>
      </g>
     </g>
    </g>
    <g id="ytick_15">
     <g id="line2d_71">
      <g>
       <use xlink:href="#madf74b046d" x="103.104" y="147.9168" style="stroke: #000000; stroke-width: 0.75"/>
      </g>
     </g>
     <g id="line2d_72">
      <g>
       <use xlink:href="#md8d1f17058" x="369.216" y="147.9168" style="stroke: #000000; stroke-width: 0.75"/>
      </g>
     </g>
    </g>
    <g id="ytick_16">
     <g id="line2d_73">
      <g>
       <use xlink:href="#madf74b046d" x="103.104" y="134.6112" style="stroke: #000000; stroke-width: 0.75"/>
      </g>
     </g>
     <g id="line2d_74">
      <g>
       <use xlink:href="#md8d1f17058" x="369.216" y="134.6112" style="stroke: #000000; stroke-width: 0.75"/>
      </g>
     </g>
    </g>
    <g id="ytick_17">
     <g id="line2d_75">
      <g>
       <use xlink:href="#madf74b046d" x="103.104" y="121.3056" style="stroke: #000000; stroke-width: 0.75"/>
      </g>
     </g>
     <g id="line2d_76">
      <g>
       <use xlink:href="#md8d1f17058" x="369.216" y="121.3056" style="stroke: #000000; stroke-width: 0.75"/>
      </g>
     </g>
    </g>
    <g id="ytick_18">
     <g id="line2d_77">
      <g>
       <use xlink:href="#madf74b046d" x="103.104" y="94.6944" style="stroke: #000000; stroke-width: 0.75"/>
      </g>
     </g>
     <g id="line2d_78">
      <g>
       <use xlink:href="#md8d1f17058" x="369.216" y="94.6944" style="stroke: #000000; stroke-width: 0.75"/>
      </g>
     </g>
    </g>
    <g id="ytick_19">
     <g id="line2d_79">
      <g>
       <use xlink:href="#madf74b046d" x="103.104" y="81.3888" style="stroke: #000000; stroke-width: 0.75"/>
      </g>
     </g>
     <g id="line2d_80">
      <g>
       <use xlink:href="#md8d1f17058" x="369.216" y="81.3888" style="stroke: #000000; stroke-width: 0.75"/>
      </g>
     </g>
    </g>
    <g id="ytick_20">
     <g id="line2d_81">
      <g>
       <use xlink:href="#madf74b046d" x="103.104" y="68.0832" style="stroke: #000000; stroke-width: 0.75"/>
      </g>
     </g>
     <g id="line2d_82">
      <g>
       <use xlink:href="#md8d1f17058" x="369.216" y="68.0832" style="stroke: #000000; stroke-width: 0.75"/>
      </g>
     </g>
    </g>
    <g id="ytick_21">
     <g id="line2d_83">
      <g>
       <use xlink:href="#madf74b046d" x="103.104" y="54.7776" style="stroke: #000000; stroke-width: 0.75"/>
      </g>
     </g>
     <g id="line2d_84">
      <g>
       <use xlink:href="#md8d1f17058" x="369.216" y="54.7776" style="stroke: #000000; stroke-width: 0.75"/>
      </g>
     </g>
    </g>
    <g id="text_10">
     <!-- $\eta$/$R$ -->
     <g transform="translate(80.972281 188.893) rotate(-90) scale(0.17 -0.17)">
      <defs>
       <path id="DejaVuSerif-Italic-3b7" d="M 1153 0 
L 578 0 
L 1159 2988 
L 609 2988 
L 675 3322 
L 1800 3322 
L 1684 2731 
Q 1909 3069 2198 3241 
Q 2488 3413 2825 3413 
Q 3366 3413 3572 3097 
Q 3772 2791 3641 2113 
L 2969 -1331 
L 2391 -1331 
L 3025 1931 
Q 3144 2541 3037 2767 
Q 2931 2994 2553 2994 
Q 2153 2994 1887 2701 
Q 1622 2409 1513 1850 
L 1153 0 
z
" transform="scale(0.015625)"/>
      </defs>
      <use xlink:href="#DejaVuSerif-Italic-3b7" transform="translate(0 0.09375)"/>
      <use xlink:href="#DejaVuSerif-2f" transform="translate(59.912109 0.09375)"/>
      <use xlink:href="#DejaVuSerif-Italic-52" transform="translate(93.603516 0.09375)"/>
     </g>
    </g>
   </g>
   <g id="line2d_85">
    <path d="M 123.0624 174.528 
L 123.38639 170.724372 
L 123.872653 168.529517 
L 124.683835 166.081649 
L 125.658496 163.900079 
L 126.797331 161.864057 
L 128.264326 159.709852 
L 129.898049 157.704296 
L 131.863804 155.660328 
L 134.000035 153.764631 
L 136.473758 151.882595 
L 139.123153 150.153067 
L 141.950705 148.565484 
L 145.126795 147.040162 
L 148.488882 145.67177 
L 152.210472 144.405231 
L 156.128564 143.312283 
L 160.248339 142.393011 
L 164.749546 141.624098 
L 169.468351 141.050813 
L 174.412872 140.677172 
L 179.592407 140.508637 
L 185.01765 140.551879 
L 190.885662 140.826622 
L 197.032068 141.34321 
L 203.474729 142.110584 
L 210.234675 143.138339 
L 217.536427 144.475887 
L 225.425347 146.153304 
L 233.958143 148.199693 
L 243.425645 150.701744 
L 254.635916 153.902339 
L 270.318957 158.636204 
L 293.531452 165.636681 
L 304.081811 168.572988 
L 312.502812 170.692962 
L 319.742307 172.288579 
L 325.967952 173.431748 
L 331.055147 174.147807 
L 334.890023 174.489338 
L 335.952 174.528 
L 123.224376 177.219892 
L 123.710528 179.897853 
L 124.35925 182.095814 
L 125.333458 184.486973 
L 126.471758 186.650266 
L 127.774977 188.6724 
L 129.407515 190.783911 
L 131.207904 192.750451 
L 133.341985 194.737675 
L 135.648115 196.577315 
L 138.294003 198.389359 
L 141.117702 200.047329 
L 144.12197 201.559736 
L 147.47818 202.996935 
L 151.023616 204.272709 
L 154.933061 205.434247 
L 159.043334 206.416669 
L 163.360203 207.21898 
L 167.89021 207.838253 
L 172.817699 208.282114 
L 177.978356 208.517861 
L 183.382615 208.53947 
L 189.042519 208.339751 
L 194.97204 207.910525 
L 201.377505 207.219102 
L 208.095396 206.266028 
L 215.149766 205.041524 
L 222.772376 203.491618 
L 231.015032 201.586817 
L 240.159237 199.241619 
L 250.765729 196.282345 
L 264.246574 192.27387 
L 297.169117 182.37905 
L 306.744611 179.787067 
L 314.673647 177.8593 
L 321.358131 176.447509 
L 327.309098 175.413251 
L 332.091998 174.794581 
L 335.597223 174.535474 
L 335.952 174.528 
L 335.952 174.528 
" clip-path="url(#pcfecc947ea)" style="fill: none; stroke: #1f77b4; stroke-linecap: square"/>
   </g>
   <g id="line2d_86">
    <path d="M 123.658158 174.528 
L 123.981002 170.68171 
L 124.465539 168.462034 
L 125.273832 165.986147 
L 126.244999 163.779176 
L 127.379725 161.71896 
L 128.84138 159.538492 
L 130.469097 157.507711 
L 132.42754 155.437059 
L 134.555715 153.515503 
L 137.019969 151.606441 
L 139.659048 149.850543 
L 142.47539 148.23706 
L 145.638634 146.684804 
L 148.986825 145.289892 
L 152.692666 143.995937 
L 156.593748 142.875944 
L 160.695151 141.929929 
L 165.002622 141.160034 
L 169.697392 140.551398 
L 174.615857 140.14313 
L 179.767108 139.940613 
L 185.161594 139.950486 
L 190.811391 140.180463 
L 196.91699 140.657023 
L 203.314849 141.385411 
L 210.025451 142.375389 
L 217.271087 143.67567 
L 224.892703 145.271551 
L 233.136529 147.224717 
L 242.285228 149.622349 
L 252.901907 152.641102 
L 266.645125 156.797005 
L 298.025493 166.369077 
L 307.872357 169.086908 
L 315.795935 171.055626 
L 322.803496 172.571143 
L 328.767052 173.637402 
L 334.259105 174.388973 
L 334.95907 174.528 
L 123.819562 177.250054 
L 124.30399 179.958204 
L 124.950405 182.18121 
L 125.921129 184.600036 
L 127.05533 186.788873 
L 128.353818 188.835462 
L 129.980374 190.973268 
L 131.77409 192.965176 
L 133.900158 194.979124 
L 136.197503 196.844742 
L 138.833146 198.683875 
L 141.645711 200.368332 
L 144.637902 201.90679 
L 147.980333 203.371031 
L 151.510875 204.673459 
L 155.233659 205.81553 
L 159.324431 206.834372 
L 163.620205 207.672151 
L 168.127378 208.326113 
L 172.853234 208.791917 
L 177.983999 209.069843 
L 183.355718 209.13269 
L 188.980129 208.973337 
L 194.870845 208.583614 
L 201.043739 207.954459 
L 207.709684 207.046825 
L 214.706566 205.866235 
L 222.263496 204.35944 
L 230.430738 202.496055 
L 239.27154 200.247157 
L 249.311581 197.459539 
L 261.656629 193.789975 
L 303.460701 181.155661 
L 312.093289 178.891294 
L 319.581658 177.151004 
L 326.089624 175.867739 
L 331.489572 175.018565 
L 334.95907 174.528 
L 334.95907 174.528 
" clip-path="url(#pcfecc947ea)" style="fill: none; stroke: #ff7f0e; stroke-linecap: square"/>
   </g>
   <g id="line2d_87">
    <path d="M 125.981316 174.528 
L 126.299689 170.515349 
L 126.777499 168.198883 
L 127.574521 165.613736 
L 128.532068 163.307716 
L 129.810721 160.87686 
L 131.251873 158.640892 
L 132.856525 156.54597 
L 134.78689 154.399886 
L 136.884143 152.400081 
L 139.312046 150.405379 
L 141.911537 148.563116 
L 144.684864 146.862766 
L 147.798829 145.218529 
L 151.093722 143.731757 
L 154.572978 142.399893 
L 158.407732 141.174439 
L 162.437492 140.124143 
L 166.66755 139.25097 
L 171.103917 138.558628 
L 175.926509 138.037436 
L 180.973814 137.723609 
L 186.255429 137.623849 
L 191.782441 137.746067 
L 197.567717 138.099252 
L 203.626272 138.693366 
L 209.975734 139.539228 
L 216.636925 140.648378 
L 223.831266 142.074779 
L 231.401904 143.802386 
L 239.594966 145.898801 
L 248.694062 148.45821 
L 259.264405 151.670463 
L 272.730913 156.010045 
L 305.544271 166.681926 
L 315.834566 169.732424 
L 330.421505 173.929087 
L 330.753968 174.111014 
L 331.08714 174.528 
L 126.140486 177.367673 
L 126.618195 180.19354 
L 127.255611 182.514212 
L 128.212749 185.040924 
L 129.330966 187.329372 
L 130.611009 189.471324 
L 132.214234 191.711665 
L 133.98193 193.802494 
L 136.076756 195.920651 
L 138.339841 197.887573 
L 140.935531 199.832337 
L 143.70468 201.620081 
L 146.649779 203.260126 
L 149.938477 204.829816 
L 153.410938 206.236179 
L 157.070967 207.481014 
L 161.090937 208.605994 
L 165.310224 209.548713 
L 169.734718 210.306558 
L 174.371125 210.875242 
L 179.227104 211.249079 
L 184.311439 211.421175 
L 189.634245 211.383562 
L 195.388295 211.115475 
L 201.411779 210.605025 
L 207.721679 209.841813 
L 214.338027 208.814614 
L 221.284621 207.511579 
L 228.789889 205.874045 
L 236.905269 203.869178 
L 245.695831 201.465017 
L 255.688223 198.496425 
L 267.99217 194.595133 
L 311.052326 180.711149 
L 320.759648 177.951581 
L 329.758692 175.400846 
L 330.753968 174.944986 
L 331.08714 174.528 
L 331.08714 174.528 
" clip-path="url(#pcfecc947ea)" style="fill: none; stroke: #2ca02c; stroke-linecap: square"/>
   </g>
   <g id="line2d_88">
    <path d="M 145.5156 174.528 
L 145.796381 169.116498 
L 146.358055 165.176208 
L 147.060357 161.90158 
L 148.043976 158.440826 
L 149.168684 155.282673 
L 150.575443 152.013641 
L 152.12402 148.969093 
L 153.955735 145.873135 
L 155.930311 142.974014 
L 158.189532 140.070995 
L 160.593045 137.356325 
L 163.141537 134.811967 
L 165.835776 132.42748 
L 168.818802 130.092661 
L 171.949977 127.934701 
L 175.230478 125.951095 
L 178.661635 124.142249 
L 182.244956 122.510884 
L 185.98215 121.061677 
L 189.730756 119.843525 
L 193.636395 118.805205 
L 197.701463 117.957051 
L 201.782644 117.329282 
L 206.027837 116.901202 
L 210.293046 116.691315 
L 214.728113 116.697884 
L 219.188314 116.928151 
L 223.675868 117.38043 
L 228.193265 118.05512 
L 232.743306 118.954726 
L 237.329153 120.084012 
L 241.954392 121.450291 
L 246.623101 123.063912 
L 251.181887 124.872124 
L 255.790475 126.941878 
L 260.29259 129.210154 
L 264.688136 131.67543 
L 268.97678 134.340802 
L 272.989514 137.094224 
L 276.718174 139.910607 
L 280.326788 142.916684 
L 283.63734 145.973412 
L 286.461783 148.871453 
L 288.962818 151.735159 
L 291.130124 154.530097 
L 292.953837 157.208781 
L 294.609605 160.040504 
L 295.9073 162.702564 
L 296.839711 165.04938 
L 297.589024 167.465096 
L 298.153024 170.062132 
L 298.341414 171.370433 
L 298.53 174.528 
L 145.655986 178.356671 
L 146.0772 182.172367 
L 146.779408 185.962049 
L 147.622368 189.23881 
L 148.746846 192.660445 
L 150.012622 195.804427 
L 151.560761 199.033021 
L 153.251024 202.045322 
L 155.224868 205.090252 
L 157.341999 207.940639 
L 159.602971 210.622429 
L 162.150009 213.290566 
L 164.842654 215.782562 
L 167.681755 218.107898 
L 170.668269 220.271355 
L 173.803271 222.274362 
L 177.087977 224.115814 
L 180.523758 225.792581 
L 184.11217 227.299817 
L 187.854983 228.63114 
L 191.754214 229.778714 
L 195.666985 230.703128 
L 199.739968 231.439719 
L 203.976027 231.97581 
L 208.231382 232.290198 
L 212.655413 232.389201 
L 217.103624 232.262989 
L 221.578121 231.914239 
L 226.081262 231.343522 
L 230.615699 230.549327 
L 235.184418 229.527972 
L 239.790798 228.273378 
L 244.438678 226.776691 
L 249.132438 225.025652 
L 253.718061 223.075607 
L 258.19556 220.933589 
L 262.564754 218.603636 
L 266.825233 216.08612 
L 270.976326 213.376581 
L 274.847524 210.591912 
L 278.602082 207.613949 
L 282.063526 204.575969 
L 285.0452 201.676375 
L 287.708714 198.797568 
L 290.043663 195.970404 
L 292.039921 193.235202 
L 293.871977 190.33693 
L 295.350063 187.560888 
L 296.466189 185.008345 
L 297.40141 182.265616 
L 297.96483 179.998016 
L 298.341414 177.685567 
L 298.53 174.528 
L 298.53 174.528 
" clip-path="url(#pcfecc947ea)" style="fill: none; stroke: #d62728; stroke-linecap: square"/>
   </g>
   <g id="line2d_89">
    <path d="M 153 174.528 
L 153.266378 168.58054 
L 153.799135 164.247382 
L 154.465081 160.643067 
L 155.397405 156.829367 
L 156.596108 152.951351 
L 157.928 149.400032 
L 159.52627 145.791834 
L 161.25773 142.425813 
L 163.255568 139.040141 
L 165.386595 135.86687 
L 167.650811 132.877886 
L 170.181405 129.908628 
L 172.845189 127.128739 
L 175.642162 124.52792 
L 178.572324 122.100837 
L 181.635676 119.845768 
L 184.832216 117.763774 
L 188.161946 115.8582 
L 191.624865 114.134376 
L 195.220973 112.599467 
L 198.817081 111.30591 
L 202.546378 110.203826 
L 206.275676 109.333286 
L 210.004973 108.685106 
L 213.867459 108.241251 
L 217.729946 108.024302 
L 221.592432 108.032038 
L 225.454919 108.264538 
L 229.317405 108.724183 
L 233.046703 109.388001 
L 236.776 110.274741 
L 240.505297 111.393795 
L 244.101405 112.704683 
L 247.697514 114.258163 
L 251.160432 116.001391 
L 254.490162 117.927452 
L 257.686703 120.031319 
L 260.750054 122.310024 
L 263.680216 124.762986 
L 266.477189 127.392574 
L 269.140973 130.205007 
L 271.671568 133.211863 
L 273.935784 136.242652 
L 276.066811 139.466088 
L 277.931459 142.668767 
L 279.662919 146.071607 
L 281.261189 149.729046 
L 282.593081 153.3438 
L 283.658595 156.829367 
L 284.590919 160.643067 
L 285.256865 164.247382 
L 285.656432 167.247532 
L 285.922811 170.320402 
L 286.056 174.528 
L 153.133189 178.735598 
L 153.532757 182.930539 
L 154.198703 187.1001 
L 154.997838 190.709253 
L 156.063351 194.483279 
L 157.395243 198.308146 
L 158.860324 201.830159 
L 160.591784 205.390553 
L 162.456432 208.715877 
L 164.587459 212.04482 
L 166.851676 215.16271 
L 169.249081 218.0941 
L 171.912865 220.990605 
L 174.709838 223.694118 
L 177.64 226.2133 
L 180.703351 228.552267 
L 183.899892 230.711741 
L 187.229622 232.689753 
L 190.692541 234.482075 
L 194.155459 236.027666 
L 197.751568 237.39104 
L 201.480865 238.561395 
L 205.210162 239.497026 
L 208.939459 240.207963 
L 212.801946 240.715121 
L 216.664432 240.994343 
L 220.526919 241.0485 
L 224.389405 240.878143 
L 228.251892 240.481533 
L 231.981189 239.880069 
L 235.710486 239.057853 
L 239.439784 238.006309 
L 243.035892 236.764274 
L 246.632 235.284464 
L 250.094919 233.618086 
L 253.424649 231.773017 
L 256.621189 229.75544 
L 259.684541 227.569748 
L 262.614703 225.218343 
L 265.411676 222.701261 
L 268.075459 220.015569 
L 270.606054 217.154367 
L 273.003459 214.10514 
L 275.134486 211.050506 
L 277.132324 207.810377 
L 278.996973 204.351079 
L 280.595243 200.924337 
L 282.060324 197.236659 
L 283.259027 193.615456 
L 284.191351 190.168517 
L 284.990486 186.387074 
L 285.523243 182.930539 
L 285.922811 178.735598 
L 286.056 174.528 
L 286.056 174.528 
" clip-path="url(#pcfecc947ea)" style="fill: none; stroke: #9467bd; stroke-linecap: square"/>
   </g>
   <g id="patch_3">
    <path d="M 103.104 307.584 
L 103.104 41.472 
" style="fill: none; stroke: #000000; stroke-width: 0.8; stroke-linejoin: miter; stroke-linecap: square"/>
   </g>
   <g id="patch_4">
    <path d="M 369.216 307.584 
L 369.216 41.472 
" style="fill: none; stroke: #000000; stroke-width: 0.8; stroke-linejoin: miter; stroke-linecap: square"/>
   </g>
   <g id="patch_5">
    <path d="M 103.104 307.584 
L 369.216 307.584 
" style="fill: none; stroke: #000000; stroke-width: 0.8; stroke-linejoin: miter; stroke-linecap: square"/>
   </g>
   <g id="patch_6">
    <path d="M 103.104 41.472 
L 369.216 41.472 
" style="fill: none; stroke: #000000; stroke-width: 0.8; stroke-linejoin: miter; stroke-linecap: square"/>
   </g>
   <g id="text_11">
    <!-- -2 -->
    <g transform="translate(84.47616 323.162464) scale(0.17 -0.17)">
     <defs>
      <path id="DejaVuSerif-2d" d="M 281 1959 
L 1881 1959 
L 1881 1472 
L 281 1472 
L 281 1959 
z
" transform="scale(0.015625)"/>
     </defs>
     <use xlink:href="#DejaVuSerif-2d"/>
     <use xlink:href="#DejaVuSerif-32" x="33.789062"/>
    </g>
   </g>
  </g>
 </g>
 <defs>
  <clipPath id="pcfecc947ea">
   <rect x="103.104" y="41.472" width="266.112" height="266.112"/>
  </clipPath>
 </defs>
</svg>
